<svg width="32" height="33" viewBox="0 0 32 33" fill="none" xmlns="http://www.w3.org/2000/svg">
<path d="M16.0001 0.687012C7.16325 0.687012 0 7.85027 0 16.6871C0 25.524 7.16325 32.6872 16.0001 32.6872C24.837 32.6872 32.0002 25.524 32.0002 16.6871C32.0002 7.85027 24.837 0.687012 16.0001 0.687012Z" fill="url(#paint0_linear_0_1373)"/>
<path d="M18.1661 20.9281H22.3069L22.9573 16.7217H18.1661V14.4225C18.1661 12.6753 18.7373 11.1257 20.3717 11.1257H22.9981V7.45524C22.5365 7.39284 21.5605 7.25684 19.7165 7.25684C15.8653 7.25684 13.6077 9.29045 13.6077 13.9241V16.7225H9.64844V20.9289H13.6069V32.4906C14.3909 32.6074 15.1853 32.6874 16.0005 32.6874C16.7373 32.6874 17.4565 32.6202 18.1661 32.5242V20.9281Z" fill="white"/>
<defs>
<linearGradient id="paint0_linear_0_1373" x1="4.79444" y1="5.48145" x2="29.2922" y2="29.9792" gradientUnits="userSpaceOnUse">
<stop stop-color="#2AA4F4"/>
<stop offset="1" stop-color="#007AD9"/>
</linearGradient>
</defs>
</svg>
