<svg width="32" height="32" viewBox="0 0 32 32" fill="none" xmlns="http://www.w3.org/2000/svg">
<path d="M29.074 13.3887H28V13.3334H16V18.6667H23.5353C22.436 21.7714 19.482 24.0001 16 24.0001C11.582 24.0001 8.00001 20.4181 8.00001 16.0001C8.00001 11.5821 11.582 8.00008 16 8.00008C18.0393 8.00008 19.8947 8.76941 21.3073 10.0261L25.0787 6.25475C22.6973 4.03541 19.512 2.66675 16 2.66675C8.63667 2.66675 2.66667 8.63675 2.66667 16.0001C2.66667 23.3634 8.63667 29.3334 16 29.3334C23.3633 29.3334 29.3333 23.3634 29.3333 16.0001C29.3333 15.1061 29.2413 14.2334 29.074 13.3887Z" fill="#FBC02D"/>
<path d="M4.20393 9.79408L8.5846 13.0067C9.76993 10.0721 12.6406 8.00008 15.9999 8.00008C18.0393 8.00008 19.8946 8.76941 21.3073 10.0261L25.0786 6.25475C22.6973 4.03541 19.5119 2.66675 15.9999 2.66675C10.8786 2.66675 6.43727 5.55808 4.20393 9.79408Z" fill="#E53935"/>
<path d="M16.0001 29.3335C19.4441 29.3335 22.5734 28.0155 24.9394 25.8722L20.8127 22.3802C19.4741 23.3942 17.8101 24.0002 16.0001 24.0002C12.5321 24.0002 9.58738 21.7889 8.47805 18.7029L4.13005 22.0529C6.33672 26.3709 10.8181 29.3335 16.0001 29.3335Z" fill="#4CAF50"/>
<path d="M29.074 13.3886L29.0633 13.3333H28H16V18.6666H23.5353C23.0073 20.1579 22.048 21.4439 20.8107 22.3806C20.8113 22.3799 20.812 22.3799 20.8127 22.3793L24.9393 25.8713C24.6473 26.1366 29.3333 22.6666 29.3333 15.9999C29.3333 15.1059 29.2413 14.2333 29.074 13.3886Z" fill="#1565C0"/>
</svg>
