<svg width="32" height="32" viewBox="0 0 32 32" fill="none" xmlns="http://www.w3.org/2000/svg">
<g clip-path="url(#clip0_0_1377)">
<path d="M14.666 13.0216C14.666 13.758 14.0691 14.355 13.3327 14.355L5.33268 14.355C4.5963 14.355 3.99935 13.758 3.99935 13.0216L3.99935 5.02165C3.99935 4.28527 4.5963 3.68831 5.33268 3.68831L13.3327 3.68831C14.0691 3.68831 14.666 4.28527 14.666 5.02165L14.666 13.0216Z" fill="#FF5722"/>
<path d="M28 13.0216C28 13.758 27.403 14.355 26.6667 14.355L18.6667 14.355C17.9303 14.355 17.3333 13.758 17.3333 13.0216V5.02165C17.3333 4.28527 17.9303 3.68831 18.6667 3.68831L26.6667 3.68831C27.403 3.68831 28 4.28527 28 5.02165V13.0216Z" fill="#4CAF50"/>
<path d="M28 26.3544C28 27.0908 27.403 27.6877 26.6667 27.6877H18.6667C17.9303 27.6877 17.3333 27.0908 17.3333 26.3544V18.3544C17.3333 17.618 17.9303 17.0211 18.6667 17.0211H26.6667C27.403 17.0211 28 17.618 28 18.3544V26.3544Z" fill="#FFC107"/>
<path d="M14.666 26.3544C14.666 27.0908 14.0691 27.6877 13.3327 27.6877H5.33268C4.5963 27.6877 3.99935 27.0908 3.99935 26.3544L3.99935 18.3544C3.99935 17.618 4.5963 17.0211 5.33268 17.0211H13.3327C14.0691 17.0211 14.666 17.618 14.666 18.3544L14.666 26.3544Z" fill="#03A9F4"/>
</g>
<defs>
<clipPath id="clip0_0_1377">
<rect width="32" height="32" fill="white"/>
</clipPath>
</defs>
</svg>
