<svg id="platformIcon" viewBox="0 0 48 48" xmlns="http://www.w3.org/2000/svg" width="20" height="20">
    <path
        d="M 32.362 0.002 C 33.135 6.602 37.089 11.258 43.485 11.669 L 43.485 17.928 L 43.444 17.932 L 43.444 12.615 C 37.048 12.205 33.37 8.269 32.597 1.67 L 25.821 1.67 L 25.821 29.434 C 26.799 41.931 17.061 42.302 13.336 37.563 C 17.706 40.296 24.8 38.519 23.958 27.767 L 23.958 0.002 L 32.362 0.002 Z M 14.155 46.029 C 10.327 45.241 6.845 42.953 4.801 39.608 C -0.167 31.482 4.311 18.237 18.717 16.874 L 18.717 24.699 L 18.693 24.703 L 18.693 18.833 C 5.337 20.959 3.996 35.306 7.696 41.275 C 9.121 43.576 11.464 45.195 14.155 46.029 Z"
        fill="#26f4ee"
    />
    <path
        d="M 34.302 1.671 C 34.807 5.979 36.55 9.646 39.478 11.788 C 35.515 10.261 33.193 6.758 32.597 1.67 L 34.302 1.671 Z M 43.444 13.545 C 43.989 13.661 44.558 13.739 45.149 13.777 L 45.149 21.197 C 41.439 21.562 38.192 20.34 34.408 18.065 L 34.988 30.772 C 34.988 34.87 35.004 36.743 32.805 40.513 C 27.872 48.97 18.992 49.638 12.988 45.61 C 20.839 48.85 32.725 44.917 32.702 30.772 L 32.702 16.904 C 36.486 19.179 39.734 20.4 43.444 20.035 L 43.444 13.545 Z M 18.693 18.908 C 19.47 18.746 20.284 18.622 21.141 18.541 L 21.141 26.366 C 18.022 26.88 16.04 27.838 15.114 29.61 C 12.195 35.19 15.953 39.616 20.155 40.281 C 15.27 41.093 9.541 36.142 12.957 29.61 C 13.883 27.839 15.574 26.88 18.693 26.366 L 18.693 18.908 Z M 27.978 1.67 L 28.238 1.67 L 27.978 1.67 Z"
        fill="#fb2c53"
    />
    <path
        d="M 32.597 1.67 C 33.37 8.269 37.048 12.205 43.444 12.615 L 43.444 20.035 C 39.734 20.4 36.486 19.179 32.702 16.904 L 32.702 30.772 C 32.732 48.874 13.259 50.251 7.696 41.275 C 3.996 35.306 5.337 20.959 18.693 18.833 L 18.693 26.366 C 15.574 26.88 13.883 27.838 12.957 29.61 C 7.231 40.558 27.201 47.072 25.821 29.434 L 25.821 1.67 L 32.597 1.67 Z" />
</svg>