<svg id="platformIcon" viewBox="0 0 48 48" xmlns="http://www.w3.org/2000/svg" width="20" height="20">
    <rect rx="216" width="48" height="48" fill="#fd2" />
    <path
        fill="#222"
        d="M 39.188 28.688 L 38.625 27.094 C 38.625 27.094 40.969 23.531 35.156 22.313 C 35.156 22.313 35.531 17.906 33.469 15.844 C 37.969 11.438 36.938 4.781 26.719 9.094 C 21.469 -0.937 1.219 22.594 9.656 26.344 C 8.813 27.469 8.813 33.094 14.625 33.656 C 18.563 42.094 28.125 42.656 33.656 40.125 C 39.188 37.594 42.375 29.531 39.188 28.688 Z M 14.531 32.438 C 9.75 31.969 9.281 25.406 13.406 24.75 C 17.531 24.094 18.563 32.813 14.531 32.438 Z M 13.125 23.531 C 11.813 23.531 10.219 25.313 10.219 25.313 C 3.844 22.219 21.75 1.688 25.594 9.656 C 25.594 9.656 16.219 14.156 13.125 23.531 Z M 31.875 31.5 C 31.875 31.125 29.906 32.063 26.344 30.844 C 26.625 28.875 30.844 32.531 37.875 27.75 L 38.438 29.719 C 41.063 29.25 38.438 38.156 30 38.063 C 23.156 37.969 21 30.938 24.75 27.094 C 25.5 26.344 22.031 24.844 22.688 21.563 C 22.969 20.156 24.188 18.094 27.281 18.656 C 30.375 19.219 31.031 16.406 33.094 17.438 C 35.156 18.469 33.938 22.406 34.219 22.969 C 34.5 23.531 37.5 23.625 38.063 25.219 C 38.625 26.813 34.219 30.281 27.375 29.344 C 25.781 29.156 24.844 31.219 25.875 32.531 C 27.938 35.531 36.375 33.563 37.781 30.656 C 34.219 33.375 26.906 34.406 26.344 31.5 C 28.406 32.438 31.875 31.875 31.875 31.5 Z M 19.594 16.688 C 21.656 14.156 24.375 12.656 24.375 12.656 L 23.813 14.063 C 23.813 14.063 25.781 12.563 27.938 12.563 L 27.188 13.313 C 29.625 13.406 30.656 14.344 30.656 14.344 C 30.656 14.344 24.938 12.656 19.594 16.688 Z M 32.25 20.344 C 33.469 20.25 33.094 23.063 33.094 23.063 L 32.344 23.063 C 32.344 23.063 31.031 20.438 32.25 20.344 Z M 26.719 23.438 C 25.875 23.531 24.938 24 25.031 23.625 C 25.406 22.125 28.875 22.5 28.781 23.813 C 28.688 25.125 27.938 23.25 26.719 23.438 Z M 28.688 24.563 C 28.781 24.75 28.031 24.563 27.469 24.656 C 26.906 24.75 26.344 25.031 26.344 24.844 C 26.344 24.656 28.5 23.813 28.688 24.563 Z M 30.563 24.844 C 30.844 24.281 31.969 24.844 31.688 25.406 C 31.406 25.969 30.281 25.406 30.563 24.844 Z M 32.906 25.031 C 32.344 25.031 32.344 23.813 32.906 23.813 C 33.469 23.813 33.469 25.125 32.906 25.125 L 32.906 25.031 Z M 16.031 30 C 16.313 30.281 15.469 30.844 14.813 30.375 C 14.156 29.906 15.563 27.656 13.875 27.094 C 12.188 26.531 12.656 28.688 12.188 28.406 C 11.719 28.125 12.844 25.125 14.813 26.344 C 16.781 27.563 14.25 29.438 15.375 30 C 16.5 30.563 15.844 29.813 16.031 30 Z"
    />
</svg>