<svg id="platformIcon" viewBox="0 0 48 48" xmlns="http://www.w3.org/2000/svg" width="20" height="20">
    <path class="st0"
        d="M 24 0 C 10.746 0 0 10.746 0 24 C 0 37.254 10.746 48 24 48 C 37.254 48 48 37.254 48 24 C 48 10.746 37.254 0 24 0 Z M 41.551 14.406 C 41.637 15.043 41.684 15.727 41.684 16.461 C 41.684 18.488 41.305 20.77 40.164 23.625 L 34.055 41.285 C 40 37.82 44 31.375 44 24 C 44 20.523 43.113 17.254 41.551 14.406 Z M 24.352 25.75 L 18.352 43.188 C 20.145 43.715 22.039 44.004 24 44.004 C 26.328 44.004 28.563 43.602 30.641 42.871 C 30.586 42.785 30.539 42.695 30.496 42.594 L 24.352 25.75 Z M 37.5 22.992 C 37.5 20.52 36.613 18.809 35.852 17.477 C 34.836 15.828 33.887 14.434 33.887 12.785 C 33.887 10.945 35.281 9.234 37.246 9.234 C 37.336 9.234 37.418 9.246 37.504 9.25 C 33.945 5.988 29.203 4 24 4 C 17.012 4 10.867 7.586 7.289 13.016 C 7.758 13.031 8.199 13.039 8.578 13.039 C 10.668 13.039 13.91 12.785 13.91 12.785 C 14.988 12.723 15.113 14.305 14.039 14.434 C 14.039 14.434 12.957 14.559 11.75 14.625 L 19.031 36.289 L 23.41 23.164 L 20.293 14.625 C 19.215 14.563 18.195 14.434 18.195 14.434 C 17.117 14.371 17.242 12.723 18.32 12.785 C 18.32 12.785 21.621 13.039 23.586 13.039 C 25.676 13.039 28.918 12.785 28.918 12.785 C 29.996 12.723 30.121 14.305 29.047 14.434 C 29.047 14.434 27.961 14.559 26.758 14.625 L 33.984 36.121 L 36.047 29.582 C 36.965 26.727 37.5 24.703 37.5 22.992 Z M 4 24 C 4 31.918 8.602 38.758 15.273 42 L 5.73 15.859 C 4.621 18.348 4 21.098 4 24 Z M 24 1.441 C 27.047 1.441 30 2.039 32.781 3.215 C 34.117 3.781 35.406 4.48 36.613 5.293 C 37.809 6.102 38.934 7.027 39.953 8.047 C 40.973 9.066 41.902 10.191 42.707 11.387 C 43.523 12.594 44.223 13.883 44.785 15.219 C 45.961 18 46.559 20.953 46.559 24 C 46.559 27.047 45.961 30 44.785 32.781 C 44.219 34.117 43.52 35.406 42.707 36.613 C 41.898 37.809 40.973 38.934 39.953 39.953 C 38.934 40.973 37.809 41.902 36.613 42.707 C 35.406 43.523 34.117 44.223 32.781 44.785 C 30 45.961 27.047 46.559 24 46.559 C 20.953 46.559 18 45.961 15.219 44.785 C 13.883 44.219 12.594 43.52 11.387 42.707 C 10.191 41.898 9.066 40.973 8.047 39.953 C 7.027 38.934 6.098 37.809 5.293 36.613 C 4.477 35.406 3.777 34.117 3.215 32.781 C 2.035 30 1.441 27.047 1.441 24 C 1.441 20.953 2.039 18 3.215 15.219 C 3.781 13.883 4.48 12.594 5.293 11.387 C 6.102 10.191 7.027 9.066 8.047 8.047 C 9.066 7.027 10.191 6.098 11.387 5.293 C 12.594 4.477 13.883 3.777 15.219 3.215 C 18 2.035 20.953 1.441 24 1.441 Z"
        fill="#3858e9"></path>
</svg>