<svg id="platformIcon" viewBox="0 0 48 48" xmlns="http://www.w3.org/2000/svg" width="20" height="20">
    <path
        d="M 17.449 32.188 C 16.544 33.093 16.544 34.559 17.449 35.464 C 18.354 36.368 19.82 36.368 20.725 35.464 L 35.46 20.728 C 37.268 18.92 40.201 18.92 42.009 20.728 C 43.818 22.537 43.818 25.469 42.009 27.277 L 27.558 41.728 C 29.364 43.536 32.295 43.538 34.103 41.732 L 34.107 41.728 L 45.287 30.549 C 48.904 26.932 48.904 21.068 45.287 17.451 C 41.669 13.833 35.804 13.833 32.188 17.451 L 17.449 32.188 Z M 40.373 22.363 C 39.469 21.458 38.002 21.458 37.099 22.363 L 22.361 37.099 C 20.555 38.907 17.624 38.909 15.816 37.103 L 15.811 37.099 C 14.907 36.195 13.442 36.194 12.537 37.098 L 12.537 37.099 C 11.632 38.002 11.631 39.469 12.535 40.373 L 12.537 40.375 C 16.153 43.991 22.018 43.991 25.635 40.375 L 40.372 25.638 C 41.277 24.733 41.277 23.267 40.373 22.363 Z M 15.812 30.55 L 30.548 15.815 C 31.451 14.91 31.451 13.444 30.548 12.539 C 29.644 11.636 28.179 11.636 27.275 12.539 L 12.537 27.275 C 10.729 29.083 7.797 29.084 5.988 27.276 L 5.987 27.275 C 4.179 25.467 4.177 22.537 5.984 20.727 L 5.987 20.724 L 20.44 6.271 C 18.633 4.463 15.701 4.462 13.892 6.269 L 13.89 6.271 L 2.713 17.451 C -0.904 21.068 -0.904 26.932 2.713 30.549 C 6.331 34.167 12.193 34.167 15.812 30.55 Z M 7.625 25.638 C 8.529 26.542 9.994 26.542 10.898 25.638 L 25.636 10.901 C 27.444 9.093 30.375 9.092 32.183 10.9 L 32.185 10.901 C 33.09 11.806 34.556 11.806 35.46 10.901 C 36.365 9.997 36.365 8.531 35.46 7.627 C 31.842 4.009 25.979 4.009 22.361 7.627 L 7.625 22.363 C 6.72 23.267 6.72 24.733 7.624 25.638 L 7.625 25.638 Z"
        fill="#000"
    />
</svg>