<svg id="platformIcon" viewBox="0 0 48 48" xmlns="http://www.w3.org/2000/svg" width="20" height="20">
    <path
        d="M 22.354 1.556 C 22.7 1.556 22.872 1.729 23.217 1.902 C 21.145 2.765 19.074 5.01 18.037 9.844 L 14.239 10.88 C 15.448 7.427 17.865 1.556 22.354 1.556 Z M 24.253 3.284 C 24.724 4.614 24.958 6.016 24.944 7.427 L 24.944 7.772 L 19.937 9.154 C 20.972 5.528 22.7 3.974 24.253 3.284 Z M 28.742 6.391 L 26.497 7.082 L 26.497 6.565 C 26.497 5.011 26.329 3.802 25.98 2.766 C 27.193 3.11 28.224 4.665 28.742 6.391 Z M 39.964 9.154 C 39.952 8.968 39.804 8.821 39.619 8.808 C 39.274 8.808 35.648 8.463 35.648 8.463 C 35.648 8.463 33.058 5.873 32.713 5.7 C 32.368 5.355 31.85 5.528 31.677 5.528 C 31.677 5.528 31.159 5.7 30.296 6.046 C 29.432 3.631 27.879 1.384 25.289 1.384 L 25.12 1.384 C 24.55 0.511 23.573 -0.01 22.53 0.003 C 16.315 -0.166 13.38 7.6 12.346 11.571 C 10.965 11.916 9.584 12.434 8.03 12.952 C 6.649 13.297 6.649 13.47 6.476 14.678 C 6.303 15.542 2.85 42.82 2.85 42.82 L 30.302 48 L 45.15 44.717 C 45.15 44.717 39.964 9.499 39.964 9.154 Z"
        fill="#95BF47"
    />
    <path
        d="M 39.447 8.808 C 39.274 8.808 35.648 8.463 35.648 8.463 C 35.648 8.463 33.058 5.873 32.713 5.7 C 32.541 5.528 32.541 5.528 32.368 5.528 L 30.296 48 L 45.144 44.717 C 45.144 44.717 39.964 9.496 39.964 9.151 C 39.964 8.978 39.619 8.806 39.447 8.806"
        fill="#5E8E3E"
    />
    <path
        d="M 25.289 17.098 L 23.39 22.623 C 22.264 22.06 21.023 21.765 19.764 21.76 C 16.829 21.76 16.656 23.486 16.656 24.004 C 16.656 26.421 23.217 27.455 23.217 33.327 C 23.217 37.989 20.282 40.924 16.315 40.924 C 11.653 40.924 9.237 37.989 9.237 37.989 L 10.443 33.843 C 10.443 33.843 12.859 35.914 14.932 35.914 C 16.313 35.914 16.83 34.879 16.83 34.015 C 16.83 30.733 11.478 30.564 11.478 25.21 C 11.478 20.721 14.761 16.405 21.147 16.405 C 24.078 16.232 25.289 17.098 25.289 17.098"
        fill="#FFFFFF"
    />
</svg>