<svg id="platformIcon" viewBox="0 0 48 48" xmlns="http://www.w3.org/2000/svg" width="20" height="20">
    <path
        d="M 0 14.559 C 0 14.559 1.89 14.319 3.15 15.444 C 3.924 16.14 4.153 17.246 4.153 17.246 L 6.727 27.353 L 8.866 19.081 C 9.075 18.201 9.45 17.119 10.045 16.379 C 10.802 15.442 12.342 15.383 12.505 15.383 C 12.669 15.383 14.208 15.442 14.965 16.379 C 15.559 17.114 15.935 18.201 16.144 19.081 L 18.283 27.353 L 20.856 17.246 C 20.856 17.246 21.083 16.139 21.86 15.444 C 23.12 14.319 25.009 14.559 25.009 14.559 L 20.082 33.448 C 20.082 33.448 18.458 33.567 17.645 33.147 C 16.576 32.595 16.068 32.166 15.421 29.599 L 15.354 29.332 C 15.119 28.386 14.757 26.905 14.392 25.408 L 14.283 24.957 L 14.174 24.508 C 13.647 22.347 13.162 20.356 13.084 20.103 C 13.005 19.85 12.925 19.301 12.506 19.301 C 12.088 19.301 12.003 19.867 11.927 20.103 C 11.839 20.381 11.258 22.776 10.673 25.182 L 10.564 25.633 C 10.265 26.869 9.963 28.104 9.658 29.339 L 9.592 29.599 C 8.938 32.168 8.434 32.595 7.365 33.147 C 6.552 33.567 4.927 33.448 4.927 33.448 L 0 14.559 Z M 29.74 17.917 L 29.74 18.589 L 29.74 29.829 C 29.73 32.135 29.488 32.647 28.432 33.179 C 27.612 33.591 26.361 33.435 26.361 33.435 L 26.361 20.846 C 26.361 20.213 26.579 19.799 27.359 19.429 C 27.828 19.211 28.265 19.036 28.72 18.784 C 29.121 18.576 29.47 18.279 29.74 17.917 Z M 31.093 14.622 C 31.093 14.622 33.709 14.167 35.012 15.37 C 35.841 16.141 36.77 17.526 36.77 17.526 L 39.059 20.883 C 39.168 21.057 39.314 21.248 39.546 21.248 C 39.779 21.248 39.923 21.057 40.034 20.883 L 42.323 17.526 C 42.323 17.526 43.251 16.141 44.082 15.37 C 45.379 14.171 48 14.622 48 14.622 L 41.786 24.033 L 47.979 33.415 L 47.957 33.415 C 47.7 33.446 45.232 33.701 43.999 32.559 C 43.169 31.79 42.318 30.537 42.318 30.537 L 40.029 27.181 C 39.92 27.006 39.773 26.817 39.542 26.817 C 39.311 26.817 39.166 27.006 39.055 27.181 L 36.766 30.537 C 36.766 30.537 35.961 31.79 35.13 32.559 C 33.832 33.765 31.104 33.412 31.104 33.412 L 37.302 24.034 L 31.093 14.622 Z M 29.714 14.537 L 29.741 14.537 C 29.741 15.828 29.616 16.593 28.804 17.19 C 28.424 17.467 28.009 17.693 27.57 17.86 C 27.124 18.026 26.714 18.275 26.361 18.594 C 26.361 16.243 26.72 15.393 27.68 14.887 C 28.264 14.583 29.214 14.537 29.585 14.537 L 29.714 14.537 Z"
        fill="#000"
    />
</svg>