<svg width="88" height="17" fill="none" xmlns="http://www.w3.org/2000/svg"><path d="M7.522 1.569a.533.533 0 0 1 .956 0l1.749 3.543a.533.533 0 0 0 .402.292l3.91.568a.533.533 0 0 1 .295.91l-2.83 2.758a.533.533 0 0 0-.152.472l.667 3.895a.533.533 0 0 1-.773.562L8.248 12.73a.533.533 0 0 0-.496 0l-3.498 1.84a.533.533 0 0 1-.774-.563l.668-3.895a.533.533 0 0 0-.153-.472l-2.83-2.758a.533.533 0 0 1 .296-.91l3.91-.568a.533.533 0 0 0 .402-.292L7.522 1.57ZM25.521 1.569a.533.533 0 0 1 .957 0l1.749 3.543a.533.533 0 0 0 .401.292l3.91.568a.533.533 0 0 1 .296.91l-2.83 2.758a.533.533 0 0 0-.153.472l.668 3.895a.533.533 0 0 1-.774.562l-3.497-1.839a.533.533 0 0 0-.497 0l-3.497 1.84a.533.533 0 0 1-.774-.563l.668-3.895a.534.534 0 0 0-.153-.472l-2.83-2.758a.533.533 0 0 1 .296-.91l3.91-.568a.533.533 0 0 0 .402-.292L25.52 1.57ZM43.521 1.569a.533.533 0 0 1 .957 0l1.748 3.543a.533.533 0 0 0 .402.292l3.91.568a.533.533 0 0 1 .296.91l-2.83 2.758a.533.533 0 0 0-.153.472l.668 3.895a.533.533 0 0 1-.774.562l-3.497-1.839a.533.533 0 0 0-.497 0l-3.497 1.84a.533.533 0 0 1-.774-.563l.668-3.895a.533.533 0 0 0-.154-.472l-2.83-2.758a.533.533 0 0 1 .297-.91l3.91-.568a.533.533 0 0 0 .401-.292l1.75-3.543ZM61.521 1.569a.533.533 0 0 1 .956 0l1.75 3.543a.533.533 0 0 0 .4.292l3.911.568a.533.533 0 0 1 .296.91l-2.83 2.758a.533.533 0 0 0-.153.472l.668 3.895a.533.533 0 0 1-.774.562l-3.498-1.839a.533.533 0 0 0-.496 0l-3.497 1.84a.533.533 0 0 1-.774-.563l.668-3.895a.533.533 0 0 0-.154-.472l-2.83-2.758a.533.533 0 0 1 .296-.91l3.91-.568a.533.533 0 0 0 .402-.292l1.749-3.543ZM79.52 1.569a.533.533 0 0 1 .957 0l1.749 3.543a.533.533 0 0 0 .402.292l3.91.568a.533.533 0 0 1 .296.91l-2.83 2.758a.534.534 0 0 0-.154.472l.669 3.895a.533.533 0 0 1-.774.562l-3.498-1.839a.533.533 0 0 0-.496 0l-3.498 1.84a.533.533 0 0 1-.774-.563l.668-3.895a.533.533 0 0 0-.153-.472l-2.83-2.758a.533.533 0 0 1 .296-.91l3.91-.568a.533.533 0 0 0 .402-.292l1.749-3.543Z" fill="#0188FF"/></svg>