<svg xmlns="http://www.w3.org/2000/svg" width="410" height="367" fill="none"><g clip-path="url(#a)"><g clip-path="url(#b)"><rect width="670" height="244.328" y=".6" fill="#fff" rx="7.204"/><rect width="12.007" height="12.007" x="14.409" y="16.005" fill="#0188FF" rx="3.002"/><path fill="#fff" fill-rule="evenodd" d="M22.663 19.607a.748.748 0 0 0-.53.22l-.75.75-1.721 1.72-.97-.97a.75.75 0 0 0-1.061 1.061l1.5 1.502a.748.748 0 0 0 1.061 0l2.252-2.252.75-.75a.75.75 0 0 0-.53-1.281Z" clip-rule="evenodd"/><path fill="#5D778D" d="M35.67 25.008V18.24h1.05v6.768h-1.05Zm2.631 0v-5.093h1.018v.783h.075c.225-.558.722-.882 1.388-.882.694 0 1.187.361 1.412.91h.08c.258-.549.844-.91 1.552-.91 1.027 0 1.628.62 1.628 1.68v3.512H44.44V21.74c0-.704-.32-1.05-.985-1.05-.648 0-1.074.483-1.074 1.097v3.222h-1.014v-3.372c0-.582-.38-.948-.98-.948-.614 0-1.07.526-1.07 1.192v3.128h-1.017Zm8.574 1.698v-6.791h1.018v.802h.075c.295-.559.853-.892 1.566-.892 1.285 0 2.11 1.028 2.11 2.632v.01c0 1.613-.815 2.626-2.11 2.626-.699 0-1.294-.343-1.566-.892h-.075v2.505h-1.018Zm2.373-2.481c.85 0 1.36-.666 1.36-1.759v-.01c0-1.097-.51-1.758-1.36-1.758-.849 0-1.374.67-1.374 1.759v.01c0 1.087.525 1.758 1.374 1.758Zm3.621.783v-5.093h1.018v.769h.075c.183-.54.657-.859 1.337-.859.164 0 .342.024.445.047v.938a2.66 2.66 0 0 0-.548-.06c-.78 0-1.31.478-1.31 1.214v3.044H52.87Zm5.854.099c-1.492 0-2.392-1.018-2.392-2.631v-.005c0-1.59.919-2.655 2.34-2.655 1.421 0 2.294 1.027 2.294 2.556v.357h-3.612c.019.975.553 1.543 1.393 1.543.652 0 1.041-.324 1.163-.586l.019-.038.98-.005-.01.043c-.168.67-.872 1.42-2.175 1.42Zm-.047-4.456c-.695 0-1.22.474-1.309 1.35h2.59c-.08-.91-.592-1.35-1.281-1.35Zm5.351 4.456c-1.229 0-2.007-.577-2.106-1.43v-.005h1.018l.005.004c.127.385.497.643 1.102.643.629 0 1.065-.286 1.065-.704v-.01c0-.318-.24-.534-.83-.67l-.812-.188c-.961-.22-1.407-.656-1.407-1.402v-.005c0-.886.826-1.524 1.98-1.524 1.163 0 1.908.582 1.997 1.412v.005h-.97v-.01c-.099-.356-.46-.624-1.032-.624-.559 0-.962.277-.962.685v.01c0 .318.235.515.807.651l.807.183c.98.23 1.449.648 1.449 1.384v.01c0 .942-.9 1.585-2.11 1.585Zm5.085 0c-1.23 0-2.008-.577-2.106-1.43v-.005h1.017l.005.004c.127.385.497.643 1.102.643.629 0 1.065-.286 1.065-.704v-.01c0-.318-.24-.534-.83-.67l-.812-.188c-.961-.22-1.407-.656-1.407-1.402v-.005c0-.886.826-1.524 1.98-1.524 1.163 0 1.909.582 1.998 1.412v.005h-.971v-.01c-.099-.356-.46-.624-1.032-.624-.558 0-.962.277-.962.685v.01c0 .318.235.515.807.651l.807.183c.98.23 1.45.648 1.45 1.384v.01c0 .942-.901 1.585-2.111 1.585Zm3.855-6.102a.638.638 0 0 1-.638-.634.639.639 0 0 1 1.276 0 .64.64 0 0 1-.638.634Zm-.511 6.003v-5.093h1.013v5.093h-1.013Zm4.653.099c-1.497 0-2.411-1-2.411-2.64v-.01c0-1.637.919-2.64 2.41-2.64 1.487 0 2.407.998 2.407 2.64v.01c0 1.64-.915 2.64-2.406 2.64Zm0-.85c.872 0 1.37-.665 1.37-1.79v-.01c0-1.13-.498-1.792-1.37-1.792-.877 0-1.37.661-1.37 1.792v.01c0 1.13.492 1.79 1.37 1.79Zm3.62.751v-5.093h1.018v.773h.075c.249-.544.737-.872 1.478-.872 1.14 0 1.768.68 1.768 1.895v3.297h-1.013V21.95c0-.844-.352-1.262-1.098-1.262-.745 0-1.21.512-1.21 1.332v2.988H80.73Zm7.613.099c-1.229 0-2.008-.577-2.106-1.43v-.005h1.018l.004.004c.127.385.498.643 1.103.643.628 0 1.064-.286 1.064-.704v-.01c0-.318-.239-.534-.83-.67l-.811-.188c-.962-.22-1.407-.656-1.407-1.402v-.005c0-.886.825-1.524 1.979-1.524 1.163 0 1.909.582 1.998 1.412v.005h-.97v-.01c-.1-.356-.46-.624-1.033-.624-.558 0-.961.277-.961.685v.01c0 .318.234.515.806.651l.807.183c.98.23 1.45.648 1.45 1.384v.01c0 .942-.901 1.585-2.111 1.585Z"/><path fill="#5D778D" fill-rule="evenodd" d="M99.025 17.606a4.403 4.403 0 1 0 0 8.805 4.403 4.403 0 0 0 0-8.805Zm-.438 2.91a.8.8 0 0 1 1.207.691c0 .188-.147.384-.423.568a2.417 2.417 0 0 1-.505.254.4.4 0 0 0 .254.76l.067-.025a3.212 3.212 0 0 0 .628-.322c.325-.217.779-.621.779-1.234a1.6 1.6 0 0 0-3.111-.533.4.4 0 0 0 .755.265.8.8 0 0 1 .35-.424Zm.438 3.093a.4.4 0 1 0 0 .8h.004a.4.4 0 0 0 0-.8h-.004Z" clip-rule="evenodd"/><rect width="12.007" height="4.803" x="14.409" y="41.811" fill="#6464C6" rx="1.801"/><path fill="#131D27" d="M37.714 48.367c-2.118 0-3.583-1.053-3.583-2.58v-.012c0-1.151.856-2 2.05-2.235v-.037c-1.028-.252-1.724-.997-1.724-1.945v-.012c0-1.373 1.336-2.37 3.257-2.37 1.914 0 3.256.997 3.256 2.37v.012c0 .948-.702 1.693-1.724 1.945v.037c1.189.234 2.044 1.084 2.044 2.235v.012c0 1.527-1.459 2.58-3.576 2.58Zm0-5.424c.837 0 1.416-.499 1.416-1.213v-.012c0-.708-.585-1.2-1.416-1.2s-1.422.492-1.422 1.2v.012c0 .714.584 1.213 1.422 1.213Zm0 4.07c.966 0 1.65-.567 1.65-1.349v-.012c0-.788-.671-1.36-1.65-1.36-.98 0-1.656.572-1.656 1.36v.012c0 .782.683 1.348 1.656 1.348Zm4.658 1.2v-1.275l3.14-2.936c1.145-1.071 1.385-1.508 1.385-2.124v-.012c-.006-.727-.56-1.244-1.348-1.244-.911 0-1.527.597-1.551 1.398l-.007.055h-1.723v-.05c0-1.674 1.39-2.85 3.268-2.85s3.17 1.072 3.17 2.586v.012c0 1.078-.51 1.78-2.043 3.19l-1.86 1.698v.074h4.027v1.478h-6.458Zm13.368-9.038c2.142 0 3.706 1.503 3.706 4.513v.012c0 2.912-1.41 4.666-3.724 4.666-1.718 0-3.01-.997-3.275-2.37l-.013-.055h1.835l.018.05c.222.535.715.898 1.44.898 1.3 0 1.866-1.237 1.934-2.807.006-.117.012-.24.006-.339h-.03c-.352.825-1.226 1.428-2.426 1.428-1.718 0-2.893-1.212-2.893-2.88v-.013c0-1.816 1.446-3.102 3.422-3.102Zm.006 4.624c.93 0 1.644-.647 1.644-1.552v-.006c0-.898-.714-1.588-1.625-1.588-.905 0-1.638.683-1.638 1.564v.012c0 .923.696 1.57 1.62 1.57Zm8.236 4.568c-2.118 0-3.583-1.053-3.583-2.58v-.012c0-1.151.856-2 2.05-2.235v-.037c-1.028-.252-1.724-.997-1.724-1.945v-.012c0-1.373 1.336-2.37 3.257-2.37 1.914 0 3.256.997 3.256 2.37v.012c0 .948-.702 1.693-1.724 1.945v.037c1.189.234 2.044 1.084 2.044 2.235v.012c0 1.527-1.459 2.58-3.576 2.58Zm0-5.424c.837 0 1.416-.499 1.416-1.213v-.012c0-.708-.585-1.2-1.416-1.2s-1.422.492-1.422 1.2v.012c0 .714.584 1.213 1.422 1.213Zm0 4.07c.966 0 1.65-.567 1.65-1.349v-.012c0-.788-.672-1.36-1.65-1.36-.98 0-1.656.572-1.656 1.36v.012c0 .782.683 1.348 1.656 1.348Zm5.12 1.2 3.823-7.37v-.036h-4.519v-1.478h6.353v1.496l-3.706 7.388h-1.951Z"/><rect width="12.007" height="12.007" x="145.527" y="16.005" fill="#0188FF" rx="3.002"/><path fill="#fff" fill-rule="evenodd" d="M153.782 19.607a.75.75 0 0 0-.531.22l-.75.75-1.721 1.72-.97-.97a.75.75 0 1 0-1.061 1.062l1.5 1.5a.75.75 0 0 0 1.062 0l2.251-2.25.75-.751a.75.75 0 0 0-.53-1.281Z" clip-rule="evenodd"/><path fill="#5D778D" d="M169.565 25.172c-1.881 0-3.054-1.36-3.054-3.54v-.01c0-2.186 1.168-3.546 3.049-3.546 1.492 0 2.636.943 2.814 2.289l-.005.023h-1.041v-.014c-.197-.83-.877-1.37-1.768-1.37-1.215 0-1.975 1.009-1.975 2.618v.01c0 1.603.76 2.612 1.98 2.612.896 0 1.566-.479 1.759-1.243l.009-.019h1.041v.028c-.197 1.3-1.299 2.162-2.809 2.162Zm4.122-.164v-7.091h1.018v7.091h-1.018Zm3.063-6.003a.638.638 0 0 1-.638-.634.638.638 0 0 1 1.276 0 .64.64 0 0 1-.638.634Zm-.511 6.003v-5.093h1.013v5.093h-1.013Zm4.639.099c-1.487 0-2.397-1.013-2.397-2.66v-.01c0-1.613.905-2.62 2.392-2.62 1.28 0 2.045.721 2.186 1.711v.024l-.976.004-.005-.014c-.112-.502-.525-.877-1.2-.877-.849 0-1.36.675-1.36 1.773v.01c0 1.125.52 1.81 1.36 1.81.638 0 1.032-.291 1.196-.84l.009-.023h.976l-.01.042c-.183.99-.91 1.67-2.171 1.67Zm3.381-.099v-7.091h1.018v4.146h.075l2.022-2.148h1.191l-2.125 2.148 2.266 2.945h-1.238l-1.755-2.289-.436.436v1.853h-1.018Zm7.031.099c-1.229 0-2.007-.577-2.106-1.43v-.005h1.018l.005.004c.126.385.497.643 1.102.643.628 0 1.065-.286 1.065-.704v-.01c0-.318-.24-.534-.831-.67l-.811-.188c-.961-.22-1.407-.656-1.407-1.402v-.005c0-.886.825-1.524 1.979-1.524 1.163 0 1.909.582 1.998 1.412v.005h-.971v-.01c-.098-.356-.459-.624-1.031-.624-.559 0-.962.277-.962.685v.01c0 .318.235.515.807.651l.806.183c.981.23 1.45.648 1.45 1.384v.01c0 .942-.901 1.585-2.111 1.585Z"/><path fill="#5D778D" fill-rule="evenodd" d="M201.143 17.606a4.402 4.402 0 1 0 0 8.804 4.402 4.402 0 0 0 0-8.804Zm-.437 2.91a.8.8 0 0 1 1.206.691c0 .188-.146.384-.422.568a2.42 2.42 0 0 1-.354.193l-.115.048-.037.013a.4.4 0 0 0 .254.76l.067-.025a3.268 3.268 0 0 0 .629-.322c.324-.217.778-.621.778-1.234a1.598 1.598 0 0 0-2.412-1.382 1.603 1.603 0 0 0-.699.849.4.4 0 0 0 .755.265.803.803 0 0 1 .35-.424Zm.437 3.093a.4.4 0 1 0 0 .8h.004a.4.4 0 1 0 0-.8h-.004Z" clip-rule="evenodd"/><rect width="12.007" height="4.803" x="145.527" y="41.811" fill="#37A2FF" rx="1.801"/><path fill="#131D27" d="M168.672 48.367c-2.013 0-3.331-1.06-3.454-2.592l-.006-.08h1.773l.012.068c.08.634.708 1.108 1.669 1.108.954 0 1.57-.511 1.57-1.238v-.012c0-.85-.635-1.318-1.706-1.318h-1.015V42.98h.991c.929 0 1.533-.492 1.533-1.213v-.012c0-.72-.511-1.151-1.386-1.151-.868 0-1.459.45-1.532 1.139l-.007.055h-1.705l.006-.074c.123-1.539 1.373-2.548 3.238-2.548 1.915 0 3.146.935 3.146 2.333v.012c0 1.108-.812 1.828-1.853 2.044v.037c1.318.123 2.179.886 2.179 2.093v.012c0 1.588-1.379 2.66-3.453 2.66Zm8.118 0c-2.142 0-3.706-1.509-3.706-4.519v-.012c0-2.912 1.41-4.66 3.725-4.66 1.717 0 3.01.99 3.275 2.363l.012.062h-1.835l-.018-.055c-.222-.536-.714-.9-1.44-.9-1.299 0-1.866 1.238-1.933 2.808a6.55 6.55 0 0 0-.013.339h.037c.351-.825 1.225-1.429 2.426-1.429 1.717 0 2.893 1.22 2.893 2.881v.013c0 1.816-1.447 3.108-3.423 3.108Zm-1.65-3.066c0 .892.714 1.588 1.626 1.588.905 0 1.637-.69 1.637-1.564v-.012c0-.923-.696-1.576-1.619-1.576-.93 0-1.644.647-1.644 1.551v.013Zm12.131 3.066c-2.118 0-3.583-1.053-3.583-2.58v-.012c0-1.151.856-2 2.05-2.235v-.037c-1.028-.252-1.724-.997-1.724-1.945v-.012c0-1.373 1.336-2.37 3.257-2.37 1.914 0 3.256.997 3.256 2.37v.012c0 .948-.701 1.693-1.723 1.945v.037c1.188.234 2.044 1.084 2.044 2.235v.012c0 1.527-1.459 2.58-3.577 2.58Zm0-5.424c.837 0 1.416-.499 1.416-1.213v-.012c0-.708-.585-1.2-1.416-1.2s-1.422.492-1.422 1.2v.012c0 .714.585 1.213 1.422 1.213Zm0 4.07c.966 0 1.65-.567 1.65-1.349v-.012c0-.788-.671-1.36-1.65-1.36-.979 0-1.656.572-1.656 1.36v.012c0 .782.683 1.348 1.656 1.348Zm4.659 1.2v-1.275l3.139-2.936c1.145-1.071 1.385-1.508 1.385-2.124v-.012c-.006-.727-.56-1.244-1.348-1.244-.911 0-1.527.597-1.551 1.398l-.006.055h-1.724v-.05c0-1.674 1.391-2.85 3.269-2.85 1.877 0 3.17 1.072 3.17 2.586v.012c0 1.078-.511 1.78-2.044 3.19l-1.859 1.698v.074h4.026v1.478h-6.457Zm11.017.154c-2.253 0-3.619-1.767-3.619-4.593v-.012c0-2.826 1.366-4.586 3.619-4.586s3.62 1.76 3.62 4.586v.012c0 2.826-1.367 4.593-3.62 4.593Zm0-1.49c1.108 0 1.743-1.151 1.743-3.103v-.012c0-1.952-.635-3.097-1.743-3.097s-1.742 1.145-1.742 3.097v.012c0 1.952.634 3.103 1.742 3.103Z"/><rect width="12.007" height="12.007" x="276.645" y="16.005" fill="#0188FF" rx="3.002"/><path fill="#fff" fill-rule="evenodd" d="M284.9 19.607a.75.75 0 0 0-.531.22l-.75.75-1.721 1.72-.97-.97a.75.75 0 1 0-1.061 1.062l1.501 1.5a.747.747 0 0 0 1.061 0l2.251-2.25.751-.751a.75.75 0 0 0-.531-1.281Z" clip-rule="evenodd"/><path fill="#5D778D" d="M300.683 25.172c-1.881 0-3.053-1.36-3.053-3.54v-.01c0-2.186 1.167-3.546 3.048-3.546 1.492 0 2.636.943 2.814 2.289l-.004.023h-1.042v-.014c-.197-.83-.877-1.37-1.768-1.37-1.215 0-1.974 1.009-1.974 2.618v.01c0 1.603.759 2.612 1.979 2.612.896 0 1.566-.479 1.759-1.243l.009-.019h1.041v.028c-.197 1.3-1.299 2.162-2.809 2.162Zm6.233-.065c-1.496 0-2.41-1-2.41-2.64v-.01c0-1.637.919-2.64 2.41-2.64 1.487 0 2.406.998 2.406 2.64v.01c0 1.64-.914 2.64-2.406 2.64Zm0-.85c.873 0 1.37-.665 1.37-1.79v-.01c0-1.13-.497-1.792-1.37-1.792-.877 0-1.369.661-1.369 1.792v.01c0 1.13.492 1.79 1.369 1.79Zm5.474.85c-1.229 0-2.008-.577-2.106-1.43v-.005h1.018l.004.004c.127.385.498.643 1.103.643.628 0 1.064-.286 1.064-.704v-.01c0-.318-.239-.534-.83-.67l-.811-.188c-.962-.22-1.407-.656-1.407-1.402v-.005c0-.886.825-1.524 1.979-1.524 1.163 0 1.909.582 1.998 1.412v.005h-.971v-.01c-.098-.356-.459-.624-1.032-.624-.558 0-.961.277-.961.685v.01c0 .318.234.515.807.651l.806.183c.981.23 1.45.648 1.45 1.384v.01c0 .942-.901 1.585-2.111 1.585Zm5.211-.066c-1.121 0-1.581-.394-1.581-1.374v-2.95h-.797v-.802h.797v-1.286h1.037v1.285h1.093v.803h-1.093v2.706c0 .549.206.774.708.774.155 0 .244-.005.385-.019v.811a3.274 3.274 0 0 1-.549.052Z"/><path fill="#5D778D" fill-rule="evenodd" d="M326.262 17.606a4.403 4.403 0 1 0 0 8.805 4.403 4.403 0 0 0 0-8.805Zm-.438 2.91a.8.8 0 0 1 1.206.691c0 .188-.146.384-.422.568a2.468 2.468 0 0 1-.505.254.4.4 0 1 0 .253.76l.068-.025a3.216 3.216 0 0 0 .628-.322c.324-.217.778-.621.779-1.234a1.602 1.602 0 0 0-3.112-.533.401.401 0 0 0 .755.265.803.803 0 0 1 .35-.424Zm.438 3.093a.4.4 0 1 0 0 .8h.004a.4.4 0 0 0 0-.8h-.004Z" clip-rule="evenodd"/><rect width="12.007" height="4.803" x="276.645" y="41.811" fill="#5D778D" rx="1.801"/><path fill="#131D27" d="M296.374 44.888v-.615h1.065a6.321 6.321 0 0 1-.019-.505l-.006-.012c0-.185.012-.357.025-.53h-1.065v-.615h1.157c.449-2.1 2.185-3.165 4.561-3.165.456 0 .918.05 1.226.13v1.477a7.24 7.24 0 0 0-1.158-.092c-1.385 0-2.376.541-2.758 1.65h3.349v.615h-3.49c-.025.173-.031.351-.031.536v.012c0 .179.006.345.025.499h3.496v.615h-3.361c.369 1.133 1.367 1.675 2.77 1.675.382 0 .862-.031 1.158-.086v1.477c-.308.08-.77.13-1.226.13-2.388 0-4.124-1.078-4.567-3.196h-1.151Zm10.433 3.325v-7.178h-.037l-2.266 1.539v-1.65l2.296-1.595h1.847v8.884h-1.84Zm3.224 1.852.449-3.404h1.699l-.905 3.404h-1.243Zm3.366-1.852v-1.275l3.139-2.936c1.145-1.071 1.385-1.508 1.385-2.124v-.012c-.006-.727-.56-1.244-1.348-1.244-.911 0-1.527.597-1.551 1.398l-.006.055h-1.724v-.05c0-1.674 1.391-2.85 3.269-2.85 1.877 0 3.17 1.072 3.17 2.586v.012c0 1.078-.511 1.78-2.044 3.19l-1.859 1.698v.074h4.026v1.478h-6.457Zm11.621 0V46.58h-4.42V45.03l3.564-5.7h2.623v5.768h1.169v1.483h-1.169v1.632h-1.767Zm-2.801-3.066h2.838v-4.475h-.043l-2.795 4.426v.049Z"/><rect width="12.007" height="12.007" x="407.763" y="16.005" fill="#0188FF" rx="3.002"/><rect width="12.007" height="4.803" x="407.763" y="41.811" fill="#A6D5FF" rx="1.801"/><rect width="641.183" height="163.898" x="14.409" y="66.621" fill="#fff" rx="6.004"/><path stroke="#E2EAF1" stroke-linecap="round" stroke-width=".6" d="M42.709 71.124h612.582M42.709 95.138h612.582M42.709 119.153h612.582M42.709 143.167h612.582M42.709 167.181h612.582M42.709 191.195h612.582M42.709 215.21h612.582"/><path fill="#A5B7C7" d="M111.812 228.313v-4.264h-.06l-1.277.912v-.774l1.337-.95h.788v5.076h-.788Zm2.216-1.696v-.7h2.354v.7h-2.354Zm3.659 1.696 2.237-4.355v-.056h-2.659v-.665h3.457v.682l-2.209 4.394h-.826ZM264.12 228.408c-1.126 0-1.921-.605-1.921-1.467v-.007c0-.64.461-1.15 1.126-1.295v-.017c-.57-.162-.943-.588-.943-1.126v-.007c0-.777.729-1.347 1.738-1.347 1.013 0 1.738.57 1.738 1.347v.007c0 .538-.37.964-.939 1.126v.017c.664.145 1.125.655 1.125 1.295v.007c0 .862-.795 1.467-1.924 1.467Zm0-3.05c.57 0 .957-.331.957-.795v-.007c0-.464-.391-.788-.957-.788s-.957.324-.957.788v.007c0 .464.391.795.957.795Zm0 2.417c.651 0 1.112-.37 1.112-.883v-.007c0-.521-.458-.897-1.112-.897-.651 0-1.108.376-1.108.897v.007c0 .513.461.883 1.108.883Zm2.916-1.158v-.7h2.354v.7h-2.354Zm4.686 1.696v-4.264h-.06l-1.277.912v-.774l1.337-.95h.788v5.076h-.788Zm3.985.123c-.999 0-1.688-.623-1.758-1.446l-.004-.045h.739l.003.028c.067.446.472.802 1.028.802.626 0 1.062-.447 1.062-1.084v-.007c0-.626-.443-1.069-1.055-1.069-.31 0-.574.091-.774.274a1.02 1.02 0 0 0-.233.296h-.678l.253-2.948h2.951v.668h-2.332l-.155 1.618h.06c.215-.341.612-.538 1.08-.538.953 0 1.636.711 1.636 1.685v.007c0 1.041-.753 1.759-1.823 1.759ZM18.252 79.826c-1.664 0-2.812-1.037-2.93-2.408l-.005-.076h1.23l.006.047c.111.744.785 1.336 1.711 1.336 1.043 0 1.77-.744 1.77-1.805v-.012c0-1.043-.739-1.781-1.758-1.781-.516 0-.955.152-1.29.457a1.696 1.696 0 0 0-.386.492h-1.13l.421-4.91h4.916v1.113h-3.885l-.258 2.696h.1c.358-.569 1.02-.897 1.799-.897 1.588 0 2.725 1.184 2.725 2.807v.011c0 1.735-1.254 2.93-3.036 2.93Zm7.67 0c-1.95 0-3.123-1.705-3.123-4.43v-.011c0-2.725 1.172-4.424 3.123-4.424 1.946 0 3.123 1.7 3.123 4.424v.011c0 2.725-1.177 4.43-3.123 4.43Zm0-1.09c1.131 0 1.8-1.271 1.8-3.34v-.011c0-2.069-.669-3.328-1.8-3.328-1.136 0-1.799 1.26-1.799 3.328v.011c0 2.069.663 3.34 1.8 3.34Zm7.793 1.09c-1.95 0-3.123-1.705-3.123-4.43v-.011c0-2.725 1.172-4.424 3.123-4.424 1.946 0 3.123 1.7 3.123 4.424v.011c0 2.725-1.177 4.43-3.123 4.43Zm0-1.09c1.131 0 1.8-1.271 1.8-3.34v-.011c0-2.069-.669-3.328-1.8-3.328-1.137 0-1.799 1.26-1.799 3.328v.011c0 2.069.662 3.34 1.8 3.34ZM19.202 119.621v-1.682h-4.125v-1.113a115.383 115.383 0 0 1 3.521-5.66h1.87v5.66h1.165v1.113h-1.166v1.682h-1.265Zm-2.866-2.771h2.883v-4.577h-.076a96.765 96.765 0 0 0-2.807 4.495v.082Zm9.88 2.976c-1.952 0-3.124-1.705-3.124-4.429v-.012c0-2.725 1.172-4.424 3.123-4.424 1.946 0 3.123 1.699 3.123 4.424v.012c0 2.724-1.177 4.429-3.123 4.429Zm0-1.09c1.13 0 1.798-1.271 1.798-3.339v-.012c0-2.069-.668-3.328-1.799-3.328-1.137 0-1.799 1.259-1.799 3.328v.012c0 2.068.662 3.339 1.8 3.339Zm7.792 1.09c-1.951 0-3.123-1.705-3.123-4.429v-.012c0-2.725 1.172-4.424 3.123-4.424 1.945 0 3.123 1.699 3.123 4.424v.012c0 2.724-1.178 4.429-3.123 4.429Zm0-1.09c1.131 0 1.799-1.271 1.799-3.339v-.012c0-2.069-.668-3.328-1.799-3.328-1.137 0-1.799 1.259-1.799 3.328v.012c0 2.068.662 3.339 1.8 3.339ZM18.3 159.779c-1.806 0-2.983-.99-3.095-2.39l-.005-.071h1.253l.006.059c.082.768.791 1.307 1.84 1.307 1.032 0 1.729-.58 1.729-1.412v-.012c0-.955-.692-1.488-1.817-1.488h-1.03v-1.02h.99c.966 0 1.622-.568 1.622-1.354v-.011c0-.821-.55-1.301-1.505-1.301-.938 0-1.594.498-1.676 1.295l-.006.058h-1.23l.005-.064c.13-1.424 1.254-2.367 2.907-2.367 1.681 0 2.783.902 2.783 2.209v.012c0 1.048-.75 1.751-1.782 1.968v.03c1.243.111 2.075.861 2.075 2.045v.011c0 1.453-1.272 2.496-3.065 2.496Zm7.693.047c-1.952 0-3.123-1.705-3.123-4.429v-.012c0-2.725 1.171-4.424 3.123-4.424 1.945 0 3.123 1.699 3.123 4.424v.012c0 2.724-1.178 4.429-3.123 4.429Zm0-1.09c1.13 0 1.798-1.271 1.798-3.339v-.012c0-2.069-.668-3.328-1.798-3.328-1.137 0-1.8 1.259-1.8 3.328v.012c0 2.068.663 3.339 1.8 3.339Zm7.793 1.09c-1.952 0-3.123-1.705-3.123-4.429v-.012c0-2.725 1.171-4.424 3.123-4.424 1.945 0 3.123 1.699 3.123 4.424v.012c0 2.724-1.178 4.429-3.123 4.429Zm0-1.09c1.13 0 1.798-1.271 1.798-3.339v-.012c0-2.069-.668-3.328-1.798-3.328-1.137 0-1.8 1.259-1.8 3.328v.012c0 2.068.663 3.339 1.8 3.339ZM15.323 199.621v-.891l2.806-2.947c1.12-1.166 1.442-1.599 1.442-2.285v-.018c0-.826-.569-1.435-1.494-1.435-.95 0-1.583.621-1.583 1.547l-.005.017h-1.23l-.013-.011c.006-1.547 1.202-2.637 2.9-2.637 1.577 0 2.737 1.002 2.737 2.396v.018c0 .961-.445 1.699-1.98 3.223l-1.793 1.787v.117h3.908v1.119h-5.695Zm10.4.205c-1.951 0-3.123-1.705-3.123-4.429v-.012c0-2.725 1.172-4.424 3.123-4.424 1.945 0 3.123 1.699 3.123 4.424v.012c0 2.724-1.178 4.429-3.123 4.429Zm0-1.09c1.13 0 1.799-1.271 1.799-3.339v-.012c0-2.069-.668-3.328-1.799-3.328-1.137 0-1.799 1.259-1.799 3.328v.012c0 2.068.662 3.339 1.8 3.339Zm7.793 1.09c-1.951 0-3.123-1.705-3.123-4.429v-.012c0-2.725 1.172-4.424 3.123-4.424 1.945 0 3.123 1.699 3.123 4.424v.012c0 2.724-1.178 4.429-3.123 4.429Zm0-1.09c1.13 0 1.799-1.271 1.799-3.339v-.012c0-2.069-.668-3.328-1.799-3.328-1.137 0-1.799 1.259-1.799 3.328v.012c0 2.068.662 3.339 1.799 3.339ZM17.391 239.621v-7.101h-.1l-2.127 1.517v-1.289l2.227-1.582h1.313v8.455H17.39Zm6.691.205c-1.95 0-3.123-1.705-3.123-4.429v-.012c0-2.725 1.172-4.424 3.123-4.424 1.946 0 3.123 1.699 3.123 4.424v.012c0 2.724-1.177 4.429-3.123 4.429Zm0-1.09c1.131 0 1.8-1.271 1.8-3.339v-.012c0-2.069-.669-3.328-1.8-3.328-1.136 0-1.798 1.259-1.798 3.328v.012c0 2.068.662 3.339 1.798 3.339Zm7.793 1.09c-1.95 0-3.123-1.705-3.123-4.429v-.012c0-2.725 1.172-4.424 3.123-4.424 1.946 0 3.123 1.699 3.123 4.424v.012c0 2.724-1.177 4.429-3.123 4.429Zm0-1.09c1.131 0 1.8-1.271 1.8-3.339v-.012c0-2.069-.669-3.328-1.8-3.328-1.136 0-1.798 1.259-1.798 3.328v.012c0 2.068.662 3.339 1.798 3.339Z"/><g stroke-width=".841" clip-path="url(#c)"><path stroke="#6464C6" d="m41.409 136.822 29.786-21.377 19.224-11.564a1.802 1.802 0 0 1 1.867.007l18.926 11.557 40.016 1.819 19.858-2.425 19.858 25.163 20.159-18.493 19.858-7.883 20.158-4.85 19.239-9.4a1.802 1.802 0 0 1 1.282-.114l59.212 16.79 19.857 4.547 19.257-29.407 40.016 2.425 19.428-6.72a1.802 1.802 0 0 1 1.418.104L450.6 97.255l19.557 12.127 40.318-9.095 19.858 3.032 19.858-12.127 18.865-17.281a1.801 1.801 0 0 1 2.145-.216l19.006 11.434 19.858 11.52 19.695 1.804c.108.01.217.01.326 0l19.995-1.804 9.328-1.532"/><path stroke="#37A2FF" d="m41.5 147.502 29.567-14.11c.086-.04.175-.075.266-.101l19.215-5.674c.33-.097.682-.098 1.013-.002l19.651 5.716 40.017 1.759 14.743 7.036 21.964 5.277 23.167-8.209 20.761 2.932 39.114-8.795 34.565 5.807c.222.037.45.032.67-.014l24.639-5.207 19.858 4.398h46.335l16.849-8.209 25.496 11.707c.435.2.933.218 1.382.051l21.262-7.947 22.867 8.209 29.185-8.209 23.769-3.811 24.07 3.225h22.265l22.867-3.225 19.256-4.104 23.095 3.988a1.8 1.8 0 0 0 1.255-.244l6.038-3.744 2.708 1.466"/><path stroke="#9F9FE6" d="m659.409 145.002-20.884 4.34c-.49.102-1.006.316-1.379.649-1.957 1.75-7.935 7.573-8.093 7.526l-19.046-5.758c-.339-.102-6.796-.101-7.136 0l-13.532 5.843-39.998 1.8-14.735 7.2-21.954 5.4-23.156-8.4-20.75 3-39.095-9-34.539 5.941a1.816 1.816 0 0 1-.689-.015l-24.617-5.326-19.848 4.5h-46.313l-16.841-8.4-25.467 11.973a1.807 1.807 0 0 1-1.415.052l-21.235-8.125-22.855 8.4-29.171-8.4-23.758-3.9-24.058 3.3h-22.124c-.086 0-.173-.006-.258-.019l-22.727-3.281-19.247-4.2-23.067 4.078a1.81 1.81 0 0 1-1.283-.254l-6.024-2.824-2.706 1.5"/><path stroke="#5D778D" d="M42.432 190.448h24.085c.152 0 .304-.019.452-.057l24.187-6.269c.33-.085.678-.075 1.002.029l19.615 6.297 28.217-3.155 30.619-3.302 30.318 3.302 20.412-3.302h77.581c.11 0 .22-.01.328-.03l16.047-2.971h21.012l25.516-3.002 39.924 2.401 19.385-6.655a1.804 1.804 0 0 1 1.409.102l19.73 10.155 28.817-3.602h32.419l19.812 3.002 19.812-12.007 19.766 4.146c.229.048.464.051.693.009l22.767-4.155 23.714 1.517 19.65 1.786c.108.01.216.01.324 0l19.95-1.786 9.305-1.517"/><path stroke="#A6D5FF" d="M42.432 208.459h24.085c.152 0 .304-.019.452-.057l24.187-6.269a1.79 1.79 0 0 1 1.002.029l19.615 6.297 28.217-3.155 30.619-3.302 30.318 3.302 20.412-3.302h77.581c.11 0 .22-.01.328-.03L315.295 199h21.012l25.516-3.002 39.924 2.402 19.385-6.655a1.804 1.804 0 0 1 1.409.102l19.73 10.155 28.817-3.602h32.419l19.812 3.001 19.812-12.007 19.766 4.146c.229.048.464.051.693.01l22.767-4.156 23.714 1.517 19.65 1.787c.108.01.216.01.324 0l19.95-1.787 9.305-1.517"/></g></g><g clip-path="url(#d)"><rect width="213.728" height="230.129" y="259.336" fill="#fff" rx="7.204"/><path fill="#5D778D" d="m14.737 283.745 2.444-6.768h1.135l2.443 6.768h-1.107l-.61-1.829h-2.588l-.615 1.829h-1.102Zm2.969-5.582-.971 2.908h2.026l-.975-2.908h-.08Zm5.985 7.378c-1.295 0-2.092-.567-2.214-1.416l.01-.01h1.026l.005.01c.085.351.497.6 1.187.6.84 0 1.337-.394 1.337-1.088v-1.004h-.076c-.31.554-.872.863-1.57.863-1.31 0-2.116-1.008-2.116-2.443v-.01c0-1.454.811-2.481 2.134-2.481.713 0 1.266.352 1.562.924h.06v-.835h1.014v4.991c0 1.158-.915 1.899-2.36 1.899Zm-.014-2.884c.863 0 1.383-.657 1.383-1.609v-.01c0-.947-.525-1.613-1.383-1.613-.868 0-1.356.666-1.356 1.613v.01c0 .947.488 1.609 1.356 1.609Zm5.975 1.186c-1.491 0-2.392-1.018-2.392-2.631v-.005c0-1.59.92-2.654 2.34-2.654 1.422 0 2.294 1.027 2.294 2.556v.356h-3.611c.018.976.553 1.543 1.392 1.543.652 0 1.042-.323 1.164-.586l.019-.037.98-.005-.01.042c-.168.671-.872 1.421-2.176 1.421Zm-.047-4.456c-.694 0-1.22.474-1.308 1.351h2.589c-.08-.91-.591-1.351-1.28-1.351Zm9.095 4.522c-1.919 0-3.129-1.37-3.129-3.546v-.009c0-2.148 1.224-3.541 3.12-3.541 1.538 0 2.63.872 2.874 2.181l.01.046h-1.05l-.015-.046c-.244-.803-.891-1.253-1.82-1.253-1.252 0-2.045 1.013-2.045 2.608v.009c0 1.619.798 2.622 2.069 2.622 1.107 0 1.862-.699 1.871-1.74v-.15h-1.74v-.849h2.777v.84c0 1.716-1.15 2.828-2.922 2.828Zm4.254-.164v-5.094h1.018v.769h.075c.183-.539.656-.858 1.336-.858.164 0 .343.023.446.047v.938a2.625 2.625 0 0 0-.549-.061c-.778 0-1.308.478-1.308 1.215v3.044h-1.018Zm5.872.098c-1.496 0-2.41-.999-2.41-2.64v-.01c0-1.637.919-2.64 2.41-2.64 1.487 0 2.406.999 2.406 2.64v.01c0 1.641-.914 2.64-2.406 2.64Zm0-.849c.872 0 1.37-.666 1.37-1.791v-.01c0-1.13-.498-1.791-1.37-1.791-.877 0-1.37.661-1.37 1.791v.01c0 1.13.493 1.791 1.37 1.791Zm5.319.849c-1.15 0-1.745-.689-1.745-1.895v-3.297h1.018v3.058c0 .844.31 1.262 1.055 1.262.816 0 1.252-.511 1.252-1.332v-2.988h1.014v5.094h-1.014v-.769h-.08c-.243.548-.76.867-1.5.867Zm4.062 1.6v-6.792h1.017v.802h.076c.295-.558.853-.891 1.566-.891 1.285 0 2.11 1.027 2.11 2.631v.01c0 1.613-.816 2.626-2.11 2.626-.699 0-1.294-.342-1.566-.891h-.076v2.505h-1.017Zm2.373-2.481c.849 0 1.36-.667 1.36-1.759v-.01c0-1.097-.511-1.759-1.36-1.759-.849 0-1.374.671-1.374 1.759v.01c0 1.088.525 1.759 1.374 1.759Zm5.474.881c-1.23 0-2.008-.577-2.107-1.43v-.005h1.018l.005.005c.127.384.497.642 1.102.642.629 0 1.065-.286 1.065-.703v-.01c0-.319-.24-.534-.83-.67l-.812-.188c-.961-.22-1.407-.657-1.407-1.402v-.005c0-.887.826-1.524 1.98-1.524 1.163 0 1.909.581 1.998 1.411v.005h-.971v-.009c-.099-.357-.46-.624-1.032-.624-.558 0-.962.277-.962.685v.009c0 .319.235.516.807.652l.807.183c.98.23 1.45.647 1.45 1.384v.009c0 .943-.901 1.585-2.112 1.585Z"/><path fill="#5D778D" fill-rule="evenodd" d="M76.613 276.342a4.403 4.403 0 1 0 0 8.805 4.403 4.403 0 0 0 0-8.805Zm-.438 2.91a.804.804 0 0 1 1.018.175.803.803 0 0 1 .188.517c0 .188-.146.384-.422.568a2.41 2.41 0 0 1-.505.253.401.401 0 0 0 .253.76l.068-.025a3.225 3.225 0 0 0 .628-.322c.325-.216.779-.621.779-1.233a1.596 1.596 0 0 0-1.33-1.58 1.603 1.603 0 0 0-1.781 1.046.401.401 0 0 0 .755.266.803.803 0 0 1 .35-.425Zm.438 3.094a.4.4 0 1 0 0 .8h.004a.4.4 0 1 0 0-.8h-.004Z" clip-rule="evenodd"/><rect width="184.91" height="168.1" x="14.409" y="306.956" fill="#fff" rx="6.004"/><g clip-path="url(#e)"><path stroke="#E2EAF1" stroke-width=".6" d="M45.627 306.956v153.092"/></g><g clip-path="url(#f)"><path stroke="#E2EAF1" stroke-width=".6" d="M66.21 306.956v153.092"/></g><g clip-path="url(#g)"><path stroke="#E2EAF1" stroke-width=".6" d="M86.795 306.956v153.092"/></g><g clip-path="url(#h)"><path stroke="#E2EAF1" stroke-width=".6" d="M107.378 306.956v153.092"/></g><g clip-path="url(#i)"><path stroke="#E2EAF1" stroke-width=".6" d="M127.962 306.956v153.092"/></g><g clip-path="url(#j)"><path stroke="#E2EAF1" stroke-width=".6" d="M148.546 306.956v153.092"/></g><g clip-path="url(#k)"><path stroke="#E2EAF1" stroke-width=".6" d="M169.129 306.956v153.092"/></g><g clip-path="url(#l)"><path stroke="#E2EAF1" stroke-width=".6" d="M189.713 306.956v153.092"/></g><path fill="#A5B7C7" d="M16.832 315.079c-1.02 0-1.977-.717-1.977-2.585v-.007c0-1.717.75-2.73 2.005-2.73.898 0 1.566.528 1.735 1.295l.007.042h-.781l-.014-.035c-.141-.387-.472-.634-.95-.634-.855 0-1.21.834-1.249 1.847-.003.039-.003.078-.003.116h.066c.187-.408.644-.77 1.337-.77.968 0 1.66.718 1.66 1.688v.007c0 1.021-.77 1.766-1.836 1.766Zm-1.073-1.766c0 .62.468 1.105 1.066 1.105.595 0 1.066-.475 1.066-1.083v-.007c0-.623-.443-1.073-1.059-1.073-.608 0-1.073.443-1.073 1.055v.003Zm5.671 1.766c-1 0-1.689-.622-1.759-1.445l-.003-.046h.738l.004.028c.067.447.471.802 1.027.802.626 0 1.062-.447 1.062-1.083v-.007c0-.627-.443-1.07-1.055-1.07-.31 0-.573.092-.774.275-.091.08-.172.179-.232.295h-.679l.253-2.948h2.952v.669h-2.332l-.155 1.618h.06c.214-.342.612-.538 1.08-.538.953 0 1.635.71 1.635 1.684v.008c0 1.041-.753 1.758-1.822 1.758Zm2.684-1.818v-.7h1.555v-1.562h.696v1.562h1.559v.7h-1.559v1.562h-.696v-1.562h-1.555ZM16.716 339.094c-.999 0-1.688-.623-1.759-1.446l-.003-.046h.739l.003.028c.067.447.471.802 1.027.802.626 0 1.063-.446 1.063-1.083v-.007c0-.626-.444-1.069-1.056-1.069-.31 0-.573.091-.774.274a1.018 1.018 0 0 0-.232.295h-.679l.254-2.947h2.95v.668h-2.331l-.155 1.618h.06c.214-.341.612-.538 1.08-.538.953 0 1.635.71 1.635 1.685v.007c0 1.041-.753 1.759-1.822 1.759Zm4.573 0c-.999 0-1.688-.623-1.759-1.446l-.003-.046h.738l.004.028c.067.447.471.802 1.027.802.626 0 1.063-.446 1.063-1.083v-.007c0-.626-.444-1.069-1.056-1.069-.31 0-.573.091-.774.274a1.018 1.018 0 0 0-.232.295h-.679l.254-2.947h2.95v.668h-2.331l-.155 1.618h.06c.214-.341.612-.538 1.08-.538.953 0 1.635.71 1.635 1.685v.007c0 1.041-.752 1.759-1.822 1.759Zm2.804-1.819v-.7h2.353v.7h-2.353Zm5.319 1.819c-1.02 0-1.977-.718-1.977-2.586v-.007c0-1.716.749-2.73 2.005-2.73.897 0 1.565.528 1.734 1.295l.007.042h-.78l-.015-.035c-.14-.387-.471-.633-.95-.633-.855 0-1.21.834-1.249 1.847-.003.038-.003.077-.003.116h.067c.186-.408.643-.771 1.336-.771.968 0 1.66.718 1.66 1.689v.007c0 1.02-.77 1.766-1.835 1.766Zm-1.073-1.766c0 .619.468 1.104 1.066 1.104.594 0 1.065-.474 1.065-1.083v-.007c0-.623-.443-1.073-1.058-1.073-.609 0-1.073.443-1.073 1.055v.004Zm5.67 1.766c-.999 0-1.688-.623-1.759-1.446l-.003-.046h.739l.003.028c.067.447.472.802 1.027.802.627 0 1.063-.446 1.063-1.083v-.007c0-.626-.444-1.069-1.056-1.069-.31 0-.573.091-.774.274a1.019 1.019 0 0 0-.232.295h-.679l.254-2.947h2.951v.668h-2.332l-.155 1.618h.06c.214-.341.612-.538 1.08-.538.953 0 1.636.71 1.636 1.685v.007c0 1.041-.753 1.759-1.823 1.759ZM17.286 362.985v-1.01h-2.477v-.668a69.323 69.323 0 0 1 2.115-3.398h1.122v3.398h.7v.668h-.7v1.01h-.76Zm-1.72-1.664h1.73v-2.747h-.045a57.767 57.767 0 0 0-1.685 2.698v.049Zm6.015 1.787c-1.02 0-1.977-.718-1.977-2.585v-.007c0-1.717.75-2.73 2.005-2.73.897 0 1.566.527 1.734 1.294l.008.042h-.781l-.014-.035c-.141-.387-.472-.633-.95-.633-.855 0-1.21.834-1.249 1.847-.003.039-.003.077-.003.116h.066c.187-.408.644-.77 1.337-.77.967 0 1.66.717 1.66 1.688v.007c0 1.02-.77 1.766-1.836 1.766Zm-1.073-1.766c0 .619.468 1.105 1.066 1.105.595 0 1.066-.475 1.066-1.084v-.007c0-.622-.443-1.073-1.059-1.073-.608 0-1.073.444-1.073 1.056v.003Zm3.901-.053v-.7h2.354v.7h-2.354Zm5.203 1.819c-.999 0-1.688-.623-1.759-1.446l-.003-.045h.738l.004.028c.067.446.471.802 1.027.802.626 0 1.063-.447 1.063-1.084v-.007c0-.626-.444-1.069-1.056-1.069-.31 0-.573.091-.774.274-.091.081-.172.18-.232.296h-.679l.254-2.948h2.95v.668h-2.331l-.155 1.618h.06c.214-.341.612-.538 1.08-.538.953 0 1.635.711 1.635 1.685v.007c0 1.041-.753 1.759-1.822 1.759Zm4.573 0c-.999 0-1.688-.623-1.759-1.446l-.003-.045h.738l.004.028c.067.446.471.802 1.027.802.626 0 1.063-.447 1.063-1.084v-.007c0-.626-.444-1.069-1.056-1.069-.31 0-.573.091-.774.274-.091.081-.172.18-.232.296h-.679l.253-2.948h2.952v.668h-2.332l-.155 1.618h.06c.214-.341.612-.538 1.08-.538.953 0 1.635.711 1.635 1.685v.007c0 1.041-.752 1.759-1.822 1.759Z"/><g clip-path="url(#m)"><path fill="url(#n)" d="M45.627 307.857h2.402a2.401 2.401 0 0 1 2.401 2.401v3.002a2.401 2.401 0 0 1-2.401 2.401h-2.402v-7.804Z"/><path fill="#778EA1" d="M53.38 314.759v-.535l1.685-1.769c.672-.7.866-.96.866-1.372v-.01c0-.496-.342-.862-.898-.862-.57 0-.95.373-.95.928l-.003.011h-.738l-.008-.007c.004-.929.722-1.583 1.742-1.583.946 0 1.642.601 1.642 1.439v.01c0 .577-.267 1.02-1.189 1.935l-1.076 1.073v.07H56.8v.672H53.38Zm6.69 0v-1.009h-2.476v-.669a69.246 69.246 0 0 1 2.115-3.398h1.122v3.398h.7v.669h-.7v1.009h-.76Zm-1.72-1.664h1.731v-2.747h-.045a58.126 58.126 0 0 0-1.685 2.698v.049Zm5.928 1.759c-1.083 0-1.79-.594-1.857-1.435l-.004-.042h.753l.004.035c.049.461.474.784 1.104.784.62 0 1.038-.348 1.038-.847v-.008c0-.573-.415-.893-1.09-.893h-.62v-.612h.595c.58 0 .974-.341.974-.813v-.007c0-.492-.33-.781-.904-.781-.563 0-.957.299-1.006.778l-.004.035h-.738l.003-.039c.078-.855.753-1.421 1.745-1.421 1.01 0 1.671.542 1.671 1.326v.007c0 .63-.45 1.052-1.07 1.182v.018c.746.067 1.246.517 1.246 1.228v.007c0 .872-.763 1.498-1.84 1.498Z"/><path fill="url(#o)" d="M45.627 331.871h32.42a2.401 2.401 0 0 1 2.401 2.402v3.001a2.401 2.401 0 0 1-2.401 2.402h-32.42v-7.805Z"/><path fill="#778EA1" d="M83.398 338.773v-.534l1.685-1.77c.672-.7.865-.96.865-1.372v-.01c0-.496-.34-.862-.896-.862-.57 0-.95.373-.95.929l-.004.01h-.739l-.007-.007c.004-.928.722-1.583 1.742-1.583.946 0 1.643.602 1.643 1.439v.011c0 .577-.268 1.02-1.19 1.934l-1.076 1.073v.071h2.346v.671h-3.419Zm6.69 0v-1.009h-2.476v-.668a69.36 69.36 0 0 1 2.115-3.399h1.122v3.399h.7v.668h-.7v1.009h-.76Zm-1.72-1.663H90.1v-2.748h-.045a58.126 58.126 0 0 0-1.685 2.698v.05Zm5.928 1.758c-1.083 0-1.79-.594-1.857-1.435l-.004-.042h.753l.004.035c.049.461.474.785 1.104.785.62 0 1.038-.349 1.038-.848v-.007c0-.574-.415-.894-1.09-.894h-.62v-.612h.595c.58 0 .974-.341.974-.812v-.007c0-.493-.33-.781-.904-.781-.563 0-.957.299-1.006.777l-.004.035h-.738l.003-.038c.078-.855.753-1.422 1.745-1.422 1.01 0 1.671.542 1.671 1.327v.007c0 .629-.45 1.051-1.07 1.182v.017c.746.067 1.246.517 1.246 1.228v.007c0 .872-.763 1.498-1.84 1.498Z"/><path fill="url(#p)" d="M45.627 355.886h56.434a2.401 2.401 0 0 1 2.401 2.401v3.002a2.401 2.401 0 0 1-2.401 2.401H45.627v-7.804Z"/><path fill="#778EA1" d="M107.412 362.788v-.535l1.685-1.769c.672-.7.866-.961.866-1.372v-.011c0-.496-.341-.862-.897-.862-.57 0-.95.373-.95.929l-.003.011h-.739l-.007-.007c.003-.929.721-1.583 1.741-1.583.946 0 1.643.601 1.643 1.438v.011c0 .577-.268 1.02-1.189 1.935l-1.077 1.073v.07h2.347v.672h-3.42Zm6.691 0v-1.01h-2.476v-.668a69.018 69.018 0 0 1 2.114-3.398h1.122v3.398h.7v.668h-.7v1.01h-.76Zm-1.72-1.664h1.731v-2.747h-.046a58.19 58.19 0 0 0-1.685 2.698v.049Zm5.927 1.759c-1.083 0-1.79-.595-1.857-1.435l-.003-.043h.752l.004.036c.049.46.475.784 1.104.784.62 0 1.038-.348 1.038-.848v-.007c0-.573-.415-.893-1.09-.893h-.619v-.612h.594c.58 0 .974-.342.974-.813v-.007c0-.493-.33-.781-.904-.781-.562 0-.956.299-1.006.777l-.003.036h-.739l.004-.039c.077-.855.752-1.421 1.744-1.421 1.01 0 1.671.541 1.671 1.326v.007c0 .63-.45 1.052-1.069 1.182v.018c.746.066 1.245.517 1.245 1.227v.007c0 .873-.763 1.499-1.84 1.499Z"/></g></g><rect width="213.728" height="230.129" x="228.136" y="259.336" fill="#fff" rx="7.204"/><path fill="#5D778D" d="m242.873 283.745 2.444-6.768h1.135l2.444 6.768h-1.107l-.61-1.829h-2.589l-.615 1.829h-1.102Zm2.969-5.582-.971 2.908h2.026l-.975-2.908h-.08Zm5.558 5.68c-1.149 0-1.745-.689-1.745-1.895v-3.297h1.018v3.058c0 .844.31 1.262 1.055 1.262.817 0 1.253-.511 1.253-1.332v-2.988h1.013v5.094h-1.013v-.769h-.08c-.244.548-.76.867-1.501.867Zm5.919-.014c-1.28 0-2.11-1.027-2.11-2.626v-.01c0-1.613.816-2.631 2.11-2.631.699 0 1.295.347 1.567.896h.08v-2.805h1.013v7.092h-1.013v-.802h-.08c-.296.558-.854.886-1.567.886Zm.291-.867c.849 0 1.37-.671 1.37-1.759v-.01c0-1.088-.526-1.759-1.37-1.759-.854 0-1.365.666-1.365 1.759v.01c0 1.092.511 1.759 1.365 1.759Zm4.414-5.221a.637.637 0 0 1-.638-.633.638.638 0 0 1 1.276 0 .64.64 0 0 1-.638.633Zm-.512 6.004v-5.094h1.014v5.094h-1.014Zm4.634.098c-1.491 0-2.392-1.018-2.392-2.631v-.005c0-1.59.92-2.654 2.341-2.654 1.421 0 2.293 1.027 2.293 2.556v.356h-3.611c.019.976.553 1.543 1.393 1.543.652 0 1.041-.323 1.163-.586l.019-.037.98-.005-.009.042c-.169.671-.873 1.421-2.177 1.421Zm-.046-4.456c-.695 0-1.22.474-1.309 1.351h2.589c-.08-.91-.591-1.351-1.28-1.351Zm3.499 4.358v-5.094h1.017v.774h.075c.249-.544.737-.872 1.478-.872 1.14 0 1.768.68 1.768 1.895v3.297h-1.013v-3.058c0-.845-.352-1.262-1.098-1.262-.745 0-1.21.511-1.21 1.332v2.988h-1.017Zm7.903.098c-1.487 0-2.397-1.013-2.397-2.659v-.01c0-1.613.905-2.621 2.392-2.621 1.28 0 2.045.722 2.186 1.712v.023l-.976.005-.005-.014c-.112-.502-.525-.877-1.2-.877-.849 0-1.361.675-1.361 1.772v.01c0 1.126.521 1.81 1.361 1.81.638 0 1.032-.29 1.196-.839l.009-.024h.976l-.01.043c-.183.989-.91 1.669-2.171 1.669Zm5.473 0c-1.491 0-2.392-1.018-2.392-2.631v-.005c0-1.59.919-2.654 2.341-2.654 1.421 0 2.293 1.027 2.293 2.556v.356h-3.611c.018.976.553 1.543 1.393 1.543.652 0 1.041-.323 1.163-.586l.019-.037.98-.005-.009.042c-.169.671-.873 1.421-2.177 1.421Zm-.047-4.456c-.694 0-1.219.474-1.308 1.351h2.589c-.08-.91-.591-1.351-1.281-1.351Zm9.095 4.522c-1.918 0-3.129-1.37-3.129-3.546v-.009c0-2.148 1.225-3.541 3.119-3.541 1.539 0 2.632.872 2.876 2.181l.009.046h-1.051l-.014-.046c-.244-.803-.891-1.253-1.82-1.253-1.252 0-2.045 1.013-2.045 2.608v.009c0 1.619.798 2.622 2.069 2.622 1.107 0 1.862-.699 1.871-1.74v-.15h-1.74v-.849h2.777v.84c0 1.716-1.149 2.828-2.922 2.828Zm6.393-.066c-1.492 0-2.392-1.018-2.392-2.631v-.005c0-1.59.919-2.654 2.34-2.654 1.421 0 2.294 1.027 2.294 2.556v.356h-3.612c.019.976.554 1.543 1.393 1.543.652 0 1.041-.323 1.163-.586l.019-.037.98-.005-.009.042c-.169.671-.872 1.421-2.176 1.421Zm-.047-4.456c-.694 0-1.22.474-1.309 1.351h2.589c-.079-.91-.591-1.351-1.28-1.351Zm3.499 4.358v-5.094h1.018v.774h.075c.248-.544.736-.872 1.477-.872 1.14 0 1.768.68 1.768 1.895v3.297h-1.013v-3.058c0-.845-.352-1.262-1.097-1.262-.746 0-1.21.511-1.21 1.332v2.988h-1.018Zm7.617.084c-1.281 0-2.111-1.027-2.111-2.626v-.01c0-1.613.816-2.631 2.111-2.631.699 0 1.294.347 1.566.896h.08v-2.805h1.013v7.092h-1.013v-.802h-.08c-.295.558-.853.886-1.566.886Zm.291-.867c.849 0 1.369-.671 1.369-1.759v-.01c0-1.088-.525-1.759-1.369-1.759-.854 0-1.365.666-1.365 1.759v.01c0 1.092.511 1.759 1.365 1.759Zm6.022.881c-1.492 0-2.392-1.018-2.392-2.631v-.005c0-1.59.919-2.654 2.34-2.654 1.422 0 2.294 1.027 2.294 2.556v.356h-3.612c.019.976.554 1.543 1.393 1.543.652 0 1.042-.323 1.164-.586l.018-.037.981-.005-.01.042c-.169.671-.872 1.421-2.176 1.421Zm-.047-4.456c-.694 0-1.219.474-1.309 1.351h2.59c-.08-.91-.591-1.351-1.281-1.351Zm3.499 4.358v-5.094h1.018v.769h.075c.183-.539.657-.858 1.337-.858.164 0 .342.023.445.047v.938a2.624 2.624 0 0 0-.549-.061c-.778 0-1.308.478-1.308 1.215v3.044h-1.018Zm5.596.098c-1.229 0-2.008-.577-2.106-1.43v-.005h1.017l.005.005c.127.384.497.642 1.102.642.629 0 1.065-.286 1.065-.703v-.01c0-.319-.239-.534-.83-.67l-.812-.188c-.961-.22-1.407-.657-1.407-1.402v-.005c0-.887.826-1.524 1.98-1.524 1.163 0 1.909.581 1.998 1.411v.005h-.971v-.009c-.099-.357-.46-.624-1.032-.624-.558 0-.962.277-.962.685v.009c0 .319.235.516.807.652l.807.183c.98.23 1.449.647 1.449 1.384v.009c0 .943-.9 1.585-2.11 1.585Z"/><path fill="#5D778D" fill-rule="evenodd" d="M334.749 276.342a4.402 4.402 0 1 0 0 8.805 4.402 4.402 0 0 0 0-8.805Zm-.437 2.91a.802.802 0 0 1 1.206.692c0 .188-.146.384-.422.568a2.414 2.414 0 0 1-.506.253.401.401 0 0 0 .254.76l.067-.025a3.233 3.233 0 0 0 .629-.322c.324-.216.778-.621.778-1.233a1.6 1.6 0 0 0-2.412-1.383 1.603 1.603 0 0 0-.699.849.401.401 0 0 0 .755.266.806.806 0 0 1 .35-.425Zm.437 3.094a.4.4 0 1 0 0 .8h.004a.4.4 0 1 0 0-.8h-.004Z" clip-rule="evenodd"/><rect width="12.007" height="3.602" x="242.545" y="300.549" fill="url(#q)" rx="1.201"/><path fill="#778EA1" d="M260.044 305.351v-5.076h.908l1.618 4.048h.056l1.619-4.048h.907v5.076h-.717v-3.726h-.053l-1.492 3.726h-.584l-1.488-3.726h-.056v3.726h-.718Zm7.898.073c-1.119 0-1.794-.763-1.794-1.973v-.003c0-1.193.689-1.992 1.755-1.992 1.066 0 1.72.771 1.72 1.918v.267h-2.708c.014.732.415 1.157 1.044 1.157.489 0 .781-.242.873-.439l.014-.029.735-.003-.007.032c-.127.503-.654 1.065-1.632 1.065Zm-.035-3.341c-.521 0-.915.355-.982 1.013h1.942c-.06-.683-.443-1.013-.96-1.013Zm2.624 3.268v-3.821h.763v.581h.056c.187-.408.553-.655 1.109-.655.854 0 1.326.511 1.326 1.422v2.473h-.76v-2.294c0-.633-.264-.946-.823-.946-.56 0-.908.383-.908.999v2.241h-.763Z"/><rect width="12.007" height="3.602" x="286.362" y="300.549" fill="url(#r)" rx="1.201"/><path fill="#778EA1" d="m304.863 305.351-1.369-5.076h.82l.932 3.946h.049l1.059-3.946h.732l1.066 3.946h.049l.929-3.946h.819l-1.372 5.076h-.742l-1.09-3.796h-.05l-1.087 3.796h-.745Zm7.19.073c-1.122 0-1.808-.749-1.808-1.98v-.007c0-1.228.689-1.981 1.808-1.981 1.115 0 1.804.75 1.804 1.981v.007c0 1.231-.686 1.98-1.804 1.98Zm0-.636c.654 0 1.027-.5 1.027-1.344v-.007c0-.848-.373-1.344-1.027-1.344-.658 0-1.027.496-1.027 1.344v.007c0 .848.369 1.344 1.027 1.344Zm2.715.563v-3.821h.764v.588h.056c.169-.419.542-.662 1.041-.662.521 0 .89.271 1.059.683h.06c.193-.412.633-.683 1.164-.683.771 0 1.221.465 1.221 1.26v2.635h-.76v-2.452c0-.528-.239-.788-.739-.788-.485 0-.805.362-.805.823v2.417h-.76v-2.53c0-.436-.285-.71-.735-.71-.461 0-.802.394-.802.893v2.347h-.764Zm8.035.073c-1.119 0-1.794-.763-1.794-1.973v-.003c0-1.193.689-1.992 1.755-1.992 1.066 0 1.72.771 1.72 1.918v.267h-2.708c.014.732.415 1.157 1.045 1.157.489 0 .78-.242.872-.439l.014-.029.735-.003-.007.032c-.126.503-.654 1.065-1.632 1.065Zm-.035-3.341c-.521 0-.915.355-.982 1.013h1.942c-.06-.683-.443-1.013-.96-1.013Zm2.624 3.268v-3.821h.763v.581h.057c.186-.408.552-.655 1.108-.655.855 0 1.326.511 1.326 1.422v2.473h-.76v-2.294c0-.633-.264-.946-.823-.946-.559 0-.908.383-.908.999v2.241h-.763Z"/><rect width="12.007" height="3.602" x="341.179" y="300.549" fill="url(#s)" rx="1.201"/><path fill="#778EA1" d="M360.999 305.474c-1.274 0-2.058-.757-2.058-1.872v-3.327h.788v3.268c0 .735.461 1.234 1.27 1.234.809 0 1.266-.499 1.266-1.234v-3.268h.788v3.327c0 1.115-.777 1.872-2.054 1.872Zm3.236-.123v-3.821h.763v.581h.057c.186-.408.552-.655 1.108-.655.855 0 1.326.511 1.326 1.422v2.473h-.76v-2.294c0-.633-.264-.946-.823-.946-.559 0-.908.383-.908.999v2.241h-.763Zm4.355 0v-5.319h.763v3.109h.057l1.516-1.611h.893l-1.593 1.611 1.699 2.21h-.929l-1.315-1.717-.328.327v1.39h-.763Zm4.031 0v-3.821h.764v.581h.056c.186-.408.552-.655 1.108-.655.855 0 1.326.511 1.326 1.422v2.473h-.76v-2.294c0-.633-.263-.946-.823-.946-.559 0-.907.383-.907.999v2.241h-.764Zm5.938.073c-1.122 0-1.808-.749-1.808-1.98v-.007c0-1.228.69-1.981 1.808-1.981 1.115 0 1.805.75 1.805 1.981v.007c0 1.231-.686 1.98-1.805 1.98Zm0-.636c.655 0 1.028-.5 1.028-1.344v-.007c0-.848-.373-1.344-1.028-1.344-.657 0-1.027.496-1.027 1.344v.007c0 .848.37 1.344 1.027 1.344Zm3.303.563-1.055-3.821h.767l.686 2.948h.056l.788-2.948h.725l.788 2.948h.06l.682-2.948h.756l-1.051 3.821h-.785l-.791-2.85h-.06l-.788 2.85h-.778Zm5.034 0v-3.821h.764v.581h.056c.186-.408.552-.655 1.108-.655.855 0 1.326.511 1.326 1.422v2.473h-.76v-2.294c0-.633-.263-.946-.823-.946-.559 0-.907.383-.907.999v2.241h-.764Z"/><path fill="#fff" d="M242.545 326.562h184.91v148.495h-184.91z"/><circle cx="308.283" cy="396.504" r="44.126" fill="url(#t)" stroke="#fff" stroke-width="1.201"/><circle cx="374.023" cy="390.2" r="31.819" fill="url(#u)" stroke="#fff" stroke-width="1.201"/><path fill="url(#v)" d="M0 1.002h768v366H0z"/></g><defs><clipPath id="c"><path fill="#fff" d="M42.409 67.002h617v149h-617z"/></clipPath><clipPath id="m"><path fill="#fff" d="M45.627 306.956h150.69v153.091H45.627z"/></clipPath><clipPath id="l"><path fill="#fff" d="M180.107 306.956h19.212v153.091h-19.212z"/></clipPath><clipPath id="k"><path fill="#fff" d="M159.524 306.956h19.212v153.091h-19.212z"/></clipPath><clipPath id="j"><path fill="#fff" d="M138.94 306.956h19.212v153.091H138.94z"/></clipPath><clipPath id="i"><path fill="#fff" d="M118.356 306.956h19.212v153.091h-19.212z"/></clipPath><clipPath id="h"><path fill="#fff" d="M97.772 306.956h19.212v153.091H97.772z"/></clipPath><clipPath id="g"><path fill="#fff" d="M77.189 306.956H96.4v153.091H77.189z"/></clipPath><clipPath id="f"><path fill="#fff" d="M56.605 306.956h19.212v153.091H56.605z"/></clipPath><clipPath id="a"><path fill="#fff" d="M0 .6h410v366H0z"/></clipPath><clipPath id="b"><rect width="670" height="244.328" y=".6" fill="#fff" rx="7.204"/></clipPath><clipPath id="e"><path fill="#fff" d="M36.021 306.956h19.212v153.091H36.021z"/></clipPath><clipPath id="d"><rect width="213.728" height="230.129" y="259.336" fill="#fff" rx="7.204"/></clipPath><linearGradient id="o" x1="45.627" x2="80.448" y1="334.273" y2="334.273" gradientUnits="userSpaceOnUse"><stop stop-color="#9F9FE5"/><stop offset="1" stop-color="#4F4FBE"/></linearGradient><linearGradient id="v" x1="384" x2="384" y1="1.002" y2="367.002" gradientUnits="userSpaceOnUse"><stop stop-color="#F9FAFB" stop-opacity="0"/><stop offset=".775" stop-color="#F4F6F8" stop-opacity=".2"/><stop offset="1" stop-color="#F5F7F9"/></linearGradient><linearGradient id="u" x1="341.603" x2="406.442" y1="377.731" y2="377.731" gradientUnits="userSpaceOnUse"><stop stop-color="#9F9FE5"/><stop offset="1" stop-color="#4F4FBE"/></linearGradient><linearGradient id="t" x1="353.01" x2="263.557" y1="393.522" y2="393.522" gradientUnits="userSpaceOnUse"><stop stop-color="#0188FF"/><stop offset="1" stop-color="#7ABFFC"/></linearGradient><linearGradient id="s" x1="353.186" x2="341.179" y1="302.35" y2="302.35" gradientUnits="userSpaceOnUse"><stop stop-color="#D0DAE2"/><stop offset="1" stop-color="#EFF4F8"/></linearGradient><linearGradient id="r" x1="286.362" x2="298.369" y1="301.658" y2="301.658" gradientUnits="userSpaceOnUse"><stop stop-color="#9F9FE5"/><stop offset="1" stop-color="#4F4FBE"/></linearGradient><linearGradient id="q" x1="254.552" x2="242.545" y1="302.23" y2="302.23" gradientUnits="userSpaceOnUse"><stop stop-color="#0188FF"/><stop offset="1" stop-color="#7ABFFC"/></linearGradient><linearGradient id="p" x1="45.627" x2="104.462" y1="358.287" y2="358.287" gradientUnits="userSpaceOnUse"><stop stop-color="#9F9FE5"/><stop offset="1" stop-color="#4F4FBE"/></linearGradient><linearGradient id="n" x1="45.627" x2="50.43" y1="310.258" y2="310.258" gradientUnits="userSpaceOnUse"><stop stop-color="#9F9FE5"/><stop offset="1" stop-color="#4F4FBE"/></linearGradient></defs></svg>