<svg xmlns="http://www.w3.org/2000/svg" width="658" height="367" fill="none"><g clip-path="url(#a)"><path fill="#F9FAFB" d="M0 12.6C0 5.972 5.373.6 12 .6h646v366H0v-354Z"/><g clip-path="url(#b)"><rect width="1098" height="780.8" y=".393" fill="#fff" rx="13.725"/><g clip-path="url(#c)"><mask id="k" fill="#fff"><path d="M0 .393h198.25v780.8H0V.393Z"/></mask><path fill="#F8FAFC" d="M0 .393h198.25v780.8H0V.393Z"/><g clip-path="url(#d)"><rect width="24.4" height="24.4" x="21.35" y="30.892" fill="#F8FAFC" rx="4.575"/><circle cx="33.55" cy="43.093" r="12.2" fill="#F8FAFC"/><g filter="url(#e)"><ellipse cx="41.66" cy="39.272" fill="url(#f)" rx="16.122" ry="16.334" transform="rotate(-105 41.66 39.272)"/></g><g filter="url(#g)"><ellipse cx="18.086" cy="54.953" fill="url(#h)" rx="14.335" ry="14.596" transform="rotate(135 18.086 54.953)"/></g><g filter="url(#i)"><ellipse cx="42.584" cy="60.453" fill="url(#j)" rx="14.066" ry="13.664" transform="rotate(-120 42.584 60.453)"/></g><path fill="#F8FAFC" d="M33.019 48.385 29.192 37.64H31l2.874 8.734h.127l2.874-8.734h1.81l-3.828 10.745h-1.84Z"/></g><path fill="#5D778D" d="m56.854 47.593-3.062-8.597h1.447l2.3 6.988h.101l2.3-6.988h1.447l-3.062 8.596h-1.471Zm6.559-7.626a.81.81 0 0 1-.81-.804c0-.446.363-.81.81-.81.44 0 .81.364.81.81 0 .441-.37.805-.81.805Zm-.65 7.626v-6.47h1.287v6.47h-1.287Zm3.229 0v-9.008h1.293v9.008h-1.293Zm3.217 0v-6.47H70.5v.995h.096c.286-.709.917-1.12 1.763-1.12.882 0 1.507.459 1.793 1.156h.101c.328-.697 1.073-1.156 1.972-1.156 1.305 0 2.067.786 2.067 2.133v4.462h-1.287V43.44c0-.893-.405-1.334-1.25-1.334-.823 0-1.365.614-1.365 1.394v4.093h-1.286v-4.284c0-.738-.483-1.203-1.245-1.203-.78 0-1.359.667-1.359 1.513v3.974H69.21Zm13.606.125c-1.895 0-3.038-1.293-3.038-3.342v-.006c0-2.02 1.167-3.372 2.972-3.372s2.913 1.305 2.913 3.247v.452h-4.587c.024 1.24.703 1.96 1.77 1.96.827 0 1.322-.41 1.477-.744l.024-.048 1.245-.006-.012.054c-.215.852-1.108 1.805-2.764 1.805Zm-.06-5.66c-.882 0-1.549.602-1.662 1.716h3.288c-.101-1.156-.75-1.716-1.626-1.716Zm4.444 5.535v-6.47h1.293v.977h.095c.232-.685.834-1.09 1.698-1.09.208 0 .435.03.566.06v1.191a3.374 3.374 0 0 0-.697-.078c-.99 0-1.662.608-1.662 1.543v3.867h-1.293Zm7.107.125c-1.561 0-2.55-.733-2.675-1.817v-.006h1.293l.006.006c.16.488.631.816 1.4.816.798 0 1.352-.364 1.352-.894v-.012c0-.405-.304-.679-1.055-.852l-1.03-.238c-1.221-.28-1.787-.834-1.787-1.78v-.007c0-1.126 1.048-1.936 2.514-1.936 1.477 0 2.424.739 2.537 1.793v.006h-1.233v-.012c-.125-.452-.584-.792-1.31-.792-.71 0-1.221.351-1.221.87v.012c0 .405.297.655 1.024.828l1.025.232c1.245.292 1.84.822 1.84 1.757v.012c0 1.197-1.143 2.014-2.68 2.014Zm6.963 0c-1.9 0-3.061-1.27-3.061-3.354v-.012c0-2.08 1.167-3.354 3.061-3.354 1.889 0 3.056 1.269 3.056 3.354v.012c0 2.085-1.161 3.354-3.056 3.354Zm0-1.079c1.109 0 1.74-.846 1.74-2.275v-.012c0-1.436-.631-2.276-1.74-2.276-1.113 0-1.739.84-1.739 2.276v.012c0 1.436.626 2.275 1.739 2.275Zm4.599.953v-6.469h1.293v.983h.095c.316-.69.936-1.108 1.877-1.108 1.447 0 2.246.864 2.246 2.407v4.188h-1.287v-3.885c0-1.072-.447-1.602-1.394-1.602-.947 0-1.537.65-1.537 1.692v3.794h-1.293Zm13.332.161c-1.751 0-2.943-.989-2.943-2.43v-.012c0-1.03.542-1.793 1.686-2.37l.34-.174c-.81-.9-1.084-1.406-1.084-1.99v-.011c0-1.126.977-1.948 2.287-1.948 1.317 0 2.27.81 2.27 1.942v.012c0 .846-.501 1.507-1.829 2.228l1.942 2.06c.274-.589.405-1.292.405-2.06v-.197h1.162v.244c0 1.12-.233 2.115-.721 2.907l1.537 1.633v.005h-1.561l-.709-.774c-.685.59-1.608.935-2.782.935Zm-.804-6.922c0 .423.22.763.888 1.478.982-.519 1.304-.93 1.304-1.478v-.012c0-.607-.447-1.042-1.096-1.042-.637 0-1.096.435-1.096 1.042v.012Zm-.864 4.39c0 .894.721 1.496 1.793 1.496.804 0 1.436-.268 1.901-.727l-2.27-2.484-.274.137c-.751.37-1.15.911-1.15 1.567v.012Zm14.827 2.58c-2.389 0-3.878-1.727-3.878-4.498v-.011c0-2.776 1.484-4.504 3.872-4.504 1.895 0 3.348 1.197 3.575 2.907l-.006.03h-1.323v-.018c-.25-1.054-1.114-1.74-2.246-1.74-1.543 0-2.508 1.281-2.508 3.325v.011c0 2.038.965 3.319 2.514 3.319 1.138 0 1.99-.608 2.234-1.58l.012-.023h1.323v.036c-.251 1.65-1.651 2.746-3.569 2.746Zm7.917-.083c-1.9 0-3.062-1.27-3.062-3.354v-.012c0-2.08 1.168-3.354 3.062-3.354 1.889 0 3.056 1.269 3.056 3.354v.012c0 2.085-1.162 3.354-3.056 3.354Zm0-1.079c1.108 0 1.74-.846 1.74-2.275v-.012c0-1.436-.632-2.276-1.74-2.276-1.114 0-1.739.84-1.739 2.276v.012c0 1.436.625 2.275 1.739 2.275Zm5.451 1.043a.86.86 0 0 1-.876-.864.86.86 0 0 1 .876-.87c.494 0 .87.382.87.87a.855.855 0 0 1-.87.864Z"/><path fill="#5D778D" fill-rule="evenodd" d="M161.873 40.266a.763.763 0 0 1 1.079 0l4.035 4.036 4.036-4.036a.763.763 0 0 1 1.079 1.078l-4.575 4.575a.763.763 0 0 1-1.079 0l-4.575-4.575a.764.764 0 0 1 0-1.078Z" clip-rule="evenodd"/><rect width="166.988" height="28.975" x="15.25" y="78.168" fill="#E2EAF1" rx="4.575"/><path fill="#131D27" fill-rule="evenodd" d="M35.33 85.665c.771 0 1.397.626 1.397 1.398v11.184c0 .772-.626 1.398-1.398 1.398H24.146a1.398 1.398 0 0 1-1.398-1.398V87.063c0-.772.626-1.398 1.398-1.398h11.183Zm-.7 10.485a.699.699 0 0 1 0 1.398h-1.398a.699.699 0 1 1 0-1.398h1.398Zm.7-2.097a.699.699 0 0 0-.7-.699h-1.398a.699.699 0 1 0 0 1.398h1.398a.699.699 0 0 0 .7-.699Zm-4.893 2.097a.699.699 0 1 1 0 1.398h-1.398a.699.699 0 0 1 0-1.398h1.397Zm.698-2.097a.699.699 0 0 0-.699-.699H29.04a.699.699 0 0 0 0 1.398h1.397a.699.699 0 0 0 .7-.699Zm-.699-3.495a.699.699 0 1 1 0 1.398H29.04a.699.699 0 0 1 0-1.398h1.397Zm-3.494 6.29a.699.699 0 0 0-.7-.698h-1.397a.699.699 0 1 0 0 1.398h1.398a.699.699 0 0 0 .699-.7Zm-.7-3.494a.699.699 0 0 1 0 1.398h-1.397a.699.699 0 1 1 0-1.398h1.398Zm.7-2.097a.699.699 0 0 0-.7-.699h-1.397a.699.699 0 1 0 0 1.398h1.398a.699.699 0 0 0 .699-.699Zm-.7-3.495a.699.699 0 0 1 0 1.398h-1.397a.699.699 0 1 1 0-1.398h1.398Z" clip-rule="evenodd"/><path fill="#131D27" d="M45.931 96.155v-7.521h2.716c2.23 0 3.539 1.376 3.539 3.737v.01c0 2.388-1.298 3.774-3.54 3.774h-2.715Zm1.168-1.006h1.417c1.575 0 2.482-1.006 2.482-2.752v-.01c0-1.731-.923-2.747-2.482-2.747H47.1v5.51Zm8.074 1.1c-1.08 0-1.877-.657-1.877-1.684v-.01c0-1.011.761-1.6 2.111-1.684l1.533-.088v-.5c0-.621-.391-.965-1.157-.965-.626 0-1.038.23-1.173.63l-.005.022h-1.09l.005-.037c.136-.928 1.027-1.548 2.315-1.548 1.423 0 2.225.709 2.225 1.897v3.873h-1.12v-.803h-.089c-.334.574-.928.897-1.678.897Zm-.751-1.73c0 .52.443.828 1.053.828.844 0 1.465-.552 1.465-1.282v-.485l-1.382.089c-.782.047-1.136.328-1.136.839v.01Zm7.292 1.745c-1.365 0-2.23-.64-2.34-1.59v-.005h1.13l.006.006c.14.427.553.714 1.225.714.699 0 1.183-.318 1.183-.782v-.01c0-.355-.266-.595-.922-.746l-.902-.208c-1.069-.245-1.564-.73-1.564-1.559v-.005c0-.985.918-1.694 2.2-1.694 1.293 0 2.121.646 2.22 1.569v.005h-1.079v-.01c-.11-.397-.51-.694-1.146-.694-.62 0-1.069.308-1.069.761v.01c0 .355.26.574.897.725l.896.204c1.09.255 1.61.719 1.61 1.537v.01c0 1.048-1 1.763-2.345 1.763Zm3.748-.109v-7.881h1.131v3.08h.083c.277-.604.819-.97 1.642-.97 1.267 0 1.965.757 1.965 2.107v3.664h-1.126v-3.398c0-.939-.39-1.403-1.22-1.403-.828 0-1.344.569-1.344 1.48v3.321h-1.131Zm9.408.094c-.792 0-1.412-.365-1.74-.985h-.084v.891h-1.131v-7.881h1.13v3.117h.084c.303-.61.965-.996 1.741-.996 1.439 0 2.346 1.131 2.346 2.925v.01c0 1.777-.917 2.919-2.346 2.919Zm-.318-.964c.944 0 1.512-.74 1.512-1.955v-.01c0-1.215-.568-1.955-1.512-1.955-.943 0-1.527.745-1.527 1.955v.01c0 1.21.584 1.955 1.527 1.955Zm6.412.98c-1.663 0-2.68-1.11-2.68-2.935v-.01c0-1.82 1.022-2.935 2.68-2.935 1.652 0 2.674 1.11 2.674 2.934v.01c0 1.825-1.017 2.936-2.674 2.936Zm0-.944c.97 0 1.522-.74 1.522-1.991v-.01c0-1.257-.553-1.992-1.522-1.992-.975 0-1.522.735-1.522 1.992v.01c0 1.256.547 1.991 1.522 1.991Zm5.577.928c-1.08 0-1.877-.657-1.877-1.684v-.01c0-1.011.761-1.6 2.111-1.684l1.533-.088v-.5c0-.621-.391-.965-1.157-.965-.626 0-1.038.23-1.173.63l-.005.022h-1.09l.005-.037c.136-.928 1.027-1.548 2.315-1.548 1.423 0 2.225.709 2.225 1.897v3.873h-1.12v-.803h-.089c-.333.574-.928.897-1.678.897Zm-.75-1.73c0 .52.442.828 1.052.828.845 0 1.465-.552 1.465-1.282v-.485l-1.381.089c-.782.047-1.137.328-1.137.839v.01Zm5.233 1.636v-5.66h1.13v.854h.084c.203-.6.73-.954 1.486-.954.182 0 .38.026.495.053v1.042a2.954 2.954 0 0 0-.61-.068c-.865 0-1.454.532-1.454 1.35v3.383h-1.132Zm6.192.094c-1.423 0-2.346-1.142-2.346-2.92v-.01c0-1.793.907-2.924 2.346-2.924.777 0 1.439.386 1.74.996h.09v-3.117h1.125v7.881h-1.126v-.891h-.088c-.329.62-.949.985-1.741.985Zm.323-.964c.944 0 1.522-.746 1.522-1.955v-.01c0-1.21-.584-1.955-1.522-1.955-.949 0-1.517.74-1.517 1.955v.01c0 1.214.568 1.955 1.517 1.955Z"/><path fill="#5D778D" fill-rule="evenodd" d="M29.616 117.713a1.422 1.422 0 0 1 .497.044l5.21 1.158c.14.031.28.062.397.097.131.04.28.097.426.202.206.148.368.349.468.582.07.165.094.324.104.461.01.122.01.265.01.408v.822c0 .177 0 .348-.013.494-.013.16-.044.348-.14.538a1.398 1.398 0 0 1-.611.611c-.19.097-.378.127-.538.14a1.467 1.467 0 0 1-.097.006v4.206c.033.001.066.003.097.006.16.013.348.044.538.14.263.134.477.348.61.611.098.19.128.378.141.538.012.146.012.318.012.494v.604c0 .176 0 .348-.012.493-.013.16-.044.349-.14.538a1.398 1.398 0 0 1-.611.611c-.19.097-.378.128-.538.141-.146.012-.317.012-.494.012H24.543c-.176 0-.348 0-.494-.012a1.407 1.407 0 0 1-.538-.141 1.398 1.398 0 0 1-.61-.611 1.41 1.41 0 0 1-.141-.538c-.012-.145-.012-.317-.012-.493v-.604c0-.176 0-.348.012-.494.013-.16.044-.348.14-.538.134-.263.348-.477.611-.611.19-.096.379-.127.538-.14.031-.003.064-.005.097-.006v-4.206a1.464 1.464 0 0 1-.097-.006 1.404 1.404 0 0 1-.538-.14 1.398 1.398 0 0 1-.61-.611 1.414 1.414 0 0 1-.141-.538c-.012-.146-.012-.317-.012-.494v-.822c0-.143 0-.286.009-.408.01-.137.034-.296.104-.461.1-.233.262-.434.468-.582.145-.105.295-.162.426-.202.118-.035.257-.066.397-.097l5.21-1.158c.07-.016.16-.036.254-.044Zm-4.072 5.569v4.194h1.747v-4.194h-1.747Zm3.145 0v4.194h2.097v-4.194h-2.097Zm3.495 0v4.194h1.747v-4.194h-1.747Z" clip-rule="evenodd"/><path fill="#5D778D" d="M45.931 128.18v-7.521h3.023c1.413 0 2.262.719 2.262 1.871v.01c0 .782-.578 1.486-1.318 1.611v.089c1.016.109 1.694.828 1.694 1.808v.011c0 1.318-.965 2.121-2.57 2.121h-3.091Zm2.752-6.568H47.1v2.247h1.386c1.032 0 1.569-.386 1.569-1.115v-.011c0-.709-.506-1.121-1.37-1.121Zm.037 3.138h-1.621v2.476h1.688c1.053 0 1.611-.432 1.611-1.24v-.011c0-.808-.579-1.225-1.678-1.225Zm4.832-3.242a.708.708 0 0 1-.71-.703.71.71 0 0 1 1.418 0 .712.712 0 0 1-.708.703Zm-.569 6.672v-5.661h1.126v5.661h-1.126Zm2.826 0v-7.881h1.13v7.881h-1.13Zm2.866 0v-7.881h1.131v7.881h-1.13Zm3.404-6.672a.708.708 0 0 1-.709-.703.71.71 0 0 1 1.418 0 .712.712 0 0 1-.709.703Zm-.568 6.672v-5.661h1.126v5.661H61.51Zm2.773 0v-5.661h1.131v.86h.083c.277-.604.819-.969 1.642-.969 1.267 0 1.965.756 1.965 2.106v3.664H67.98v-3.398c0-.939-.39-1.403-1.22-1.403-.828 0-1.344.569-1.344 1.481v3.32h-1.131Zm8.793 1.996c-1.438 0-2.325-.63-2.46-1.574l.01-.01h1.142l.005.01c.094.391.553.668 1.319.668.933 0 1.485-.438 1.485-1.21v-1.115h-.083c-.344.615-.97.959-1.746.959-1.454 0-2.351-1.121-2.351-2.716v-.01c0-1.616.902-2.758 2.372-2.758.792 0 1.407.391 1.735 1.027h.068v-.928H75.7v5.546c0 1.288-1.016 2.111-2.622 2.111Zm-.015-3.205c.959 0 1.537-.73 1.537-1.788v-.01c0-1.053-.584-1.794-1.537-1.794-.965 0-1.507.741-1.507 1.794v.01c0 1.053.542 1.788 1.507 1.788ZM149.17 129.293v-7.22h-.102l-2.162 1.543v-1.311l2.264-1.608h1.334v8.596h-1.334Zm3.771 0v-.906l2.853-2.996c1.138-1.186 1.465-1.627 1.465-2.323v-.018c0-.84-.577-1.46-1.519-1.46-.965 0-1.608.632-1.608 1.573l-.006.018h-1.251l-.012-.012c.006-1.573 1.221-2.681 2.949-2.681 1.602 0 2.782 1.019 2.782 2.437v.017c0 .977-.453 1.728-2.014 3.277l-1.823 1.817v.119h3.974v1.138h-5.79Zm11.33 0v-1.71h-4.194v-1.132a117.716 117.716 0 0 1 3.58-5.754h1.9v5.754h1.186v1.132h-1.186v1.71h-1.286Zm-2.913-2.818h2.931v-4.652h-.078a97.003 97.003 0 0 0-2.853 4.569v.083Zm9.686 3.675v-.994c-1.507-.12-2.699-.977-2.746-2.395v-.006l1.239-.006v.012c.101.691.548 1.209 1.507 1.31v-2.603l-.232-.059c-1.508-.352-2.324-1.031-2.324-2.234v-.012c0-1.329 1.061-2.21 2.556-2.329v-1.001h.703v1.001c1.477.125 2.544 1.042 2.597 2.382v.006l-1.233.006v-.012c-.083-.738-.608-1.191-1.364-1.298v2.496l.268.065c1.567.364 2.424 1.007 2.424 2.27v.012c0 1.453-1.185 2.281-2.692 2.395v.994h-.703Zm-1.299-7.071c0 .531.358.93 1.299 1.168v-2.329c-.852.113-1.299.607-1.299 1.15v.011Zm3.432 3.789c0-.613-.334-.977-1.43-1.239v2.448c1.007-.083 1.43-.566 1.43-1.197v-.012ZM28.383 162.868c-.048-.187.113-.346.306-.346h2.097c.193 0 .354.159.306.346a1.398 1.398 0 0 1-2.71 0ZM30.44 151.339h-1.405l-.72.259a4.188 4.188 0 0 0-2.771 3.941v.927c0 .513-.241.996-.651 1.304-1.431 1.076-.67 3.354 1.12 3.354h7.449c1.79 0 2.551-2.278 1.12-3.354a1.63 1.63 0 0 1-.65-1.304v-.927a4.188 4.188 0 0 0-2.771-3.941l-.722-.259ZM29.039 150.64a.699.699 0 1 1 1.397 0v.699H29.04v-.699ZM45.931 161.318v-7.522h1.053l3.867 5.473h.079v-5.473h1.136v7.522h-1.053l-3.862-5.463h-.084v5.463h-1.136Zm10.294.109c-1.662 0-2.679-1.11-2.679-2.934v-.011c0-1.819 1.022-2.934 2.68-2.934 1.652 0 2.674 1.11 2.674 2.934v.011c0 1.824-1.017 2.934-2.675 2.934Zm0-.943c.97 0 1.523-.74 1.523-1.991v-.011c0-1.256-.553-1.991-1.523-1.991-.974 0-1.522.735-1.522 1.991v.011c0 1.256.548 1.991 1.522 1.991Zm6.162.87c-1.246 0-1.757-.438-1.757-1.527v-3.279h-.886v-.891h.886v-1.428h1.152v1.428h1.214v.891h-1.214v3.008c0 .61.23.86.787.86.172 0 .271-.005.427-.021v.902a3.65 3.65 0 0 1-.61.057Zm2.517-6.708a.709.709 0 0 1-.709-.704.71.71 0 0 1 1.418 0 .712.712 0 0 1-.709.704Zm-.568 6.672v-5.661h1.126v5.661h-1.126Zm3.174 0v-4.77h-.933v-.891h.933v-.594c0-1.126.574-1.679 1.752-1.679.255 0 .474.021.667.053v.828a3.189 3.189 0 0 0-.433-.026c-.625 0-.87.303-.87.876v.542h1.256v.891h-1.246v4.77H67.51Zm4.233-6.672a.709.709 0 0 1-.709-.704.71.71 0 0 1 1.418 0 .712.712 0 0 1-.71.704Zm-.568 6.672v-5.661H72.3v5.661h-1.126Zm5.155.109c-1.653 0-2.664-1.126-2.664-2.955v-.011c0-1.793 1.006-2.913 2.659-2.913 1.422 0 2.272.802 2.428 1.902v.026l-1.084.005-.005-.015c-.125-.558-.584-.975-1.334-.975-.944 0-1.512.751-1.512 1.97v.011c0 1.251.579 2.012 1.512 2.012.709 0 1.147-.323 1.329-.933l.01-.026h1.085l-.01.047c-.204 1.099-1.012 1.855-2.414 1.855Zm5.26-.015c-1.08 0-1.877-.657-1.877-1.684v-.01c0-1.012.76-1.601 2.11-1.684l1.533-.089v-.5c0-.62-.39-.964-1.157-.964-.626 0-1.037.229-1.173.63l-.005.021h-1.09l.006-.036c.135-.928 1.027-1.548 2.314-1.548 1.423 0 2.226.708 2.226 1.897v3.873h-1.12v-.803h-.09c-.333.573-.927.897-1.678.897Zm-.752-1.731c0 .521.444.829 1.053.829.845 0 1.465-.553 1.465-1.282v-.485l-1.381.088c-.782.047-1.136.329-1.136.84v.01Zm7.37 1.673c-1.245 0-1.756-.438-1.756-1.527v-3.279h-.886v-.891h.886v-1.428h1.152v1.428h1.215v.891h-1.215v3.008c0 .61.23.86.787.86.172 0 .271-.005.428-.021v.902a3.652 3.652 0 0 1-.61.057Zm2.518-6.708a.709.709 0 0 1-.709-.704.71.71 0 0 1 .71-.709c.385 0 .708.318.708.709a.712.712 0 0 1-.709.704Zm-.568 6.672v-5.661h1.126v5.661h-1.126Zm5.171.109c-1.663 0-2.68-1.11-2.68-2.934v-.011c0-1.819 1.022-2.934 2.68-2.934 1.652 0 2.674 1.11 2.674 2.934v.011c0 1.824-1.016 2.934-2.674 2.934Zm0-.943c.97 0 1.522-.74 1.522-1.991v-.011c0-1.256-.552-1.991-1.522-1.991-.975 0-1.522.735-1.522 1.991v.011c0 1.256.547 1.991 1.522 1.991Zm4.024.834v-5.661h1.131v.86h.083c.277-.605.819-.969 1.642-.969 1.267 0 1.965.755 1.965 2.105v3.665h-1.125v-3.399c0-.938-.391-1.402-1.22-1.402s-1.345.568-1.345 1.48v3.321h-1.131Zm8.46.109c-1.366 0-2.231-.641-2.341-1.59v-.005h1.131l.006.005c.14.428.552.715 1.225.715.698 0 1.183-.318 1.183-.782v-.011c0-.354-.266-.594-.923-.745l-.902-.209c-1.068-.245-1.563-.729-1.563-1.558v-.005c0-.986.917-1.694 2.199-1.694 1.293 0 2.122.646 2.221 1.569v.005h-1.079v-.011c-.11-.396-.511-.693-1.147-.693-.62 0-1.068.308-1.068.761v.011c0 .354.26.573.896.724l.897.203c1.089.256 1.61.72 1.61 1.538v.01c0 1.048-1.001 1.762-2.345 1.762ZM23.69 185.619a.42.42 0 0 0 .345.657h1.82a.419.419 0 0 0 .399-.291l.713-2.213a.42.42 0 0 0-.399-.548h-1.01a.42.42 0 0 0-.345.181l-1.523 2.214ZM24.048 187.029a.42.42 0 0 0-.342.662l3.351 4.734c.279.393.891.084.741-.373l-1.557-4.734a.42.42 0 0 0-.398-.289h-1.795ZM32.314 187.588a.42.42 0 0 0-.395-.559H27.53a.42.42 0 0 0-.396.559l2.194 6.239a.42.42 0 0 0 .791 0l2.194-6.239ZM28.227 183.224a.42.42 0 0 0-.399.29l-.715 2.214a.42.42 0 0 0 .4.548h4.427a.42.42 0 0 0 .399-.548l-.715-2.214a.42.42 0 0 0-.4-.29h-2.997ZM33.592 187.029a.42.42 0 0 0-.399.289l-1.556 4.734c-.15.457.462.766.74.373l3.352-4.734a.42.42 0 0 0-.342-.662h-1.795ZM34.233 183.405a.42.42 0 0 0-.345-.181h-1.009a.42.42 0 0 0-.4.548l.716 2.214a.42.42 0 0 0 .4.29h1.816a.42.42 0 0 0 .346-.657l-1.524-2.214ZM45.352 192.455l2.716-7.521h1.262l2.715 7.521h-1.23l-.678-2.033H47.26l-.683 2.033h-1.225Zm3.3-6.203-1.08 3.232h2.253l-1.085-3.232h-.088Zm6.505 6.313c-1.366 0-2.23-.642-2.34-1.59v-.005h1.13l.006.005c.14.427.552.714 1.225.714.698 0 1.183-.318 1.183-.782v-.01c0-.355-.266-.595-.923-.746l-.901-.208c-1.069-.245-1.564-.73-1.564-1.559v-.005c0-.985.917-1.694 2.2-1.694 1.292 0 2.121.646 2.22 1.569v.005h-1.079v-.01c-.11-.397-.51-.694-1.147-.694-.62 0-1.068.308-1.068.761v.011c0 .354.26.573.896.724l.897.204c1.09.255 1.61.719 1.61 1.537v.011c0 1.047-1 1.762-2.345 1.762Zm5.65 0c-1.365 0-2.23-.642-2.34-1.59v-.005h1.13l.006.005c.14.427.553.714 1.225.714.698 0 1.183-.318 1.183-.782v-.01c0-.355-.266-.595-.922-.746l-.902-.208c-1.069-.245-1.564-.73-1.564-1.559v-.005c0-.985.918-1.694 2.2-1.694 1.292 0 2.121.646 2.22 1.569v.005h-1.079v-.01c-.11-.397-.51-.694-1.146-.694-.62 0-1.069.308-1.069.761v.011c0 .354.26.573.897.724l.896.204c1.09.255 1.61.719 1.61 1.537v.011c0 1.047-1 1.762-2.345 1.762Zm6.073 0c-1.658 0-2.659-1.132-2.659-2.925v-.005c0-1.767 1.022-2.95 2.601-2.95 1.58 0 2.55 1.141 2.55 2.841v.396h-4.014c.02 1.084.615 1.715 1.548 1.715.724 0 1.157-.36 1.292-.652l.021-.042 1.09-.005-.01.047c-.188.746-.97 1.58-2.42 1.58Zm-.052-4.952c-.772 0-1.356.526-1.455 1.501h2.877c-.088-1.011-.656-1.501-1.422-1.501Zm6.025 4.879c-1.246 0-1.756-.438-1.756-1.528v-3.278h-.887v-.892h.887v-1.428h1.151v1.428h1.215v.892h-1.215v3.007c0 .61.23.86.787.86.172 0 .272-.005.428-.021v.902c-.182.031-.391.058-.61.058Zm3.904.073c-1.366 0-2.23-.642-2.34-1.59v-.005h1.13l.006.005c.14.427.553.714 1.225.714.698 0 1.183-.318 1.183-.782v-.01c0-.355-.266-.595-.922-.746l-.902-.208c-1.069-.245-1.564-.73-1.564-1.559v-.005c0-.985.918-1.694 2.2-1.694 1.293 0 2.121.646 2.22 1.569v.005h-1.079v-.01c-.11-.397-.51-.694-1.146-.694-.62 0-1.069.308-1.069.761v.011c0 .354.26.573.897.724l.896.204c1.09.255 1.61.719 1.61 1.537v.011c0 1.047-1 1.762-2.345 1.762Z"/><path fill="#5D778D" fill-rule="evenodd" d="M28.213 213.23c-.758 0-1.373.614-1.373 1.372a.229.229 0 0 1-.167.219 5.472 5.472 0 0 0-1.099.456.23.23 0 0 1-.273-.037 1.373 1.373 0 0 0-1.941 1.941.23.23 0 0 1 .037.273c-.19.346-.343.714-.456 1.099a.23.23 0 0 1-.218.167 1.372 1.372 0 1 0 0 2.745.23.23 0 0 1 .218.167c.113.385.266.753.456 1.099a.23.23 0 0 1-.037.273 1.373 1.373 0 0 0 1.941 1.941.23.23 0 0 1 .273-.037c.346.19.714.343 1.1.456a.229.229 0 0 1 .166.218 1.373 1.373 0 1 0 2.745 0c0-.101.07-.19.167-.218a5.472 5.472 0 0 0 1.099-.456.23.23 0 0 1 .273.037 1.372 1.372 0 1 0 1.941-1.941.23.23 0 0 1-.037-.273 5.48 5.48 0 0 0 .456-1.099.23.23 0 0 1 .219-.167 1.373 1.373 0 0 0 0-2.745.23.23 0 0 1-.22-.167 5.48 5.48 0 0 0-.455-1.099.23.23 0 0 1 .037-.273 1.372 1.372 0 1 0-1.94-1.941.23.23 0 0 1-.274.037 5.472 5.472 0 0 0-1.1-.456.23.23 0 0 1-.166-.219c0-.758-.614-1.372-1.372-1.372Zm0 8.921a2.059 2.059 0 1 0 0-4.118 2.059 2.059 0 0 0 0 4.118Z" clip-rule="evenodd"/><path fill="#5D778D" d="M45.425 223.775c-1.7 0-2.789-.86-2.893-2.127l-.005-.067h1.146l.005.057c.063.683.788 1.121 1.794 1.121.959 0 1.642-.48 1.642-1.178v-.006c0-.578-.407-.954-1.403-1.167l-.823-.177c-1.527-.324-2.184-1.033-2.184-2.143v-.005c.005-1.298 1.13-2.194 2.726-2.194 1.595 0 2.637.901 2.72 2.069l.006.073h-1.131l-.01-.068c-.1-.615-.689-1.063-1.6-1.058-.882 0-1.533.412-1.533 1.121v.005c0 .558.396.922 1.37 1.131l.819.182c1.58.339 2.226.975 2.226 2.091v.005c0 1.438-1.121 2.335-2.872 2.335Zm6.656-.073c-1.658 0-2.658-1.131-2.658-2.924v-.005c0-1.767 1.021-2.951 2.6-2.951 1.58 0 2.55 1.142 2.55 2.841v.396h-4.014c.02 1.084.615 1.715 1.548 1.715.724 0 1.157-.359 1.293-.651l.02-.042 1.09-.005-.01.047c-.188.745-.97 1.579-2.42 1.579Zm-.052-4.952c-.772 0-1.356.527-1.455 1.501h2.878c-.089-1.011-.657-1.501-1.423-1.501Zm6.025 4.879c-1.245 0-1.756-.438-1.756-1.527v-3.279h-.886v-.891h.886v-1.428h1.152v1.428h1.214v.891H57.45v3.008c0 .61.229.86.787.86.172 0 .27-.005.427-.021v.902a3.652 3.652 0 0 1-.61.057Zm4.087 0c-1.246 0-1.757-.438-1.757-1.527v-3.279h-.886v-.891h.886v-1.428h1.152v1.428h1.215v.891h-1.215v3.008c0 .61.23.86.787.86.172 0 .271-.005.428-.021v.902a3.65 3.65 0 0 1-.61.057Zm2.517-6.708a.709.709 0 0 1-.709-.704.71.71 0 0 1 .71-.709c.385 0 .708.318.708.709a.712.712 0 0 1-.709.704Zm-.568 6.672v-5.661h1.126v5.661H64.09Zm2.773 0v-5.661h1.131v.86h.084c.276-.605.818-.97 1.642-.97 1.266 0 1.965.756 1.965 2.106v3.665h-1.126v-3.399c0-.938-.391-1.402-1.22-1.402s-1.345.568-1.345 1.48v3.321h-1.13Zm8.794 1.996c-1.439 0-2.325-.631-2.46-1.574l.01-.011h1.141l.005.011c.094.391.553.667 1.32.667.932 0 1.485-.438 1.485-1.209v-1.116h-.084c-.344.615-.97.959-1.746.959-1.454 0-2.35-1.12-2.35-2.715v-.011c0-1.616.901-2.757 2.371-2.757.792 0 1.407.391 1.736 1.027h.068v-.928h1.125v5.546c0 1.287-1.016 2.111-2.621 2.111Zm-.016-3.206c.959 0 1.538-.729 1.538-1.788v-.01c0-1.053-.584-1.793-1.538-1.793-.964 0-1.506.74-1.506 1.793v.01c0 1.053.542 1.788 1.506 1.788Zm6.323 1.319c-1.366 0-2.231-.641-2.34-1.59v-.005h1.13l.005.005c.141.428.553.714 1.225.714.699 0 1.184-.318 1.184-.782v-.01c0-.354-.266-.594-.923-.745l-.902-.209c-1.068-.245-1.563-.73-1.563-1.558v-.006c0-.985.917-1.694 2.2-1.694 1.292 0 2.12.647 2.22 1.569v.006h-1.08v-.011c-.109-.396-.51-.693-1.146-.693-.62 0-1.069.307-1.069.761v.01c0 .355.261.574.897.725l.896.203c1.09.256 1.611.719 1.611 1.538v.01c0 1.048-1 1.762-2.345 1.762Z"/><path stroke="#E2EAF1" stroke-width=".762" d="M-.382 256.186H197.87"/><path fill="#5D778D" d="M24.804 290.724c-1.792 0-2.909-1.296-2.909-3.373v-.009c0-2.082 1.113-3.378 2.904-3.378 1.42 0 2.511.898 2.68 2.181l-.004.022h-.992v-.014c-.187-.79-.835-1.304-1.684-1.304-1.157 0-1.88.96-1.88 2.493v.009c0 1.528.723 2.488 1.885 2.488.853 0 1.492-.455 1.675-1.184l.009-.017h.992v.026c-.188 1.238-1.238 2.06-2.676 2.06Zm3.31-.156 2.328-6.447h1.081l2.328 6.447h-1.054l-.581-1.743H29.75l-.586 1.743h-1.05Zm2.828-5.317-.925 2.77h1.93l-.929-2.77h-.076Zm4.03 5.317v-6.447h1.153l2.055 5.142h.072l2.055-5.142h1.152v6.447h-.91v-4.732h-.068l-1.894 4.732h-.742l-1.89-4.732h-.071v4.732h-.912Zm8.105 0v-6.447h2.51c1.265 0 2.14.848 2.14 2.113v.009c0 1.26-.875 2.122-2.14 2.122h-1.51v2.203h-1Zm2.26-5.603h-1.26v2.56h1.26c.867 0 1.372-.469 1.372-1.278v-.009c0-.804-.505-1.273-1.372-1.273Zm2.766 5.603 2.328-6.447h1.081l2.328 6.447h-1.055l-.58-1.743h-2.467l-.585 1.743h-1.05Zm2.828-5.317-.925 2.77h1.93l-.929-2.77h-.076Zm4.03 5.317v-6.447h1v6.447h-1Zm5.335.156c-1.828 0-2.98-1.305-2.98-3.378v-.009c0-2.046 1.166-3.373 2.97-3.373 1.466 0 2.507.831 2.74 2.078l.008.044h-1l-.014-.044c-.232-.764-.849-1.193-1.733-1.193-1.193 0-1.948.965-1.948 2.484v.009c0 1.541.76 2.497 1.97 2.497 1.054 0 1.774-.665 1.783-1.657v-.143h-1.658v-.809h2.645v.8c0 1.635-1.095 2.694-2.783 2.694Zm4.164-.156v-6.447h.902l3.315 4.691h.067v-4.691h.974v6.447h-.902l-3.31-4.683h-.072v4.683h-.974Zm9.06.156c-1.456 0-2.39-.737-2.48-1.823l-.004-.058h.983l.005.049c.053.585.674.961 1.537.961.821 0 1.407-.411 1.407-1.01v-.004c0-.496-.349-.818-1.202-1.001l-.706-.152c-1.309-.277-1.872-.885-1.872-1.836v-.005c.004-1.112.97-1.881 2.337-1.881 1.367 0 2.26.773 2.332 1.774l.004.062h-.97l-.008-.058c-.085-.527-.59-.911-1.372-.907-.755 0-1.313.353-1.313.961v.004c0 .479.34.791 1.175.97l.701.156c1.354.291 1.908.836 1.908 1.792v.004c0 1.234-.96 2.002-2.462 2.002Z"/><path stroke="#5D778D" stroke-linecap="round" stroke-width="1.473" d="M163.175 286.975h7.81M167.08 283.07v7.81"/><circle cx="25.163" cy="312.868" r="3.813" fill="#1D977A"/><path fill="#5D778D" d="M39.975 316.368h-.89l.416-2.049h-1.21l.173-.881h1.22l.349-1.746h-1.267l.177-.876h1.272l.396-1.97h.892l-.402 1.97h1.574l.402-1.97h.896l-.401 1.97h1.272l-.167.876h-1.288l-.354 1.746h1.324l-.167.881h-1.334l-.417 2.049h-.892l.418-2.049h-1.575l-.417 2.049Zm.563-2.904h1.627l.364-1.793h-1.626l-.365 1.793Zm8.507 3.086c-2.09 0-3.393-1.512-3.393-3.935v-.011c0-2.429 1.298-3.94 3.388-3.94 1.657 0 2.93 1.047 3.127 2.543l-.005.026h-1.157v-.015c-.22-.923-.975-1.522-1.965-1.522-1.35 0-2.195 1.12-2.195 2.908v.011c0 1.782.845 2.903 2.2 2.903.995 0 1.74-.532 1.955-1.381l.01-.021h1.157v.031c-.219 1.444-1.444 2.403-3.122 2.403Zm6.083-.089c-1.08 0-1.877-.656-1.877-1.683v-.011c0-1.011.761-1.6 2.111-1.683l1.533-.089v-.5c0-.62-.391-.964-1.157-.964-.626 0-1.038.229-1.173.63l-.005.021h-1.09l.005-.036c.136-.928 1.027-1.549 2.315-1.549 1.423 0 2.226.709 2.226 1.898v3.873h-1.121v-.803h-.089c-.333.573-.928.896-1.678.896Zm-.75-1.73c0 .521.442.829 1.052.829.845 0 1.465-.553 1.465-1.283v-.484l-1.382.088c-.781.047-1.136.329-1.136.839v.011Zm5.233 1.637v-5.661h1.13v.87h.084c.25-.62.803-.98 1.543-.98.771 0 1.319.402 1.569 1.012h.088c.287-.61.939-1.012 1.726-1.012 1.141 0 1.808.689 1.808 1.867v3.904h-1.126v-3.633c0-.782-.354-1.168-1.094-1.168-.72 0-1.194.537-1.194 1.22v3.581H63.02v-3.748c0-.646-.422-1.053-1.089-1.053-.683 0-1.188.584-1.188 1.324v3.477H59.61Zm9.528 1.887v-7.548h1.13v.891h.084c.329-.62.949-.99 1.741-.99 1.428 0 2.346 1.141 2.346 2.924v.01c0 1.794-.907 2.919-2.346 2.919-.776 0-1.438-.38-1.74-.99h-.084v2.784h-1.131Zm2.637-2.758c.944 0 1.512-.74 1.512-1.955v-.01c0-1.22-.568-1.955-1.512-1.955-.943 0-1.527.746-1.527 1.955v.01c0 1.21.584 1.955 1.527 1.955Zm5.578.964c-1.08 0-1.877-.656-1.877-1.683v-.011c0-1.011.761-1.6 2.111-1.683l1.533-.089v-.5c0-.62-.391-.964-1.158-.964-.625 0-1.037.229-1.172.63l-.006.021h-1.089l.005-.036c.136-.928 1.027-1.549 2.315-1.549 1.422 0 2.225.709 2.225 1.898v3.873h-1.12v-.803h-.09c-.333.573-.927.896-1.678.896Zm-.751-1.73c0 .521.443.829 1.053.829.844 0 1.465-.553 1.465-1.283v-.484l-1.382.088c-.782.047-1.136.329-1.136.839v.011Zm5.822-5.035a.709.709 0 0 1-.709-.704.71.71 0 0 1 1.418 0 .712.712 0 0 1-.709.704Zm-.568 6.672v-5.661h1.126v5.661h-1.126Zm5.165 1.996c-1.438 0-2.324-.631-2.46-1.574l.01-.011h1.142l.005.011c.094.391.553.667 1.32.667.932 0 1.485-.438 1.485-1.209v-1.116h-.084c-.344.615-.97.959-1.746.959-1.454 0-2.35-1.12-2.35-2.715v-.011c0-1.616.901-2.757 2.371-2.757.792 0 1.407.391 1.736 1.027h.068v-.928h1.125v5.546c0 1.287-1.016 2.111-2.622 2.111Zm-.015-3.206c.959 0 1.537-.729 1.537-1.788v-.01c0-1.053-.583-1.793-1.537-1.793-.964 0-1.507.74-1.507 1.793v.01c0 1.053.543 1.788 1.507 1.788Zm4.264 1.21v-5.661h1.13v.86h.084c.276-.605.819-.97 1.642-.97 1.267 0 1.965.756 1.965 2.106v3.665h-1.126v-3.399c0-.938-.39-1.402-1.22-1.402-.828 0-1.344.568-1.344 1.48v3.321H91.27Zm11.159 0v-6.318h-.088l-1.892 1.35v-1.147l1.98-1.407h1.168v7.522h-1.168Z"/><circle cx="25.163" cy="340.068" r="3.813" fill="#4F4FBE"/><path fill="#5D778D" d="M39.975 343.568h-.89l.416-2.049h-1.21l.173-.881h1.22l.349-1.746h-1.267l.177-.876h1.272l.396-1.97h.892l-.402 1.97h1.574l.402-1.97h.896l-.401 1.97h1.272l-.167.876h-1.288l-.354 1.746h1.324l-.167.881h-1.334l-.417 2.049h-.892l.418-2.049h-1.575l-.417 2.049Zm.563-2.904h1.627l.364-1.793h-1.626l-.365 1.793Zm8.507 3.086c-2.09 0-3.393-1.512-3.393-3.935v-.011c0-2.429 1.298-3.94 3.388-3.94 1.657 0 2.93 1.047 3.127 2.543l-.005.026h-1.157v-.015c-.22-.923-.975-1.522-1.965-1.522-1.35 0-2.195 1.12-2.195 2.908v.011c0 1.782.845 2.903 2.2 2.903.996 0 1.74-.532 1.955-1.381l.01-.021h1.157v.031c-.219 1.444-1.444 2.403-3.122 2.403Zm6.083-.089c-1.08 0-1.877-.656-1.877-1.683v-.011c0-1.011.761-1.6 2.111-1.683l1.533-.089v-.5c0-.62-.391-.965-1.157-.965-.626 0-1.038.23-1.173.631l-.005.021h-1.09l.005-.036c.136-.928 1.027-1.549 2.315-1.549 1.423 0 2.226.709 2.226 1.898v3.873h-1.121v-.803h-.089c-.333.573-.928.896-1.678.896Zm-.75-1.73c0 .521.442.829 1.052.829.845 0 1.465-.553 1.465-1.283v-.484l-1.381.088c-.782.047-1.137.329-1.137.839v.011Zm5.233 1.637v-5.661h1.13v.87h.084c.25-.62.803-.98 1.543-.98.771 0 1.319.402 1.569 1.012h.088c.287-.61.939-1.012 1.726-1.012 1.141 0 1.808.689 1.808 1.867v3.904h-1.125v-3.633c0-.782-.355-1.168-1.095-1.168-.72 0-1.194.537-1.194 1.22v3.581H63.02v-3.748c0-.646-.422-1.053-1.089-1.053-.683 0-1.188.584-1.188 1.324v3.477H59.61Zm9.528 1.886v-7.547h1.13v.891h.084c.329-.62.949-.99 1.741-.99 1.428 0 2.346 1.141 2.346 2.924v.01c0 1.794-.907 2.919-2.346 2.919-.776 0-1.438-.38-1.74-.99h-.084v2.783h-1.131Zm2.637-2.757c.944 0 1.512-.74 1.512-1.955v-.01c0-1.22-.568-1.955-1.512-1.955-.943 0-1.527.746-1.527 1.955v.01c0 1.21.584 1.955 1.527 1.955Zm5.578.964c-1.08 0-1.877-.656-1.877-1.683v-.011c0-1.011.761-1.6 2.111-1.683l1.533-.089v-.5c0-.62-.391-.965-1.158-.965-.625 0-1.037.23-1.172.631l-.006.021h-1.089l.005-.036c.136-.928 1.027-1.549 2.315-1.549 1.422 0 2.225.709 2.225 1.898v3.873h-1.12v-.803h-.09c-.333.573-.927.896-1.678.896Zm-.751-1.73c0 .521.443.829 1.053.829.844 0 1.465-.553 1.465-1.283v-.484l-1.382.088c-.782.047-1.136.329-1.136.839v.011Zm5.822-5.035a.709.709 0 0 1-.709-.704.71.71 0 0 1 .71-.709c.385 0 .708.318.708.709a.712.712 0 0 1-.709.704Zm-.568 6.672v-5.661h1.126v5.661h-1.126Zm5.165 1.996c-1.438 0-2.324-.631-2.46-1.574l.01-.011h1.142l.005.011c.094.391.553.667 1.32.667.932 0 1.485-.438 1.485-1.209v-1.116h-.084c-.344.615-.97.959-1.746.959-1.454 0-2.35-1.12-2.35-2.715v-.011c0-1.616.901-2.757 2.371-2.757.792 0 1.407.391 1.736 1.027h.068v-.928h1.125v5.546c0 1.287-1.016 2.111-2.622 2.111Zm-.015-3.206c.959 0 1.538-.729 1.538-1.788v-.01c0-1.053-.584-1.793-1.538-1.793-.964 0-1.507.74-1.507 1.793v.01c0 1.053.543 1.788 1.507 1.788Zm4.264 1.21v-5.661h1.13v.86h.084c.276-.605.819-.97 1.642-.97 1.267 0 1.965.756 1.965 2.106v3.665h-1.126v-3.399c0-.938-.39-1.402-1.22-1.402-.828 0-1.344.568-1.344 1.48v3.321H91.27Zm11.159 0v-6.318h-.088l-1.892 1.35v-1.147l1.98-1.407h1.168v7.522h-1.168Z"/></g><path fill="#E2EAF1" d="M197.488.393v780.8h1.524V.393h-1.524Z" mask="url(#k)"/><path fill="#131D27" d="M224.752 53.13V37.013h6.154c4.826 0 7.685 2.87 7.685 7.975v.022c0 5.116-2.848 8.12-7.685 8.12h-6.154Zm3.373-2.792h2.379c3.016 0 4.647-1.832 4.647-5.317V45c0-3.362-1.687-5.205-4.647-5.205h-2.379v10.544Zm15.861 2.982c-2.402 0-4.021-1.508-4.021-3.619v-.022c0-2.178 1.686-3.452 4.657-3.642l2.96-.178v-.737c0-1.061-.692-1.72-1.965-1.72-1.218 0-1.955.57-2.111 1.34l-.023.1h-2.982l.011-.134c.179-2.211 2.078-3.797 5.239-3.797 3.094 0 5.093 1.597 5.093 4.01v8.21h-3.262v-1.788h-.067c-.681 1.229-1.954 1.977-3.529 1.977Zm-.793-3.786c0 .882.726 1.407 1.854 1.407 1.463 0 2.535-.938 2.535-2.19v-.86l-2.468.157c-1.262.078-1.921.614-1.921 1.463v.023Zm14.688 3.842c-3.318 0-5.161-1.53-5.418-3.798l-.011-.1h3.184l.022.1c.212.938.916 1.486 2.223 1.486 1.228 0 1.977-.48 1.977-1.251v-.011c0-.637-.403-1.006-1.575-1.263l-2.033-.424c-2.323-.491-3.496-1.653-3.496-3.44v-.011c0-2.279 1.966-3.753 5.015-3.753 3.183 0 4.959 1.686 5.037 3.786v.112h-3.004l-.011-.09c-.112-.86-.816-1.507-2.022-1.507-1.128 0-1.832.502-1.832 1.273v.011c0 .614.413 1.017 1.62 1.273l2.033.436c2.501.525 3.529 1.508 3.529 3.273v.01c0 2.346-2.156 3.888-5.238 3.888Zm6.925-.246V37.013h3.261v6.21h.067c.614-1.486 1.877-2.312 3.675-2.312 2.591 0 4.2 1.81 4.2 4.702v7.517h-3.262v-6.847c0-1.675-.826-2.67-2.312-2.67-1.441 0-2.368 1.095-2.368 2.66v6.857h-3.261Zm20.395.246c-1.72 0-3.038-.871-3.686-2.29h-.067v2.044h-3.261V37.013h3.261v6.221h.067c.659-1.452 1.988-2.323 3.697-2.323 3.005 0 4.87 2.323 4.87 6.221v.011c0 3.887-1.865 6.233-4.881 6.233Zm-1.083-2.703c1.619 0 2.647-1.352 2.647-3.53v-.01c0-2.19-1.028-3.52-2.647-3.52-1.575 0-2.67 1.363-2.67 3.52v.01c0 2.167 1.084 3.53 2.67 3.53Zm13.135 2.703c-3.641 0-5.931-2.334-5.931-6.233v-.022c0-3.854 2.345-6.21 5.92-6.21 3.585 0 5.942 2.334 5.942 6.21v.022c0 3.91-2.312 6.233-5.931 6.233Zm.011-2.558c1.586 0 2.602-1.34 2.602-3.675v-.022c0-2.312-1.038-3.652-2.624-3.652-1.575 0-2.603 1.34-2.603 3.652v.022c0 2.346 1.017 3.675 2.625 3.675Zm11.169 2.502c-2.401 0-4.021-1.508-4.021-3.619v-.022c0-2.178 1.687-3.452 4.658-3.642l2.96-.178v-.737c0-1.061-.692-1.72-1.966-1.72-1.217 0-1.954.57-2.111 1.34l-.022.1h-2.982l.011-.134c.178-2.211 2.077-3.797 5.238-3.797 3.094 0 5.093 1.597 5.093 4.01v8.21h-3.261v-1.788h-.067c-.681 1.229-1.955 1.977-3.53 1.977Zm-.793-3.786c0 .882.726 1.407 1.855 1.407 1.463 0 2.535-.938 2.535-2.19v-.86l-2.468.157c-1.263.078-1.922.614-1.922 1.463v.023Zm9.763 3.596V41.156h3.261v2.09h.067c.357-1.475 1.329-2.335 2.725-2.335.358 0 .693.056.939.123v2.87c-.268-.112-.715-.179-1.184-.179-1.609 0-2.547.961-2.547 2.703v6.702h-3.261Zm12.364.246c-3.016 0-4.87-2.346-4.87-6.233v-.01c0-3.899 1.854-6.222 4.87-6.222 1.698 0 3.038.871 3.686 2.323h.067v-6.221h3.261V53.13h-3.261v-2.044h-.067c-.637 1.419-1.955 2.29-3.686 2.29Zm1.095-2.703c1.586 0 2.669-1.363 2.669-3.53v-.01c0-2.157-1.094-3.52-2.669-3.52-1.62 0-2.647 1.33-2.647 3.52v.01c0 2.178 1.016 3.53 2.647 3.53Z"/><path fill="#A5B7C7" fill-rule="evenodd" d="M246.977 109.699a6.1 6.1 0 1 1 1.079-1.078l4.107 4.107a.763.763 0 0 1-1.078 1.079l-4.108-4.108Zm.835-4.819a4.575 4.575 0 1 1-9.15 0 4.575 4.575 0 0 1 9.15 0Z" clip-rule="evenodd"/><path fill="#A5B7C7" d="M265.024 110.088c-1.699 0-2.789-.861-2.893-2.127l-.005-.068h1.146l.006.057c.062.683.787 1.121 1.793 1.121.959 0 1.642-.479 1.642-1.178v-.005c0-.579-.407-.954-1.402-1.168l-.824-.177c-1.527-.323-2.184-1.032-2.184-2.142v-.005c.005-1.298 1.131-2.195 2.726-2.195s2.638.902 2.721 2.069l.005.073h-1.131l-.01-.067c-.099-.615-.688-1.064-1.601-1.058-.88 0-1.532.411-1.532 1.12v.005c0 .558.396.923 1.371 1.132l.818.182c1.58.339 2.226.975 2.226 2.09v.005c0 1.439-1.121 2.336-2.872 2.336Zm6.656-.073c-1.657 0-2.658-1.132-2.658-2.925v-.005c0-1.767 1.021-2.95 2.601-2.95 1.579 0 2.549 1.141 2.549 2.841v.396h-4.014c.021 1.084.615 1.715 1.548 1.715.725 0 1.157-.36 1.293-.652l.021-.042 1.089-.005-.01.047c-.188.746-.97 1.58-2.419 1.58Zm-.052-4.952c-.771 0-1.355.526-1.454 1.501h2.877c-.089-1.011-.657-1.501-1.423-1.501Zm5.442 4.936c-1.079 0-1.877-.657-1.877-1.684v-.01c0-1.011.761-1.6 2.111-1.684l1.533-.088v-.501c0-.62-.391-.964-1.157-.964-.626 0-1.038.229-1.173.631l-.005.021h-1.09l.005-.037c.136-.928 1.027-1.548 2.315-1.548 1.423 0 2.225.709 2.225 1.897v3.873h-1.12v-.803h-.089c-.334.574-.928.897-1.678.897Zm-.751-1.731c0 .522.443.829 1.053.829.844 0 1.465-.552 1.465-1.282v-.485l-1.382.089c-.781.047-1.136.328-1.136.839v.01Zm5.233 1.637v-5.661h1.131v.855h.084c.203-.599.73-.954 1.485-.954.183 0 .381.026.496.053v1.042a2.946 2.946 0 0 0-.61-.068c-.866 0-1.455.532-1.455 1.35v3.383h-1.131Zm6.511.11c-1.653 0-2.664-1.126-2.664-2.956v-.01c0-1.793 1.006-2.914 2.658-2.914 1.423 0 2.273.803 2.429 1.902v.027l-1.084.005-.005-.016c-.125-.558-.584-.975-1.334-.975-.944 0-1.512.751-1.512 1.971v.01c0 1.251.579 2.012 1.512 2.012.709 0 1.146-.323 1.329-.933l.01-.026h1.084l-.01.047c-.203 1.1-1.011 1.856-2.413 1.856Zm3.758-.11v-7.881h1.131v3.08h.083c.277-.604.819-.969 1.642-.969 1.267 0 1.965.756 1.965 2.106v3.664h-1.126v-3.398c0-.939-.391-1.403-1.219-1.403-.829 0-1.345.569-1.345 1.481v3.32h-1.131Z"/><rect width="227.682" height="32.483" x="223.945" y="90.164" stroke="#E2EAF1" stroke-width="1.067" rx="5.566"/><path fill="#F8FAFC" d="M223.412 146.055a7.625 7.625 0 0 1 7.625-7.625h867.723v36.6H231.037a7.625 7.625 0 0 1-7.625-7.625v-21.35Z"/><rect width="14.182" height="14.182" x="239.195" y="149.639" fill="#fff" rx="3.279"/><rect width="14.182" height="14.182" x="239.195" y="149.639" stroke="#E2EAF1" stroke-width="1.067" rx="3.279"/><path fill="#5D778D" d="M270.141 160.413c-2.09 0-3.393-1.512-3.393-3.936v-.01c0-2.429 1.297-3.941 3.388-3.941 1.657 0 2.929 1.048 3.127 2.544l-.005.026h-1.157v-.016c-.219-.922-.975-1.522-1.965-1.522-1.35 0-2.195 1.121-2.195 2.909v.01c0 1.783.845 2.903 2.2 2.903.995 0 1.741-.531 1.955-1.381l.01-.021h1.157v.032c-.219 1.443-1.444 2.403-3.122 2.403Zm6.083-.089c-1.079 0-1.877-.657-1.877-1.684v-.01c0-1.011.761-1.6 2.111-1.684l1.533-.088v-.501c0-.62-.391-.964-1.157-.964-.626 0-1.038.229-1.173.631l-.005.021h-1.09l.005-.037c.136-.928 1.027-1.548 2.315-1.548 1.423 0 2.225.709 2.225 1.897v3.873h-1.12v-.803h-.089c-.333.574-.928.897-1.678.897Zm-.751-1.731c0 .522.443.829 1.053.829.844 0 1.465-.552 1.465-1.282v-.485l-1.382.089c-.781.047-1.136.328-1.136.839v.01Zm5.233 1.637v-5.661h1.131v.871h.084c.25-.62.803-.98 1.543-.98.771 0 1.318.401 1.569 1.011h.088c.287-.61.939-1.011 1.726-1.011 1.141 0 1.808.688 1.808 1.866v3.904h-1.126v-3.633c0-.782-.354-1.168-1.094-1.168-.719 0-1.194.537-1.194 1.22v3.581h-1.126v-3.748c0-.646-.422-1.053-1.089-1.053-.683 0-1.189.584-1.189 1.324v3.477h-1.131Zm9.529 1.887v-7.548h1.131v.892h.083c.329-.621.949-.991 1.741-.991 1.428 0 2.346 1.142 2.346 2.925v.01c0 1.793-.907 2.919-2.346 2.919-.777 0-1.439-.381-1.741-.99h-.083v2.783h-1.131Zm2.637-2.757c.944 0 1.512-.741 1.512-1.955v-.01c0-1.22-.568-1.955-1.512-1.955-.943 0-1.527.745-1.527 1.955v.01c0 1.209.584 1.955 1.527 1.955Zm5.577.964c-1.079 0-1.876-.657-1.876-1.684v-.01c0-1.011.761-1.6 2.111-1.684l1.532-.088v-.501c0-.62-.391-.964-1.157-.964-.625 0-1.037.229-1.173.631l-.005.021h-1.089l.005-.037c.136-.928 1.027-1.548 2.314-1.548 1.423 0 2.226.709 2.226 1.897v3.873h-1.121v-.803h-.088c-.334.574-.928.897-1.679.897Zm-.75-1.731c0 .522.443.829 1.053.829.844 0 1.464-.552 1.464-1.282v-.485l-1.381.089c-.782.047-1.136.328-1.136.839v.01Zm5.822-5.035a.708.708 0 0 1-.709-.703.71.71 0 0 1 1.418 0 .712.712 0 0 1-.709.703Zm-.568 6.672v-5.661h1.126v5.661h-1.126Zm5.165 1.996c-1.438 0-2.324-.63-2.46-1.574l.011-.01h1.141l.005.01c.094.391.553.668 1.319.668.933 0 1.486-.438 1.486-1.21v-1.115h-.084c-.344.615-.969.959-1.746.959-1.454 0-2.351-1.121-2.351-2.716v-.01c0-1.616.902-2.758 2.372-2.758.792 0 1.407.391 1.736 1.027h.067v-.928h1.126v5.546c0 1.288-1.016 2.111-2.622 2.111Zm-.015-3.205c.959 0 1.537-.73 1.537-1.788v-.01c0-1.053-.583-1.794-1.537-1.794-.965 0-1.507.741-1.507 1.794v.01c0 1.053.542 1.788 1.507 1.788Zm4.264 1.209v-5.661h1.131v.86h.083c.276-.604.818-.969 1.642-.969 1.267 0 1.965.756 1.965 2.106v3.664h-1.126v-3.398c0-.939-.391-1.403-1.22-1.403-.828 0-1.344.569-1.344 1.481v3.32h-1.131Zm8.459.11c-1.365 0-2.231-.642-2.34-1.59v-.005h1.131l.005.005c.141.427.553.714 1.225.714.699 0 1.183-.318 1.183-.782v-.01c0-.355-.266-.595-.922-.746l-.902-.208c-1.069-.245-1.564-.73-1.564-1.559v-.005c0-.985.918-1.694 2.2-1.694 1.293 0 2.121.646 2.22 1.569v.005h-1.079v-.01c-.109-.396-.51-.694-1.146-.694-.621 0-1.069.308-1.069.761v.011c0 .354.261.573.897.724l.896.204c1.09.255 1.611.719 1.611 1.537v.011c0 1.047-1.001 1.762-2.346 1.762ZM530.374 160.413c-1.7 0-2.789-.861-2.893-2.127l-.005-.068h1.146l.006.057c.062.683.787 1.121 1.793 1.121.959 0 1.642-.479 1.642-1.178v-.005c0-.579-.407-.954-1.403-1.168l-.823-.177c-1.527-.323-2.184-1.032-2.184-2.142v-.005c.005-1.298 1.131-2.195 2.726-2.195s2.637.902 2.721 2.069l.005.073h-1.131l-.01-.067c-.1-.615-.689-1.064-1.601-1.058-.881 0-1.532.411-1.532 1.12v.005c0 .558.396.923 1.371 1.132l.818.182c1.579.339 2.226.975 2.226 2.09v.005c0 1.439-1.121 2.336-2.872 2.336Zm6.416-.146c-1.246 0-1.756-.438-1.756-1.528v-3.278h-.886v-.892h.886v-1.428h1.152v1.428h1.214v.892h-1.214v3.007c0 .61.229.86.787.86.172 0 .271-.005.427-.02v.901a3.54 3.54 0 0 1-.61.058Zm3.482.057c-1.079 0-1.876-.657-1.876-1.684v-.01c0-1.011.761-1.6 2.111-1.684l1.532-.088v-.501c0-.62-.391-.964-1.157-.964-.626 0-1.037.229-1.173.631l-.005.021h-1.089l.005-.037c.135-.928 1.027-1.548 2.314-1.548 1.423 0 2.226.709 2.226 1.897v3.873h-1.121v-.803h-.089c-.333.574-.927.897-1.678.897Zm-.75-1.731c0 .522.443.829 1.052.829.845 0 1.465-.552 1.465-1.282v-.485l-1.381.089c-.782.047-1.136.328-1.136.839v.01Zm7.37 1.674c-1.246 0-1.757-.438-1.757-1.528v-3.278h-.886v-.892h.886v-1.428h1.152v1.428h1.215v.892h-1.215v3.007c0 .61.23.86.787.86.172 0 .271-.005.428-.02v.901a3.55 3.55 0 0 1-.61.058Zm3.815.073c-1.277 0-1.939-.767-1.939-2.106v-3.665h1.131v3.399c0 .938.344 1.402 1.173 1.402.907 0 1.392-.568 1.392-1.48v-3.321h1.126v5.661h-1.126v-.855h-.089c-.271.61-.844.965-1.668.965Zm6.573 0c-1.365 0-2.231-.642-2.34-1.59v-.005h1.131l.005.005c.141.427.553.714 1.225.714.698 0 1.183-.318 1.183-.782v-.01c0-.355-.266-.595-.922-.746l-.902-.208c-1.069-.245-1.564-.73-1.564-1.559v-.005c0-.985.918-1.694 2.2-1.694 1.292 0 2.121.646 2.22 1.569v.005h-1.079v-.01c-.109-.396-.511-.694-1.146-.694-.621 0-1.069.308-1.069.761v.011c0 .354.261.573.897.724l.896.204c1.09.255 1.611.719 1.611 1.537v.011c0 1.047-1.001 1.762-2.346 1.762ZM609.418 160.23v-7.521h2.929c1.475 0 2.497.99 2.497 2.465v.01c0 1.47-1.022 2.476-2.497 2.476h-1.762v2.57h-1.167Zm2.637-6.536h-1.47v2.986h1.47c1.011 0 1.6-.547 1.6-1.49v-.011c0-.938-.589-1.485-1.6-1.485Zm4.217 6.536v-7.881h1.131v7.881h-1.131Zm4.368.094c-1.079 0-1.877-.657-1.877-1.684v-.01c0-1.011.761-1.6 2.111-1.684l1.533-.088v-.501c0-.62-.391-.964-1.157-.964-.626 0-1.038.229-1.173.631l-.005.021h-1.09l.006-.037c.135-.928 1.026-1.548 2.314-1.548 1.423 0 2.226.709 2.226 1.897v3.873h-1.121v-.803h-.089c-.333.574-.928.897-1.678.897Zm-.751-1.731c0 .522.443.829 1.053.829.845 0 1.465-.552 1.465-1.282v-.485l-1.381.089c-.782.047-1.137.328-1.137.839v.01Zm7.371 1.674c-1.246 0-1.757-.438-1.757-1.528v-3.278h-.886v-.892h.886v-1.428h1.152v1.428h1.215v.892h-1.215v3.007c0 .61.229.86.787.86.172 0 .271-.005.428-.02v.901a3.55 3.55 0 0 1-.61.058Zm2.35-.037v-4.769h-.933v-.892h.933v-.594c0-1.126.574-1.678 1.752-1.678.255 0 .474.021.667.052v.829a3.029 3.029 0 0 0-.433-.026c-.625 0-.87.302-.87.875v.542h1.256v.892h-1.246v4.769h-1.126Zm5.823.11c-1.663 0-2.679-1.111-2.679-2.935v-.01c0-1.82 1.021-2.935 2.679-2.935 1.652 0 2.674 1.11 2.674 2.935v.01c0 1.824-1.017 2.935-2.674 2.935Zm0-.944c.969 0 1.522-.74 1.522-1.991v-.01c0-1.257-.553-1.992-1.522-1.992-.975 0-1.522.735-1.522 1.992v.01c0 1.256.547 1.991 1.522 1.991Zm4.024.834v-5.661h1.131v.855h.083c.203-.599.73-.954 1.486-.954.182 0 .38.026.495.053v1.042a2.93 2.93 0 0 0-.61-.068c-.865 0-1.454.532-1.454 1.35v3.383h-1.131Zm4.357 0v-5.661h1.131v.871h.084c.25-.62.802-.98 1.543-.98.771 0 1.318.401 1.569 1.011h.088c.287-.61.938-1.011 1.725-1.011 1.142 0 1.809.688 1.809 1.866v3.904h-1.126v-3.633c0-.782-.354-1.168-1.094-1.168-.72 0-1.194.537-1.194 1.22v3.581h-1.126v-3.748c0-.646-.422-1.053-1.089-1.053-.683 0-1.189.584-1.189 1.324v3.477h-1.131Zm11.587.11c-1.365 0-2.23-.642-2.34-1.59v-.005h1.131l.005.005c.141.427.553.714 1.225.714.699 0 1.183-.318 1.183-.782v-.01c0-.355-.265-.595-.922-.746l-.902-.208c-1.068-.245-1.564-.73-1.564-1.559v-.005c0-.985.918-1.694 2.2-1.694 1.293 0 2.121.646 2.221 1.569v.005h-1.079v-.01c-.11-.396-.511-.694-1.147-.694-.62 0-1.069.308-1.069.761v.011c0 .354.261.573.897.724l.896.204c1.09.255 1.611.719 1.611 1.537v.011c0 1.047-1.001 1.762-2.346 1.762Z"/><rect width="14.182" height="14.182" x="239.195" y="193.101" fill="#fff" rx="3.279"/><rect width="14.182" height="14.182" x="239.195" y="193.101" stroke="#E2EAF1" stroke-width="1.067" rx="3.279"/><circle cx="270.686" cy="200.193" r="4.575" fill="#1D977A"/><path fill="#5D778D" fill-rule="evenodd" d="M290.825 197.837a.635.635 0 0 1 .898 0l3.363 3.363 3.364-3.363a.635.635 0 1 1 .898.899l-3.812 3.812a.636.636 0 0 1-.899 0l-3.812-3.812a.634.634 0 0 1 0-.899Z" clip-rule="evenodd"/><path fill="#394C5E" d="M313.998 203.75c-2.09 0-3.393-1.512-3.393-3.935v-.011c0-2.429 1.298-3.94 3.388-3.94 1.658 0 2.93 1.047 3.128 2.543l-.006.026h-1.157v-.015c-.219-.923-.974-1.522-1.965-1.522-1.35 0-2.194 1.12-2.194 2.908v.011c0 1.782.844 2.903 2.199 2.903.996 0 1.741-.532 1.955-1.381l.01-.021h1.158v.031c-.219 1.444-1.444 2.403-3.123 2.403Zm4.582-.182v-7.882h1.131v3.081h.084c.276-.605.818-.97 1.641-.97 1.267 0 1.966.756 1.966 2.106v3.665h-1.126v-3.399c0-.938-.391-1.402-1.22-1.402s-1.345.568-1.345 1.48v3.321h-1.131Zm6.401 0v-5.661h1.131v.855h.083c.204-.6.73-.954 1.486-.954.182 0 .38.026.495.052v1.042a3 3 0 0 0-.61-.067c-.865 0-1.454.531-1.454 1.35v3.383h-1.131Zm4.863-6.672a.709.709 0 0 1-.709-.704.71.71 0 0 1 1.418 0 .712.712 0 0 1-.709.704Zm-.568 6.672v-5.661h1.126v5.661h-1.126Zm4.832.109c-1.366 0-2.231-.641-2.341-1.59v-.005h1.132l.005.005c.14.428.552.714 1.225.714.698 0 1.183-.318 1.183-.782v-.01c0-.354-.266-.594-.923-.745l-.901-.209c-1.069-.245-1.564-.73-1.564-1.558v-.006c0-.985.917-1.694 2.199-1.694 1.293 0 2.122.647 2.221 1.569v.006h-1.079v-.011c-.11-.396-.511-.693-1.147-.693-.62 0-1.068.307-1.068.761v.01c0 .355.26.574.896.725l.897.203c1.089.256 1.61.719 1.61 1.538v.01c0 1.048-1 1.762-2.345 1.762Zm5.791-.073c-1.246 0-1.757-.438-1.757-1.527v-3.279h-.886v-.891h.886v-1.428h1.152v1.428h1.215v.891h-1.215v3.008c0 .61.229.86.787.86.172 0 .271-.005.428-.021v.902a3.657 3.657 0 0 1-.61.057Zm1.928-.036v-5.661h1.131v.87h.084c.25-.62.803-.98 1.543-.98.771 0 1.318.402 1.569 1.012h.088c.287-.61.939-1.012 1.726-1.012 1.141 0 1.808.688 1.808 1.866v3.905h-1.126v-3.633c0-.782-.354-1.168-1.094-1.168-.72 0-1.194.537-1.194 1.22v3.581h-1.126v-3.748c0-.646-.422-1.053-1.089-1.053-.683 0-1.189.584-1.189 1.324v3.477h-1.131Zm11.082.093c-1.079 0-1.877-.656-1.877-1.683v-.011c0-1.011.761-1.6 2.111-1.683l1.533-.089v-.5c0-.621-.391-.965-1.157-.965-.626 0-1.037.23-1.173.631l-.005.021h-1.09l.006-.036c.135-.928 1.026-1.549 2.314-1.549 1.423 0 2.226.709 2.226 1.898v3.873h-1.121v-.803h-.089c-.333.573-.927.896-1.678.896Zm-.751-1.73c0 .521.443.829 1.053.829.845 0 1.465-.553 1.465-1.283v-.484l-1.381.088c-.782.047-1.137.329-1.137.839v.011Zm7.293 1.746c-1.366 0-2.231-.641-2.341-1.59v-.005h1.131l.005.005c.141.428.553.714 1.225.714.699 0 1.184-.318 1.184-.782v-.01c0-.354-.266-.594-.923-.745l-.902-.209c-1.068-.245-1.563-.73-1.563-1.558v-.006c0-.985.917-1.694 2.199-1.694 1.293 0 2.122.647 2.221 1.569v.006h-1.079v-.011c-.11-.396-.511-.693-1.147-.693-.62 0-1.069.307-1.069.761v.01c0 .355.261.574.897.725l.896.203c1.09.256 1.611.719 1.611 1.538v.01c0 1.048-1.001 1.762-2.345 1.762Zm9.83.073c-2.09 0-3.393-1.512-3.393-3.935v-.011c0-2.429 1.298-3.94 3.388-3.94 1.657 0 2.929 1.047 3.127 2.543l-.005.026h-1.157v-.015c-.219-.923-.975-1.522-1.965-1.522-1.35 0-2.195 1.12-2.195 2.908v.011c0 1.782.845 2.903 2.2 2.903.996 0 1.741-.532 1.955-1.381l.01-.021h1.157v.031c-.219 1.444-1.444 2.403-3.122 2.403Zm6.083-.089c-1.079 0-1.876-.656-1.876-1.683v-.011c0-1.011.761-1.6 2.111-1.683l1.532-.089v-.5c0-.621-.391-.965-1.157-.965-.626 0-1.037.23-1.173.631l-.005.021h-1.09l.006-.036c.135-.928 1.026-1.549 2.314-1.549 1.423 0 2.226.709 2.226 1.898v3.873h-1.121v-.803h-.089c-.333.573-.927.896-1.678.896Zm-.751-1.73c0 .521.443.829 1.053.829.845 0 1.465-.553 1.465-1.283v-.484l-1.381.088c-.782.047-1.137.329-1.137.839v.011Zm5.234 1.637v-5.661h1.131v.87h.083c.25-.62.803-.98 1.543-.98.771 0 1.319.402 1.569 1.012h.089c.286-.61.938-1.012 1.725-1.012 1.141 0 1.809.688 1.809 1.866v3.905h-1.126v-3.633c0-.782-.355-1.168-1.095-1.168-.719 0-1.194.537-1.194 1.22v3.581h-1.125v-3.748c0-.646-.423-1.053-1.09-1.053-.683 0-1.188.584-1.188 1.324v3.477h-1.131Zm9.528 1.886v-7.547h1.131v.891h.083c.329-.62.949-.99 1.741-.99 1.429 0 2.346 1.141 2.346 2.924v.01c0 1.794-.907 2.919-2.346 2.919-.776 0-1.438-.38-1.741-.99h-.083v2.783h-1.131Zm2.637-2.757c.944 0 1.512-.74 1.512-1.955v-.01c0-1.22-.568-1.955-1.512-1.955-.943 0-1.527.746-1.527 1.955v.01c0 1.21.584 1.955 1.527 1.955Zm5.578.964c-1.079 0-1.877-.656-1.877-1.683v-.011c0-1.011.761-1.6 2.111-1.683l1.533-.089v-.5c0-.621-.391-.965-1.157-.965-.626 0-1.038.23-1.173.631l-.006.021h-1.089l.005-.036c.136-.928 1.027-1.549 2.315-1.549 1.423 0 2.225.709 2.225 1.898v3.873h-1.12v-.803h-.089c-.334.573-.928.896-1.678.896Zm-.751-1.73c0 .521.443.829 1.053.829.844 0 1.465-.553 1.465-1.283v-.484l-1.382.088c-.781.047-1.136.329-1.136.839v.011Zm5.822-5.035a.709.709 0 0 1-.709-.704.71.71 0 0 1 1.418 0 .712.712 0 0 1-.709.704Zm-.568 6.672v-5.661h1.126v5.661h-1.126Zm5.166 1.996c-1.439 0-2.325-.631-2.461-1.574l.011-.011h1.141l.006.011c.093.391.552.667 1.318.667.933 0 1.486-.438 1.486-1.209v-1.116h-.084c-.344.615-.969.959-1.746.959-1.454 0-2.351-1.12-2.351-2.715v-.011c0-1.616.902-2.757 2.372-2.757.792 0 1.407.391 1.736 1.027h.068v-.928h1.125v5.546c0 1.287-1.016 2.111-2.621 2.111Zm-.016-3.206c.959 0 1.538-.729 1.538-1.788v-.01c0-1.053-.584-1.793-1.538-1.793-.964 0-1.506.74-1.506 1.793v.01c0 1.053.542 1.788 1.506 1.788Zm4.264 1.21v-5.661h1.131v.86h.083c.277-.605.819-.97 1.642-.97 1.267 0 1.965.756 1.965 2.106v3.665h-1.126v-3.399c0-.938-.391-1.402-1.219-1.402-.829 0-1.345.568-1.345 1.48v3.321h-1.131Z"/><rect width="45.2" height="22.625" x="526.886" y="188.88" fill="#D0F4EC" rx="7.625"/><path fill="#1D977A" d="m533.357 203.693 2.668-7.522h1.517l2.669 7.522h-1.407l-.631-1.945h-2.784l-.625 1.945h-1.407Zm3.382-6.125-1.011 3.143h2.111l-1.011-3.143h-.089Zm6.761 6.239c-1.715 0-2.726-1.11-2.726-2.971v-.01c0-1.84 1.006-2.94 2.721-2.94 1.464 0 2.34.813 2.486 1.991v.021h-1.225l-.005-.016c-.12-.552-.542-.948-1.251-.948-.886 0-1.407.698-1.407 1.892v.01c0 1.21.526 1.918 1.407 1.918.672 0 1.084-.307 1.246-.907l.01-.02 1.225-.006-.01.042c-.188 1.168-1.027 1.944-2.471 1.944Zm6.031-.088c-1.309 0-1.846-.438-1.846-1.538v-3.18h-.886v-1.006h.886v-1.396h1.319v1.396h1.204v1.006h-1.204v2.873c0 .568.224.807.766.807.183 0 .282-.005.438-.02v1a3.635 3.635 0 0 1-.677.058Zm2.637-6.677a.77.77 0 0 1-.777-.767c0-.422.35-.766.777-.766.422 0 .772.344.772.766a.77.77 0 0 1-.772.767Zm-.651 6.651v-5.698h1.297v5.698h-1.297Zm4.425 0-2.028-5.698h1.387l1.318 4.431h.089l1.308-4.431h1.366l-2.017 5.698h-1.423Zm6.745.114c-1.694 0-2.721-1.136-2.721-2.95v-.005c0-1.793 1.037-2.966 2.658-2.966s2.622 1.136 2.622 2.856v.428h-3.982c.015 1.021.568 1.616 1.449 1.616.703 0 1.105-.355 1.23-.615l.016-.037h1.235l-.016.047c-.182.735-.943 1.626-2.491 1.626Zm-.047-4.905c-.725 0-1.267.49-1.366 1.397h2.705c-.088-.933-.615-1.397-1.339-1.397Z"/><rect width="15.25" height="15.25" x="608.474" y="192.568" fill="#EFF4F8" rx="2.288"/><path fill="#5D778D" d="M613.62 196.795c0 .593-.515 1.075-1.15 1.075-.635 0-1.149-.482-1.149-1.075 0-.594.514-1.076 1.149-1.076s1.15.482 1.15 1.076ZM611.478 198.66h1.965v5.955h-1.965v-5.955ZM616.607 198.66h-1.965v5.955h1.965v-3.047c0-.703.24-1.41 1.199-1.41 1.083 0 1.076.921 1.071 1.634-.006.932.01 1.884.01 2.823h1.965v-3.143c-.017-2.007-.54-2.931-2.26-2.931-1.022 0-1.655.463-1.985.883v-.764Z"/><path fill="#E2EAF1" d="M1098.76 224.593H223.412v1.525h875.348v-1.525Z" mask="url(#path-53-inside-2_0_2098)"/><rect width="14.182" height="14.182" x="239.195" y="243.426" fill="#fff" rx="3.279"/><rect width="14.182" height="14.182" x="239.195" y="243.426" stroke="#E2EAF1" stroke-width="1.067" rx="3.279"/><circle cx="270.686" cy="250.518" r="4.575" fill="#955011"/><path fill="#5D778D" fill-rule="evenodd" d="M290.824 248.162a.636.636 0 0 1 .899 0l3.363 3.363 3.363-3.363a.636.636 0 0 1 .899.899l-3.812 3.812a.636.636 0 0 1-.899 0l-3.813-3.812a.636.636 0 0 1 0-.899Z" clip-rule="evenodd"/><path fill="#394C5E" d="M310.913 253.893v-7.522h3.023c1.412 0 2.262.719 2.262 1.871v.011c0 .782-.579 1.485-1.319 1.61v.089c1.017.109 1.694.829 1.694 1.809v.01c0 1.319-.964 2.122-2.57 2.122h-3.09Zm2.752-6.568h-1.585v2.247h1.387c1.032 0 1.569-.386 1.569-1.116v-.01c0-.709-.506-1.121-1.371-1.121Zm.036 3.138h-1.621v2.476h1.689c1.053 0 1.611-.433 1.611-1.241v-.01c0-.808-.579-1.225-1.679-1.225Zm4.295 3.43v-7.882h1.131v7.882h-1.131Zm4.368.093c-1.079 0-1.876-.656-1.876-1.683v-.011c0-1.011.761-1.6 2.111-1.683l1.532-.089v-.5c0-.62-.391-.965-1.157-.965-.625 0-1.037.23-1.173.631l-.005.021h-1.089l.005-.036c.135-.928 1.027-1.549 2.314-1.549 1.423 0 2.226.709 2.226 1.898v3.873h-1.121v-.803h-.088c-.334.573-.928.896-1.679.896Zm-.75-1.73c0 .521.443.829 1.052.829.845 0 1.465-.553 1.465-1.283v-.484l-1.381.088c-.782.047-1.136.329-1.136.839v.011Zm7.615 1.746c-1.652 0-2.664-1.126-2.664-2.955v-.011c0-1.793 1.006-2.914 2.659-2.914 1.423 0 2.272.803 2.429 1.903v.026l-1.085.005-.005-.015c-.125-.558-.584-.975-1.334-.975-.944 0-1.512.751-1.512 1.97v.011c0 1.251.579 2.012 1.512 2.012.709 0 1.147-.324 1.329-.933l.01-.026h1.085l-.011.046c-.203 1.1-1.011 1.856-2.413 1.856Zm3.758-.109v-7.882h1.131v4.608h.084l2.246-2.387h1.324l-2.361 2.387 2.517 3.274h-1.376l-1.949-2.544-.485.485v2.059h-1.131Zm9.023 0v-7.522h4.696v1.006h-3.529v2.382h3.232v.985h-3.232v3.149h-1.167Zm6.083 0v-5.661h1.131v.855h.083c.203-.6.73-.954 1.486-.954.182 0 .38.026.495.052v1.043a2.93 2.93 0 0 0-.61-.068c-.865 0-1.454.531-1.454 1.35v3.383h-1.131Zm4.863-6.672a.709.709 0 0 1-.709-.704.71.71 0 0 1 .709-.709c.385 0 .709.318.709.709a.713.713 0 0 1-.709.704Zm-.568 6.672v-5.661h1.125v5.661h-1.125Zm4.837.093c-1.423 0-2.346-1.141-2.346-2.919v-.01c0-1.793.907-2.924 2.346-2.924.776 0 1.438.386 1.741.995h.088v-3.117h1.126v7.882h-1.126v-.892h-.088c-.329.621-.949.985-1.741.985Zm.323-.964c.943 0 1.522-.745 1.522-1.955v-.01c0-1.209-.584-1.955-1.522-1.955-.949 0-1.517.741-1.517 1.955v.01c0 1.215.568 1.955 1.517 1.955Zm5.869.964c-1.079 0-1.876-.656-1.876-1.683v-.011c0-1.011.761-1.6 2.111-1.683l1.532-.089v-.5c0-.62-.391-.965-1.157-.965-.626 0-1.037.23-1.173.631l-.005.021h-1.089l.005-.036c.135-.928 1.027-1.549 2.314-1.549 1.423 0 2.226.709 2.226 1.898v3.873h-1.121v-.803h-.089c-.333.573-.927.896-1.678.896Zm-.751-1.73c0 .521.444.829 1.053.829.845 0 1.465-.553 1.465-1.283v-.484l-1.381.088c-.782.047-1.137.329-1.137.839v.011Zm5.599 3.628c-.141 0-.308-.011-.454-.026v-.892c.11.016.25.021.381.021.526 0 .844-.224 1.011-.797l.083-.292-2.053-5.666h1.219l1.418 4.524h.099l1.413-4.524h1.188l-2.106 5.88c-.479 1.35-1.053 1.772-2.199 1.772Z"/><rect width="61.2" height="22.625" x="450.436" y="239.205" fill="#F2F2FD" rx="7.625"/><path fill="#6464C6" d="M457.464 254.018v-7.522h1.345v7.522h-1.345Zm3.065 0v-5.698h1.298v.887h.088c.245-.636.819-.996 1.564-.996.772 0 1.335.396 1.58 1.027h.088c.276-.62.933-1.027 1.725-1.027 1.147 0 1.835.704 1.835 1.887v3.92h-1.298v-3.602c0-.74-.338-1.116-1.032-1.116-.677 0-1.115.506-1.115 1.158v3.56h-1.298v-3.696c0-.631-.391-1.022-1.027-1.022-.641 0-1.11.542-1.11 1.251v3.467h-1.298Zm9.716 1.892v-7.59h1.298v.892h.088c.313-.621.933-.985 1.731-.985 1.428 0 2.34 1.136 2.34 2.939v.011c0 1.814-.896 2.934-2.34 2.934-.782 0-1.434-.385-1.731-1h-.088v2.799h-1.298Zm2.71-2.893c.886 0 1.423-.699 1.423-1.84v-.011c0-1.146-.537-1.845-1.423-1.845-.881 0-1.428.699-1.428 1.84v.011c0 1.141.547 1.845 1.428 1.845Zm6.516 1.115c-1.71 0-2.742-1.115-2.742-2.96v-.011c0-1.829 1.048-2.95 2.742-2.95 1.699 0 2.742 1.115 2.742 2.95v.011c0 1.845-1.038 2.96-2.742 2.96Zm0-1.053c.902 0 1.412-.703 1.412-1.902v-.011c0-1.198-.516-1.907-1.412-1.907-.902 0-1.418.709-1.418 1.907v.011c0 1.199.516 1.902 1.418 1.902Zm4.045.939v-5.698h1.298v.876h.088c.193-.61.714-.969 1.465-.969a2.1 2.1 0 0 1 .526.062v1.163a3.244 3.244 0 0 0-.646-.073c-.865 0-1.433.516-1.433 1.329v3.31h-1.298Zm6.943.026c-1.309 0-1.846-.438-1.846-1.538v-3.18h-.886v-1.006h.886v-1.396h1.319v1.396h1.204v1.006h-1.204v2.872c0 .569.224.808.766.808.183 0 .282-.005.438-.02v1a3.635 3.635 0 0 1-.677.058Zm4.357.088c-1.694 0-2.721-1.136-2.721-2.95v-.005c0-1.793 1.038-2.966 2.659-2.966 1.621 0 2.621 1.136 2.621 2.856v.428h-3.982c.016 1.021.568 1.616 1.449 1.616.704 0 1.105-.355 1.23-.615l.016-.037h1.235l-.015.047c-.183.735-.944 1.626-2.492 1.626Zm-.047-4.905c-.724 0-1.266.49-1.365 1.397h2.705c-.089-.933-.615-1.397-1.34-1.397Zm5.958 4.884c-1.428 0-2.335-1.131-2.335-2.934v-.011c0-1.813.891-2.939 2.335-2.939.782 0 1.433.385 1.731 1h.088v-3.111h1.303v7.902h-1.303v-.892h-.088c-.313.621-.928.985-1.731.985Zm.407-1.094c.886 0 1.433-.699 1.433-1.84v-.011c0-1.141-.553-1.845-1.433-1.845-.881 0-1.423.699-1.423 1.845v.011c0 1.147.536 1.84 1.423 1.84Z"/><rect width="45.2" height="22.625" x="526.886" y="239.205" fill="#D0F4EC" rx="7.625"/><path fill="#1D977A" d="m533.356 254.018 2.669-7.522h1.517l2.669 7.522h-1.408l-.63-1.945h-2.784l-.625 1.945h-1.408Zm3.383-6.125-1.011 3.143h2.111l-1.011-3.143h-.089Zm6.761 6.239c-1.715 0-2.726-1.11-2.726-2.971v-.01c0-1.84 1.006-2.94 2.721-2.94 1.464 0 2.34.813 2.486 1.991v.021h-1.225l-.005-.016c-.12-.552-.542-.948-1.251-.948-.886 0-1.408.698-1.408 1.892v.01c0 1.209.527 1.918 1.408 1.918.672 0 1.084-.307 1.246-.907l.01-.02 1.225-.006-.011.042c-.187 1.168-1.026 1.944-2.47 1.944Zm6.031-.088c-1.309 0-1.846-.438-1.846-1.538v-3.18h-.886v-1.006h.886v-1.396h1.319v1.396h1.204v1.006h-1.204v2.872c0 .569.224.808.766.808.183 0 .282-.005.438-.02v1a3.635 3.635 0 0 1-.677.058Zm2.637-6.677a.77.77 0 0 1-.777-.767.774.774 0 0 1 1.548 0 .769.769 0 0 1-.771.767Zm-.652 6.651v-5.698h1.298v5.698h-1.298Zm4.426 0-2.028-5.698h1.387l1.318 4.431h.089l1.308-4.431h1.366l-2.017 5.698h-1.423Zm6.745.114c-1.694 0-2.721-1.136-2.721-2.95v-.005c0-1.793 1.037-2.966 2.658-2.966s2.622 1.136 2.622 2.856v.428h-3.982c.015 1.021.568 1.616 1.449 1.616.703 0 1.105-.355 1.23-.615l.015-.037h1.236l-.016.047c-.182.735-.943 1.626-2.491 1.626Zm-.047-4.905c-.725 0-1.267.49-1.366 1.397h2.705c-.088-.933-.615-1.397-1.339-1.397Z"/><g clip-path="url(#l)"><rect width="15.25" height="15.25" x="608.474" y="242.893" fill="#EFF4F8" rx="2.288"/><path fill="#5D778D" d="M616.099 245.434c1.181 0 2.267.403 3.13 1.079.276.215.274.619.028.867l-.579.583c-.249.251-.653.243-.949.05a2.99 2.99 0 0 0-4.439 3.526 2.988 2.988 0 0 0 4.55 1.408l1.667 1.343a5.083 5.083 0 1 1-3.408-8.856Z"/><path fill="#5D778D" d="M620.557 249.464c.301 0 .564.21.596.509a5.164 5.164 0 0 1 .002 1.073 5.077 5.077 0 0 1-1.648 3.244l-1.665-1.345a3 3 0 0 0 1.059-1.386h-2.136a.636.636 0 0 1-.636-.635v-.825c0-.351.285-.635.636-.635h3.792Z"/></g><g clip-path="url(#m)"><rect width="15.25" height="15.25" x="626.774" y="242.893" fill="#EFF4F8" rx="2.288"/><path fill="#5D778D" d="M633.763 246.05c0-.201 0-.301-.04-.373a.317.317 0 0 0-.16-.14c-.077-.031-.177-.017-.375.009l-3.093.414c-.141.019-.279.037-.396.062a1.3 1.3 0 0 0-.428.165c-.207.132-.372.32-.475.543a1.275 1.275 0 0 0-.107.446c-.009.119-.009.259-.009.4v1.798c0 .178 0 .267.035.335.03.06.079.108.139.139.067.034.156.034.334.034h4.067c.178 0 .267 0 .335-.034a.322.322 0 0 0 .139-.139c.034-.068.034-.157.034-.335v-3.324ZM633.763 251.661c0-.178 0-.267-.034-.335a.32.32 0 0 0-.139-.138c-.068-.035-.157-.035-.335-.035h-4.067c-.178 0-.267 0-.334.035a.314.314 0 0 0-.139.138c-.035.068-.035.157-.035.335v1.798c0 .141 0 .281.009.401.01.132.034.287.107.445.103.223.268.412.475.543.148.093.298.138.428.165.117.025.255.044.396.062l3.093.414c.198.027.298.04.375.009a.317.317 0 0 0 .16-.14c.04-.072.04-.172.04-.373v-3.324ZM635.475 255.795c-.156-.021-.234-.031-.293-.069a.312.312 0 0 1-.119-.135c-.029-.063-.029-.142-.029-.3v-3.63c0-.178 0-.267.035-.335a.314.314 0 0 1 .139-.138c.068-.035.157-.035.335-.035h4.066c.178 0 .267 0 .335.035a.32.32 0 0 1 .139.138c.035.068.035.157.035.335v2.889c0 .182 0 .356-.013.502a1.282 1.282 0 0 1-.15.533 1.267 1.267 0 0 1-.639.56c-.198.079-.39.085-.549.078a6.325 6.325 0 0 1-.499-.054l-2.793-.374ZM635.543 249.882c-.178 0-.267 0-.335-.034a.317.317 0 0 1-.139-.139c-.035-.068-.035-.157-.035-.335v-3.63c0-.158 0-.236.029-.3a.323.323 0 0 1 .119-.135c.059-.038.137-.048.293-.069l2.793-.373c.18-.025.353-.048.499-.055.159-.007.351 0 .549.078.271.108.497.305.639.56.104.186.137.375.15.533.013.146.013.32.013.502v2.889c0 .178 0 .267-.035.335a.322.322 0 0 1-.139.139c-.068.034-.157.034-.335.034h-4.066Z"/></g><path fill="#E2EAF1" d="M1098.76 274.918H223.411v1.525h875.349v-1.525Z" mask="url(#path-63-inside-3_0_2098)"/><rect width="14.182" height="14.182" x="239.195" y="293.751" fill="#fff" rx="3.279"/><rect width="14.182" height="14.182" x="239.195" y="293.751" stroke="#E2EAF1" stroke-width="1.067" rx="3.279"/><circle cx="270.686" cy="300.843" r="4.575" fill="#955011"/><path fill="#5D778D" fill-rule="evenodd" d="M290.824 298.487a.636.636 0 0 1 .899 0l3.363 3.363 3.363-3.363a.636.636 0 0 1 .899.899l-3.812 3.812a.636.636 0 0 1-.899 0l-3.813-3.812a.636.636 0 0 1 0-.899Z" clip-rule="evenodd"/><path fill="#394C5E" d="M309.755 304.343v-7.522h3.023c1.412 0 2.262.719 2.262 1.871v.011c0 .782-.578 1.485-1.319 1.61v.089c1.017.11 1.694.829 1.694 1.809v.01c0 1.319-.964 2.122-2.569 2.122h-3.091Zm2.752-6.568h-1.585v2.247h1.387c1.032 0 1.569-.386 1.569-1.116v-.01c0-.709-.506-1.121-1.371-1.121Zm.036 3.138h-1.621v2.476h1.689c1.053 0 1.611-.433 1.611-1.241v-.01c0-.808-.579-1.225-1.679-1.225Zm5.797 3.523c-1.079 0-1.877-.656-1.877-1.683v-.011c0-1.011.761-1.6 2.111-1.683l1.533-.089v-.5c0-.62-.391-.964-1.158-.964-.625 0-1.037.229-1.172.63l-.006.021h-1.089l.005-.036c.136-.928 1.027-1.548 2.315-1.548 1.422 0 2.225.708 2.225 1.897v3.873h-1.12v-.803h-.089c-.334.573-.928.896-1.678.896Zm-.751-1.73c0 .521.443.829 1.053.829.844 0 1.465-.553 1.465-1.283v-.484l-1.382.088c-.782.047-1.136.329-1.136.84v.01Zm7.615 1.746c-1.652 0-2.663-1.126-2.663-2.955v-.011c0-1.793 1.006-2.913 2.658-2.913 1.423 0 2.273.802 2.429 1.902v.026l-1.084.005-.005-.015c-.125-.558-.584-.975-1.335-.975-.943 0-1.511.751-1.511 1.97v.011c0 1.251.578 2.012 1.511 2.012.709 0 1.147-.324 1.329-.933l.011-.026h1.084l-.01.046c-.204 1.1-1.012 1.856-2.414 1.856Zm3.758-.109v-7.882h1.132v4.608h.083l2.246-2.387h1.324l-2.361 2.387 2.518 3.274h-1.376l-1.95-2.544-.484.485v2.059h-1.132Zm5.51-2.513v-1.037h3.487v1.037h-3.487Zm7.063 2.549c-1.246 0-1.757-.438-1.757-1.527v-3.279h-.886v-.891h.886v-1.428h1.152v1.428h1.215v.891h-1.215v3.008c0 .61.229.86.787.86.172 0 .271-.005.428-.021v.902a3.657 3.657 0 0 1-.61.057Zm4.263.073c-1.662 0-2.679-1.11-2.679-2.934v-.011c0-1.819 1.022-2.934 2.679-2.934 1.653 0 2.674 1.11 2.674 2.934v.011c0 1.824-1.016 2.934-2.674 2.934Zm0-.943c.97 0 1.522-.74 1.522-1.991v-.011c0-1.256-.552-1.991-1.522-1.991-.974 0-1.522.735-1.522 1.991v.011c0 1.256.548 1.991 1.522 1.991Zm4.009-1.679v-1.037h3.487v1.037h-3.487Zm7.162 2.622c-1.366 0-2.231-.641-2.341-1.59v-.005h1.131l.006.005c.14.428.552.714 1.225.714.698 0 1.183-.318 1.183-.781v-.011c0-.354-.266-.594-.923-.745l-.902-.209c-1.068-.245-1.563-.729-1.563-1.558v-.005c0-.986.917-1.694 2.199-1.694 1.293 0 2.122.646 2.221 1.568v.006h-1.079v-.011c-.11-.396-.511-.693-1.147-.693-.62 0-1.068.308-1.068.761v.01c0 .355.26.574.896.725l.897.203c1.089.256 1.61.72 1.61 1.538v.01c0 1.048-1.001 1.762-2.345 1.762Zm6.077 0c-1.652 0-2.663-1.126-2.663-2.955v-.011c0-1.793 1.006-2.913 2.658-2.913 1.423 0 2.273.802 2.429 1.902v.026l-1.084.005-.005-.015c-.125-.558-.584-.975-1.335-.975-.943 0-1.511.751-1.511 1.97v.011c0 1.251.578 2.012 1.511 2.012.709 0 1.147-.324 1.329-.933l.011-.026h1.084l-.01.046c-.204 1.1-1.012 1.856-2.414 1.856Zm3.758-.109v-7.882h1.132v3.081h.083c.276-.605.818-.969 1.642-.969 1.266 0 1.965.755 1.965 2.105v3.665H370.5v-3.399c0-.938-.391-1.402-1.22-1.402-.828 0-1.344.568-1.344 1.48v3.321h-1.132Zm8.799.109c-1.663 0-2.679-1.11-2.679-2.934v-.011c0-1.819 1.021-2.934 2.679-2.934 1.652 0 2.674 1.11 2.674 2.934v.011c0 1.824-1.016 2.934-2.674 2.934Zm0-.943c.969 0 1.522-.74 1.522-1.991v-.011c0-1.256-.553-1.991-1.522-1.991-.975 0-1.522.735-1.522 1.991v.011c0 1.256.547 1.991 1.522 1.991Zm6.422.943c-1.663 0-2.68-1.11-2.68-2.934v-.011c0-1.819 1.022-2.934 2.68-2.934 1.652 0 2.674 1.11 2.674 2.934v.011c0 1.824-1.017 2.934-2.674 2.934Zm0-.943c.969 0 1.522-.74 1.522-1.991v-.011c0-1.256-.553-1.991-1.522-1.991-.975 0-1.522.735-1.522 1.991v.011c0 1.256.547 1.991 1.522 1.991Zm4.076.834v-7.882h1.131v7.882h-1.131Zm7.792.109c-1.365 0-2.231-.641-2.34-1.59v-.005h1.131l.005.005c.141.428.553.714 1.225.714.699 0 1.183-.318 1.183-.781v-.011c0-.354-.265-.594-.922-.745l-.902-.209c-1.069-.245-1.564-.729-1.564-1.558v-.005c0-.986.918-1.694 2.2-1.694 1.293 0 2.121.646 2.22 1.568v.006h-1.079v-.011c-.109-.396-.51-.693-1.146-.693-.621 0-1.069.308-1.069.761v.01c0 .355.261.574.897.725l.896.203c1.09.256 1.611.72 1.611 1.538v.01c0 1.048-1.001 1.762-2.346 1.762Zm6.073 0c-1.658 0-2.659-1.131-2.659-2.924v-.005c0-1.767 1.022-2.95 2.601-2.95 1.58 0 2.549 1.141 2.549 2.84v.396h-4.013c.021 1.085.615 1.715 1.548 1.715.724 0 1.157-.359 1.293-.651l.02-.042 1.09-.005-.011.047c-.187.745-.969 1.579-2.418 1.579Zm-.052-4.952c-.772 0-1.356.527-1.455 1.502h2.878c-.089-1.012-.657-1.502-1.423-1.502Zm5.441 4.936c-1.079 0-1.876-.656-1.876-1.683v-.011c0-1.011.761-1.6 2.111-1.683l1.532-.089v-.5c0-.62-.391-.964-1.157-.964-.625 0-1.037.229-1.173.63l-.005.021h-1.089l.005-.036c.136-.928 1.027-1.548 2.314-1.548 1.423 0 2.226.708 2.226 1.897v3.873h-1.121v-.803h-.088c-.334.573-.928.896-1.679.896Zm-.75-1.73c0 .521.443.829 1.053.829.844 0 1.464-.553 1.464-1.283v-.484l-1.381.088c-.782.047-1.136.329-1.136.84v.01Zm7.292 1.746c-1.366 0-2.231-.641-2.34-1.59v-.005h1.131l.005.005c.141.428.552.714 1.225.714.698 0 1.183-.318 1.183-.781v-.011c0-.354-.266-.594-.923-.745l-.901-.209c-1.069-.245-1.564-.729-1.564-1.558v-.005c0-.986.917-1.694 2.2-1.694 1.292 0 2.121.646 2.22 1.568v.006h-1.079v-.011c-.109-.396-.511-.693-1.147-.693-.62 0-1.068.308-1.068.761v.01c0 .355.26.574.896.725l.897.203c1.089.256 1.611.72 1.611 1.538v.01c0 1.048-1.001 1.762-2.346 1.762Zm6.093 0c-1.663 0-2.679-1.11-2.679-2.934v-.011c0-1.819 1.022-2.934 2.679-2.934 1.653 0 2.674 1.11 2.674 2.934v.011c0 1.824-1.016 2.934-2.674 2.934Zm0-.943c.97 0 1.522-.74 1.522-1.991v-.011c0-1.256-.552-1.991-1.522-1.991-.974 0-1.522.735-1.522 1.991v.011c0 1.256.548 1.991 1.522 1.991Zm4.024.834v-5.661h1.131v.86h.084c.276-.605.818-.969 1.642-.969 1.266 0 1.965.755 1.965 2.105v3.665h-1.126v-3.399c0-.938-.391-1.402-1.22-1.402s-1.345.568-1.345 1.48v3.321h-1.131Zm12.536.182c-2.09 0-3.393-1.512-3.393-3.935v-.011c0-2.429 1.298-3.94 3.388-3.94 1.657 0 2.929 1.047 3.127 2.543l-.005.026h-1.157v-.015c-.219-.923-.975-1.522-1.965-1.522-1.35 0-2.195 1.12-2.195 2.908v.011c0 1.782.845 2.903 2.2 2.903.996 0 1.741-.532 1.955-1.381l.01-.021h1.157v.031c-.219 1.444-1.444 2.403-3.122 2.403Zm6.083-.089c-1.079 0-1.877-.656-1.877-1.683v-.011c0-1.011.761-1.6 2.111-1.683l1.533-.089v-.5c0-.62-.391-.964-1.157-.964-.626 0-1.037.229-1.173.63l-.005.021h-1.09l.006-.036c.135-.928 1.026-1.548 2.314-1.548 1.423 0 2.226.708 2.226 1.897v3.873H442.4v-.803h-.089c-.333.573-.927.896-1.678.896Zm-.751-1.73c0 .521.443.829 1.053.829.845 0 1.465-.553 1.465-1.283v-.484l-1.381.088c-.782.047-1.137.329-1.137.84v.01Zm5.234 1.637v-5.661h1.131v.87h.083c.25-.62.803-.979 1.543-.979.771 0 1.319.401 1.569 1.011h.088c.287-.61.939-1.011 1.726-1.011 1.141 0 1.809.688 1.809 1.866v3.904h-1.126v-3.633c0-.782-.355-1.168-1.095-1.168-.719 0-1.194.537-1.194 1.22v3.581h-1.125v-3.748c0-.646-.423-1.053-1.09-1.053-.683 0-1.188.584-1.188 1.324v3.477h-1.131Zm9.528 1.887v-7.548h1.131v.891h.083c.329-.62.949-.99 1.741-.99 1.428 0 2.346 1.141 2.346 2.924v.011c0 1.793-.907 2.918-2.346 2.918-.776 0-1.438-.38-1.741-.99h-.083v2.784h-1.131Zm2.637-2.758c.944 0 1.512-.74 1.512-1.954v-.011c0-1.22-.568-1.955-1.512-1.955-.943 0-1.527.746-1.527 1.955v.011c0 1.209.584 1.954 1.527 1.954Zm5.578.964c-1.079 0-1.877-.656-1.877-1.683v-.011c0-1.011.761-1.6 2.111-1.683l1.533-.089v-.5c0-.62-.391-.964-1.158-.964-.625 0-1.037.229-1.172.63l-.006.021h-1.089l.005-.036c.136-.928 1.027-1.548 2.315-1.548 1.423 0 2.225.708 2.225 1.897v3.873h-1.12v-.803h-.089c-.334.573-.928.896-1.678.896Zm-.751-1.73c0 .521.443.829 1.053.829.844 0 1.465-.553 1.465-1.283v-.484l-1.382.088c-.782.047-1.136.329-1.136.84v.01Zm5.822-5.035a.709.709 0 0 1-.709-.704.71.71 0 0 1 1.418 0 .712.712 0 0 1-.709.704Zm-.568 6.672v-5.661h1.126v5.661h-1.126Zm5.166 1.996c-1.439 0-2.325-.631-2.461-1.574l.011-.011h1.141l.006.011c.093.391.552.667 1.318.667.933 0 1.486-.438 1.486-1.209v-1.116h-.084c-.344.615-.969.959-1.746.959-1.454 0-2.351-1.12-2.351-2.715v-.011c0-1.616.902-2.757 2.372-2.757.792 0 1.407.391 1.736 1.027h.068v-.928h1.125v5.546c0 1.287-1.016 2.111-2.621 2.111Zm-.016-3.206c.959 0 1.538-.729 1.538-1.787v-.011c0-1.053-.584-1.793-1.538-1.793-.964 0-1.506.74-1.506 1.793v.011c0 1.052.542 1.787 1.506 1.787Zm4.264 1.21v-5.661h1.131v.86h.083c.276-.605.819-.969 1.642-.969 1.267 0 1.965.755 1.965 2.105v3.665h-1.126v-3.399c0-.938-.391-1.402-1.219-1.402-.829 0-1.345.568-1.345 1.48v3.321h-1.131Z"/><rect width="51.2" height="22.625" x="526.886" y="289.53" fill="#FFEAD6" rx="7.625"/><path fill="#955011" d="M533.914 304.343v-7.522h3.003c1.527 0 2.559 1.006 2.559 2.513v.01c0 1.501-1.032 2.512-2.559 2.512h-1.658v2.487h-1.345Zm2.674-6.422h-1.329v2.851h1.329c.964 0 1.527-.521 1.527-1.423v-.01c0-.902-.563-1.418-1.527-1.418Zm5.583 6.515c-1.085 0-1.872-.667-1.872-1.704v-.01c0-1.017.777-1.611 2.164-1.694l1.464-.089v-.49c0-.568-.37-.881-1.068-.881-.595 0-.98.214-1.111.589l-.005.021h-1.225l.006-.047c.125-.959 1.042-1.595 2.397-1.595 1.465 0 2.288.709 2.288 1.913v3.894h-1.282v-.782h-.088c-.313.552-.918.875-1.668.875Zm-.589-1.767c0 .485.411.772.985.772.782 0 1.36-.511 1.36-1.189v-.458l-1.282.083c-.725.047-1.063.313-1.063.782v.01Zm7.073 1.788c-1.282 0-1.939-.771-1.939-2.126v-3.686h1.298v3.389c0 .88.328 1.329 1.11 1.329.839 0 1.287-.542 1.287-1.397v-3.321h1.298v5.698h-1.298v-.866h-.088c-.266.61-.845.98-1.668.98Zm6.792 0c-1.449 0-2.325-.667-2.435-1.631v-.011h1.288l.005.011c.136.396.516.672 1.162.672.647 0 1.095-.292 1.095-.719v-.01c0-.334-.25-.553-.876-.694l-.922-.208c-1.084-.24-1.6-.751-1.6-1.59v-.005c0-1.027.938-1.736 2.283-1.736 1.386 0 2.215.688 2.298 1.611v.01h-1.219l-.006-.016c-.093-.359-.469-.651-1.079-.651-.578 0-.995.281-.995.709v.005c0 .334.24.537.855.678l.922.203c1.116.25 1.642.724 1.642 1.553v.011c0 1.084-1.016 1.808-2.418 1.808Zm6.166 0c-1.694 0-2.721-1.136-2.721-2.95v-.005c0-1.793 1.037-2.966 2.658-2.966s2.622 1.136 2.622 2.856v.428h-3.982c.016 1.021.568 1.616 1.449 1.616.704 0 1.105-.355 1.23-.615l.016-.037h1.235l-.016.047c-.182.735-.943 1.626-2.491 1.626Zm-.047-4.905c-.725 0-1.267.49-1.366 1.397h2.706c-.089-.933-.615-1.397-1.34-1.397Zm5.958 4.884c-1.428 0-2.335-1.131-2.335-2.934v-.011c0-1.813.891-2.939 2.335-2.939.782 0 1.433.385 1.73 1h.089v-3.111h1.303v7.902h-1.303v-.892h-.089c-.312.621-.928.985-1.73.985Zm.406-1.094c.886 0 1.434-.699 1.434-1.84v-.011c0-1.141-.553-1.845-1.434-1.845-.881 0-1.423.699-1.423 1.845v.011c0 1.147.537 1.84 1.423 1.84Z"/><rect width="15.25" height="15.25" x="608.474" y="293.218" fill="#EFF4F8" rx="2.288"/><path fill="#5D778D" d="M616.929 301.305h1.849l.29-1.878h-2.139V298.4c0-.78.255-1.472.985-1.472h1.173v-1.639c-.206-.028-.642-.089-1.466-.089-1.72 0-2.728.908-2.728 2.978v1.249h-1.768v1.879h1.768v5.163c.35.052.705.088 1.069.088.329 0 .65-.03.967-.073v-5.179Z"/><g clip-path="url(#n)"><rect width="15.25" height="15.25" x="626.774" y="293.218" fill="#EFF4F8" rx="2.288"/><g clip-path="url(#o)"><mask id="p" width="13" height="13" x="627.592" y="294.036" fill="#000" maskUnits="userSpaceOnUse"><path fill="#fff" d="M627.592 294.036h13v13h-13z"/><path d="M631.991 295.076c-.617.029-1.039.128-1.407.273a2.83 2.83 0 0 0-1.027.671 2.83 2.83 0 0 0-.667 1.028c-.143.37-.24.792-.267 1.41-.028.617-.034.816-.031 2.392.003 1.576.01 1.773.04 2.392.03.618.128 1.039.273 1.408.149.382.348.705.671 1.027.323.322.646.519 1.029.667.369.143.792.24 1.409.267.618.027.817.033 2.392.03 1.576-.003 1.774-.01 2.393-.039.619-.029 1.038-.128 1.407-.272.382-.15.705-.349 1.027-.672.321-.323.519-.647.667-1.029.143-.369.24-.791.267-1.408.027-.62.033-.818.03-2.393-.003-1.576-.01-1.774-.039-2.392-.03-.619-.128-1.04-.273-1.409a2.847 2.847 0 0 0-.671-1.026 2.833 2.833 0 0 0-1.029-.667c-.369-.143-.791-.241-1.409-.267-.617-.027-.816-.034-2.392-.031-1.576.003-1.774.01-2.393.04Zm.068 10.491c-.566-.025-.873-.119-1.078-.197a1.815 1.815 0 0 1-.668-.433 1.787 1.787 0 0 1-.435-.667c-.08-.204-.175-.511-.202-1.077-.029-.612-.035-.795-.038-2.344-.003-1.55.003-1.733.029-2.345.024-.565.119-.873.198-1.077.104-.272.23-.465.432-.669.203-.204.396-.329.667-.435.205-.08.511-.175 1.077-.202.612-.029.795-.035 2.344-.038 1.55-.003 1.733.002 2.346.029.565.025.873.119 1.077.198.271.104.464.23.668.433.204.202.33.395.436.666.08.204.175.511.201 1.077.029.612.036.795.039 2.344.003 1.549-.003 1.733-.03 2.345-.024.566-.118.873-.197 1.078a1.79 1.79 0 0 1-.433.668c-.203.204-.396.33-.667.435-.204.08-.511.175-1.076.202-.612.029-.796.035-2.345.038-1.55.004-1.733-.003-2.345-.029m4.731-7.83a.692.692 0 0 0 .431.643.703.703 0 0 0 .759-.152.703.703 0 0 0-.108-1.072.693.693 0 0 0-1.082.581Zm-5.375 3.108a2.98 2.98 0 1 0 5.96-.014 2.98 2.98 0 0 0-5.96.014Zm1.045-.002a1.939 1.939 0 0 1 2.308-1.902 1.933 1.933 0 1 1-1.738 3.268 1.94 1.94 0 0 1-.57-1.366Z"/></mask><path fill="#5D778D" d="M631.991 295.076c-.617.029-1.039.128-1.407.273a2.83 2.83 0 0 0-1.027.671 2.83 2.83 0 0 0-.667 1.028c-.143.37-.24.792-.267 1.41-.028.617-.034.816-.031 2.392.003 1.576.01 1.773.04 2.392.03.618.128 1.039.273 1.408.149.382.348.705.671 1.027.323.322.646.519 1.029.667.369.143.792.24 1.409.267.618.027.817.033 2.392.03 1.576-.003 1.774-.01 2.393-.039.619-.029 1.038-.128 1.407-.272.382-.15.705-.349 1.027-.672.321-.323.519-.647.667-1.029.143-.369.24-.791.267-1.408.027-.62.033-.818.03-2.393-.003-1.576-.01-1.774-.039-2.392-.03-.619-.128-1.04-.273-1.409a2.847 2.847 0 0 0-.671-1.026 2.833 2.833 0 0 0-1.029-.667c-.369-.143-.791-.241-1.409-.267-.617-.027-.816-.034-2.392-.031-1.576.003-1.774.01-2.393.04Zm.068 10.491c-.566-.025-.873-.119-1.078-.197a1.815 1.815 0 0 1-.668-.433 1.787 1.787 0 0 1-.435-.667c-.08-.204-.175-.511-.202-1.077-.029-.612-.035-.795-.038-2.344-.003-1.55.003-1.733.029-2.345.024-.565.119-.873.198-1.077.104-.272.23-.465.432-.669.203-.204.396-.329.667-.435.205-.08.511-.175 1.077-.202.612-.029.795-.035 2.344-.038 1.55-.003 1.733.002 2.346.029.565.025.873.119 1.077.198.271.104.464.23.668.433.204.202.33.395.436.666.08.204.175.511.201 1.077.029.612.036.795.039 2.344.003 1.549-.003 1.733-.03 2.345-.024.566-.118.873-.197 1.078a1.79 1.79 0 0 1-.433.668c-.203.204-.396.33-.667.435-.204.08-.511.175-1.076.202-.612.029-.796.035-2.345.038-1.55.004-1.733-.003-2.345-.029m4.731-7.83a.692.692 0 0 0 .431.643.703.703 0 0 0 .759-.152.703.703 0 0 0-.108-1.072.693.693 0 0 0-1.082.581Zm-5.375 3.108a2.98 2.98 0 1 0 5.96-.014 2.98 2.98 0 0 0-5.96.014Zm1.045-.002a1.939 1.939 0 0 1 2.308-1.902 1.933 1.933 0 1 1-1.738 3.268 1.94 1.94 0 0 1-.57-1.366Z"/><path fill="#5D778D" d="m631.991 295.076.008.153-.008-.153Zm-1.407.273.055.142-.055-.142Zm-1.694 1.699.142.055-.142-.055Zm-.258 6.194.153-.007-.153.007Zm.273 1.408.142-.055v-.001l-.142.056Zm1.7 1.694.055-.142-.055.142Zm7.601-.014.056.142-.056-.142Zm1.694-1.701-.142-.055.142.055Zm.267-1.408-.153-.007.153.007Zm-.282-6.194-.142.056.142-.056Zm-1.7-1.693-.055.142.055-.142Zm-7.204 10.036-.054.142.054-.142Zm-1.103-1.1-.142.056.142-.056Zm-.202-1.077.152-.007-.152.007Zm-.009-4.689.153.007-.153-.007Zm.198-1.077-.143-.055.143.055Zm1.099-1.104-.055-.142h-.001l.056.142Zm1.077-.202-.007-.152.007.152Zm4.69-.009-.007.153.007-.153Zm1.077.198-.055.142.055-.142Zm1.104 1.099-.142.056.142-.056Zm.201 1.077-.152.007.152-.007Zm.009 4.689-.152-.007.152.007Zm-.197 1.078.142.055-.142-.055Zm-1.1 1.103.056.142-.056-.142Zm-1.076.202.007.153-.007-.153Zm.736-8.518v-.153.153Zm-6.07 3.805h-.152.152Zm2.984 1.928-.001-.152.001.152Zm-2.415-7.849c-.632.03-1.07.131-1.456.283l.111.284c.352-.138.757-.234 1.36-.262l-.015-.305Zm-1.456.283a2.98 2.98 0 0 0-1.079.705l.216.215c.306-.306.611-.495.974-.636l-.111-.284Zm-1.079.705a2.999 2.999 0 0 0-.702 1.081l.285.11c.14-.363.327-.669.633-.976l-.216-.215Zm-.702 1.081c-.149.387-.249.826-.277 1.458l.305.013c.027-.603.121-1.009.257-1.361l-.285-.11Zm-.277 1.458c-.027.621-.033.823-.03 2.399h.305c-.003-1.576.003-1.771.03-2.386l-.305-.013Zm-.03 2.399c.003 1.577.01 1.777.04 2.4l.305-.015c-.03-.615-.037-.81-.04-2.385h-.305Zm.04 2.4c.03.631.131 1.07.283 1.456l.284-.112c-.138-.351-.234-.756-.262-1.359l-.305.015Zm.283 1.456a3 3 0 0 0 .705 1.079l.216-.216a2.697 2.697 0 0 1-.637-.974l-.284.111Zm.705 1.079c.339.338.681.546 1.082.701l.11-.284a2.692 2.692 0 0 1-.976-.633l-.216.216Zm1.082.701c.387.15.825.25 1.458.277l.013-.304c-.603-.027-1.009-.121-1.361-.257l-.11.284Zm1.458.277c.621.028.822.034 2.399.031l-.001-.305c-1.575.003-1.771-.003-2.385-.03l-.013.304Zm2.399.031c1.576-.003 1.777-.01 2.399-.04l-.014-.304c-.616.029-.811.036-2.386.039l.001.305Zm2.399-.04c.634-.03 1.07-.132 1.456-.282l-.111-.284c-.352.137-.755.233-1.359.262l.014.304Zm1.456-.282a3.017 3.017 0 0 0 1.079-.706l-.216-.215a2.71 2.71 0 0 1-.974.637l.111.284Zm1.079-.706c.337-.339.547-.681.701-1.082l-.284-.11c-.141.364-.328.67-.633.977l.216.215Zm.701-1.082c.15-.386.25-.825.277-1.457l-.305-.013c-.026.603-.12 1.008-.256 1.36l.284.11Zm.277-1.457c.027-.623.034-.823.031-2.4l-.305.001c.003 1.575-.004 1.77-.031 2.386l.305.013Zm.031-2.4c-.003-1.576-.01-1.776-.04-2.399l-.305.015c.03.615.037.81.04 2.385l.305-.001Zm-.04-2.399c-.03-.633-.131-1.07-.283-1.456l-.284.111c.138.352.234.755.262 1.36l.305-.015Zm-.283-1.456a2.992 2.992 0 0 0-.705-1.079l-.215.216c.307.306.494.611.636.974l.284-.111Zm-.705-1.079a2.994 2.994 0 0 0-1.082-.702l-.11.285c.364.14.67.327.977.633l.215-.216Zm-1.082-.701c-.386-.15-.825-.25-1.457-.278l-.013.305c.603.026 1.008.121 1.36.257l.11-.284Zm-1.457-.278c-.621-.026-.823-.033-2.4-.03l.001.305c1.575-.003 1.771.004 2.386.03l.013-.305Zm-2.4-.03c-1.576.003-1.776.01-2.399.04l.015.305c.615-.03.81-.037 2.385-.04l-.001-.305Zm-2.317 10.531c-.549-.024-.84-.115-1.03-.188l-.109.285c.219.084.543.182 1.126.207l.013-.304Zm-1.03-.188a1.657 1.657 0 0 1-.616-.398l-.214.216c.219.217.43.355.721.467l.109-.285Zm-.616-.398a1.643 1.643 0 0 1-.4-.614l-.284.111c.113.29.25.502.47.719l.214-.216Zm-.4-.614c-.074-.19-.166-.48-.192-1.029l-.304.014c.027.583.126.906.212 1.126l.284-.111Zm-.192-1.029c-.028-.608-.034-.789-.038-2.338l-.305.001c.004 1.55.01 1.736.039 2.351l.304-.014Zm-.038-2.338c-.003-1.548.003-1.729.03-2.337l-.305-.014c-.027.616-.033.802-.03 2.352l.305-.001Zm.03-2.337c.023-.549.114-.84.187-1.03l-.285-.109c-.084.219-.182.543-.207 1.126l.305.013Zm.187-1.03c.097-.251.211-.426.399-.615l-.217-.215a1.948 1.948 0 0 0-.467.721l.285.109Zm.399-.615c.187-.189.362-.303.614-.401l-.112-.284c-.29.113-.501.25-.719.47l.217.215Zm.613-.401c.19-.074.48-.165 1.029-.191l-.014-.305c-.583.028-.906.126-1.125.212l.11.284Zm1.029-.191c.609-.029.789-.035 2.338-.038l-.001-.305c-1.55.003-1.736.009-2.351.038l.014.305Zm2.338-.038c1.548-.004 1.729.002 2.338.029l.013-.305c-.615-.027-.802-.033-2.352-.029l.001.305Zm2.338.029c.549.024.84.114 1.029.187l.11-.285c-.22-.084-.544-.182-1.126-.207l-.013.305Zm1.029.187c.252.097.427.211.616.399l.215-.217a1.957 1.957 0 0 0-.721-.467l-.11.285Zm.616.399c.188.187.302.362.401.614l.284-.111a1.952 1.952 0 0 0-.47-.72l-.215.217Zm.401.614c.074.189.165.479.191 1.028l.305-.014c-.028-.583-.126-.906-.212-1.125l-.284.111Zm.191 1.028c.029.609.036.789.038 2.338l.305-.001c-.002-1.55-.009-1.736-.038-2.351l-.305.014Zm.038 2.338c.003 1.548-.002 1.729-.029 2.337l.305.014c.027-.615.032-.802.029-2.352l-.305.001Zm-.029 2.337c-.024.549-.114.84-.187 1.03l.284.11c.085-.22.182-.544.208-1.126l-.305-.014Zm-.187 1.03a1.652 1.652 0 0 1-.399.616l.216.215c.218-.219.355-.43.467-.721l-.284-.11Zm-.399.616a1.635 1.635 0 0 1-.614.4l.111.284c.29-.113.501-.25.719-.469l-.216-.215Zm-.614.4c-.189.074-.48.166-1.028.192l.014.305c.582-.028.906-.127 1.125-.213l-.111-.284Zm-1.028.192c-.609.028-.789.035-2.339.038l.001.305c1.55-.003 1.737-.01 2.352-.038l-.014-.305Zm-2.339.038c-1.548.003-1.729-.003-2.337-.029l-.013.304c.615.027.801.033 2.351.03l-.001-.305Zm2.235-7.707c0 .168.05.332.143.472l.254-.17a.54.54 0 0 1-.092-.302h-.305Zm.143.472a.857.857 0 0 0 .382.312l.116-.282a.548.548 0 0 1-.244-.2l-.254.17Zm.382.312a.85.85 0 0 0 .491.047l-.06-.299a.547.547 0 0 1-.315-.03l-.116.282Zm.491.047a.852.852 0 0 0 .434-.233l-.216-.215a.545.545 0 0 1-.278.149l.06.299Zm.434-.233a.847.847 0 0 0 .231-.435l-.299-.059a.542.542 0 0 1-.148.279l.216.215Zm.231-.435a.839.839 0 0 0-.049-.49l-.281.117a.544.544 0 0 1 .031.314l.299.059Zm-.049-.49a.851.851 0 0 0-.313-.381l-.169.254c.089.06.159.145.201.244l.281-.117Zm-.313-.381a.852.852 0 0 0-.472-.142v.305c.108 0 .213.032.303.091l.169-.254Zm-.472-.142a.85.85 0 0 0-.6.25l.216.215a.544.544 0 0 1 .384-.16v-.305Zm-.6.25a.843.843 0 0 0-.247.6h.305a.54.54 0 0 1 .158-.385l-.216-.215Zm-5.622 3.708a3.132 3.132 0 0 0 3.138 3.126l-.001-.305a2.827 2.827 0 0 1-2.832-2.822l-.305.001Zm3.138 3.126a3.132 3.132 0 0 0 3.126-3.138h-.305a2.828 2.828 0 0 1-2.822 2.833l.001.305Zm3.126-3.138a3.133 3.133 0 0 0-3.138-3.127v.305a2.828 2.828 0 0 1 2.833 2.822h.305Zm-3.138-3.127a3.133 3.133 0 0 0-3.126 3.139l.305-.001a2.828 2.828 0 0 1 2.821-2.833v-.305Zm-1.776 3.136a1.78 1.78 0 0 1 .298-.99l-.254-.169c-.228.343-.35.747-.349 1.16l.305-.001Zm.298-.99c.195-.294.473-.523.799-.658l-.118-.282a2.09 2.09 0 0 0-.935.771l.254.169Zm.799-.658a1.777 1.777 0 0 1 1.029-.104l.059-.299a2.084 2.084 0 0 0-1.206.121l.118.282Zm1.029-.104c.346.068.664.237.913.486l.216-.216a2.094 2.094 0 0 0-1.07-.569l-.059.299Zm.913.486c.25.249.42.566.49.912l.299-.061a2.088 2.088 0 0 0-.573-1.067l-.216.216Zm.49.912c.069.345.035.703-.099 1.029l.282.116a2.09 2.09 0 0 0 .116-1.206l-.299.061Zm-.099 1.029a1.789 1.789 0 0 1-.655.801l.17.254c.342-.23.609-.557.767-.939l-.282-.116Zm-.655.801a1.782 1.782 0 0 1-.99.303l.001.305a2.09 2.09 0 0 0 1.159-.354l-.17-.254Zm-.99.303c-.234 0-.465-.046-.682-.135l-.116.282c.253.105.525.158.799.158l-.001-.305Zm-.682-.135a1.789 1.789 0 0 1-.579-.385l-.215.216c.194.194.425.347.678.451l.116-.282Zm-.579-.385a1.775 1.775 0 0 1-.387-.577l-.282.117c.106.253.26.483.454.676l.215-.216Zm-.387-.577a1.775 1.775 0 0 1-.137-.682l-.305.001c0 .274.055.545.16.798l.282-.117Z" mask="url(#p)"/></g></g><path fill="#E2EAF1" d="M1098.76 325.243H223.411v1.525h875.349v-1.525Z" mask="url(#path-77-inside-4_0_2098)"/><rect width="14.182" height="14.182" x="239.195" y="344.076" fill="#fff" rx="3.279"/><rect width="14.182" height="14.182" x="239.195" y="344.076" stroke="#E2EAF1" stroke-width="1.067" rx="3.279"/><circle cx="270.686" cy="351.168" r="4.575" fill="#1D977A"/><path fill="#5D778D" fill-rule="evenodd" d="M290.824 348.812a.636.636 0 0 1 .899 0l3.363 3.363 3.363-3.363a.636.636 0 0 1 .899.899l-3.812 3.812a.636.636 0 0 1-.899 0l-3.813-3.812a.636.636 0 0 1 0-.899Z" clip-rule="evenodd"/><path fill="#394C5E" d="M309.755 354.668v-7.522h4.774v1.006h-3.607v2.2h3.414v.969h-3.414v2.341h3.607v1.006h-4.774Zm7.886.093c-1.079 0-1.876-.656-1.876-1.683v-.011c0-1.011.761-1.6 2.111-1.683l1.532-.089v-.5c0-.621-.391-.965-1.157-.965-.626 0-1.037.23-1.173.631l-.005.021h-1.089l.005-.036c.135-.928 1.027-1.549 2.314-1.549 1.423 0 2.226.709 2.226 1.898v3.873h-1.121v-.803h-.089c-.333.573-.927.896-1.678.896Zm-.751-1.73c0 .521.444.829 1.053.829.845 0 1.465-.553 1.465-1.283v-.484l-1.381.088c-.782.047-1.137.329-1.137.839v.011Zm7.293 1.746c-1.366 0-2.231-.641-2.341-1.59v-.005h1.131l.006.005c.14.428.552.714 1.224.714.699 0 1.184-.318 1.184-.782v-.01c0-.354-.266-.594-.923-.745l-.902-.209c-1.068-.245-1.563-.73-1.563-1.558v-.006c0-.985.917-1.694 2.199-1.694 1.293 0 2.122.647 2.221 1.569v.006h-1.079v-.011c-.11-.396-.511-.693-1.147-.693-.62 0-1.068.307-1.068.761v.01c0 .355.26.574.896.725l.897.203c1.089.256 1.61.719 1.61 1.538v.01c0 1.048-1.001 1.762-2.345 1.762Zm5.791-.073c-1.246 0-1.757-.438-1.757-1.527v-3.279h-.886v-.891h.886v-1.428h1.152v1.428h1.214v.891h-1.214v3.008c0 .61.229.86.787.86.172 0 .271-.005.427-.021v.902c-.182.031-.39.057-.609.057Zm4.243.073c-1.658 0-2.659-1.131-2.659-2.924v-.005c0-1.767 1.022-2.951 2.601-2.951 1.58 0 2.549 1.142 2.549 2.841v.396h-4.014c.021 1.085.616 1.715 1.549 1.715.724 0 1.157-.359 1.292-.651l.021-.042 1.089-.005-.01.047c-.188.745-.969 1.579-2.418 1.579Zm-.053-4.952c-.771 0-1.355.527-1.454 1.501h2.877c-.088-1.011-.656-1.501-1.423-1.501Zm3.889 4.843v-5.661h1.131v.855h.083c.204-.6.73-.954 1.486-.954.182 0 .38.026.495.052v1.042a3 3 0 0 0-.61-.067c-.865 0-1.454.531-1.454 1.35v3.383h-1.131Zm9.252.109c-1.366 0-2.231-.641-2.341-1.59v-.005h1.132l.005.005c.141.428.552.714 1.225.714.698 0 1.183-.318 1.183-.782v-.01c0-.354-.266-.594-.923-.745l-.901-.209c-1.069-.245-1.564-.73-1.564-1.558v-.006c0-.985.917-1.694 2.199-1.694 1.293 0 2.122.647 2.221 1.569v.006h-1.079v-.011c-.109-.396-.511-.693-1.147-.693-.62 0-1.068.307-1.068.761v.01c0 .355.26.574.896.725l.897.203c1.089.256 1.61.719 1.61 1.538v.01c0 1.048-1 1.762-2.345 1.762Zm6.072 0c-1.657 0-2.658-1.131-2.658-2.924v-.005c0-1.767 1.022-2.951 2.601-2.951s2.549 1.142 2.549 2.841v.396h-4.014c.021 1.085.615 1.715 1.548 1.715.725 0 1.158-.359 1.293-.651l.021-.042 1.089-.005-.01.047c-.188.745-.97 1.579-2.419 1.579Zm-.052-4.952c-.771 0-1.355.527-1.454 1.501h2.877c-.088-1.011-.657-1.501-1.423-1.501Zm5.442 4.936c-1.079 0-1.877-.656-1.877-1.683v-.011c0-1.011.761-1.6 2.111-1.683l1.533-.089v-.5c0-.621-.391-.965-1.157-.965-.626 0-1.037.23-1.173.631l-.005.021h-1.09l.006-.036c.135-.928 1.026-1.549 2.314-1.549 1.423 0 2.226.709 2.226 1.898v3.873h-1.121v-.803h-.089c-.333.573-.927.896-1.678.896Zm-.751-1.73c0 .521.443.829 1.053.829.845 0 1.465-.553 1.465-1.283v-.484l-1.381.088c-.782.047-1.137.329-1.137.839v.011Zm7.292 1.746c-1.365 0-2.23-.641-2.34-1.59v-.005h1.131l.005.005c.141.428.553.714 1.225.714.699 0 1.184-.318 1.184-.782v-.01c0-.354-.266-.594-.923-.745l-.902-.209c-1.068-.245-1.564-.73-1.564-1.558v-.006c0-.985.918-1.694 2.2-1.694 1.293 0 2.122.647 2.221 1.569v.006h-1.079v-.011c-.11-.396-.511-.693-1.147-.693-.62 0-1.069.307-1.069.761v.01c0 .355.261.574.897.725l.896.203c1.09.256 1.611.719 1.611 1.538v.01c0 1.048-1.001 1.762-2.346 1.762Zm6.094 0c-1.663 0-2.679-1.11-2.679-2.935v-.01c0-1.819 1.021-2.935 2.679-2.935 1.652 0 2.674 1.111 2.674 2.935v.01c0 1.825-1.017 2.935-2.674 2.935Zm0-.943c.969 0 1.522-.741 1.522-1.992v-.01c0-1.256-.553-1.991-1.522-1.991-.975 0-1.522.735-1.522 1.991v.01c0 1.257.547 1.992 1.522 1.992Zm4.024.834v-5.661h1.131v.86h.083c.277-.605.819-.97 1.642-.97 1.267 0 1.965.756 1.965 2.106v3.665h-1.126v-3.399c0-.938-.391-1.402-1.219-1.402-.829 0-1.345.568-1.345 1.48v3.321h-1.131Z"/><rect width="51.2" height="22.625" x="526.886" y="339.855" fill="#FFEAD6" rx="7.625"/><path fill="#955011" d="M533.914 354.668v-7.522h3.003c1.527 0 2.559 1.006 2.559 2.512v.011c0 1.501-1.032 2.512-2.559 2.512h-1.658v2.487h-1.345Zm2.674-6.422h-1.329v2.851h1.329c.964 0 1.527-.521 1.527-1.423v-.01c0-.902-.563-1.418-1.527-1.418Zm5.583 6.515c-1.085 0-1.872-.667-1.872-1.704v-.01c0-1.017.777-1.611 2.164-1.695l1.464-.088v-.49c0-.568-.37-.881-1.068-.881-.595 0-.98.214-1.111.589l-.005.021h-1.225l.006-.047c.125-.959 1.042-1.595 2.397-1.595 1.465 0 2.288.709 2.288 1.913v3.894h-1.282v-.782h-.088c-.313.552-.918.875-1.668.875Zm-.589-1.767c0 .485.411.772.985.772.782 0 1.36-.511 1.36-1.189v-.458l-1.282.083c-.725.047-1.063.313-1.063.782v.01Zm7.073 1.788c-1.282 0-1.939-.771-1.939-2.126v-3.686h1.298v3.388c0 .881.328 1.33 1.11 1.33.839 0 1.287-.542 1.287-1.397v-3.321h1.298v5.698h-1.298v-.866h-.088c-.266.61-.845.98-1.668.98Zm6.792 0c-1.449 0-2.325-.667-2.435-1.631v-.011h1.288l.005.011c.136.396.516.672 1.162.672.647 0 1.095-.292 1.095-.719v-.011c0-.333-.25-.552-.876-.693l-.922-.208c-1.084-.24-1.6-.751-1.6-1.59v-.005c0-1.027.938-1.736 2.283-1.736 1.386 0 2.215.688 2.298 1.611v.01h-1.219l-.006-.016c-.093-.359-.469-.651-1.079-.651-.578 0-.995.281-.995.709v.005c0 .334.24.537.855.678l.922.203c1.116.25 1.642.724 1.642 1.553v.011c0 1.084-1.016 1.808-2.418 1.808Zm6.166 0c-1.694 0-2.721-1.136-2.721-2.95v-.005c0-1.793 1.037-2.966 2.658-2.966s2.622 1.136 2.622 2.856v.428h-3.982c.016 1.021.568 1.616 1.449 1.616.704 0 1.105-.355 1.23-.615l.016-.037h1.235l-.016.047c-.182.735-.943 1.626-2.491 1.626Zm-.047-4.905c-.725 0-1.267.49-1.366 1.397h2.706c-.089-.933-.615-1.397-1.34-1.397Zm5.958 4.884c-1.428 0-2.335-1.131-2.335-2.934v-.011c0-1.814.891-2.939 2.335-2.939.782 0 1.433.385 1.73 1h.089v-3.111h1.303v7.902h-1.303v-.892h-.089c-.312.621-.928.985-1.73.985Zm.406-1.094c.886 0 1.434-.699 1.434-1.84v-.011c0-1.141-.553-1.845-1.434-1.845-.881 0-1.423.699-1.423 1.845v.011c0 1.147.537 1.84 1.423 1.84Z"/><rect width="15.25" height="15.25" x="608.474" y="343.543" fill="#EFF4F8" rx="2.288"/><path fill="#5D778D" fill-rule="evenodd" d="M622.112 347.507a4.871 4.871 0 0 1-1.4.384c.503-.302.89-.779 1.072-1.349a4.909 4.909 0 0 1-1.548.592 2.441 2.441 0 0 0-4.156 2.223 6.92 6.92 0 0 1-5.025-2.547 2.441 2.441 0 0 0 .754 3.255 2.43 2.43 0 0 1-1.104-.305 2.44 2.44 0 0 0 1.956 2.422 2.434 2.434 0 0 1-1.101.041 2.44 2.44 0 0 0 2.278 1.694 4.91 4.91 0 0 1-3.61 1.01 6.9 6.9 0 0 0 3.737 1.095c4.527 0 7.085-3.823 6.931-7.253a4.963 4.963 0 0 0 1.216-1.262Z" clip-rule="evenodd"/><path fill="#E2EAF1" d="M1098.76 375.568H223.411v1.525h875.349v-1.525Z" mask="url(#path-91-inside-6_0_2098)"/></g><path fill="url(#q)" d="M0 1.002h768v366H0z"/></g><defs><clipPath id="a"><path fill="#fff" d="M0 12.6C0 5.972 5.373.6 12 .6h646v366H0v-354Z"/></clipPath><clipPath id="o"><path fill="#fff" d="M626.774 293.218h15.25v15.25h-15.25z"/></clipPath><clipPath id="n"><rect width="15.25" height="15.25" x="626.774" y="293.218" fill="#fff" rx="2.288"/></clipPath><clipPath id="m"><rect width="15.25" height="15.25" x="626.774" y="242.893" fill="#fff" rx="2.288"/></clipPath><clipPath id="l"><rect width="15.25" height="15.25" x="608.474" y="242.893" fill="#fff" rx="2.288"/></clipPath><clipPath id="d"><rect width="24.4" height="24.4" x="21.35" y="30.892" fill="#fff" rx="4.575"/></clipPath><clipPath id="c"><path fill="#fff" d="M0 .393h198.25v780.8H0V.393Z"/></clipPath><clipPath id="b"><rect width="1098" height="780.8" y=".393" fill="#fff" rx="13.725"/></clipPath><linearGradient id="q" x1="384" x2="384" y1="1.002" y2="367.002" gradientUnits="userSpaceOnUse"><stop stop-color="#F9FAFB" stop-opacity="0"/><stop offset=".775" stop-color="#F4F6F8" stop-opacity=".2"/><stop offset="1" stop-color="#F5F7F9"/></linearGradient><linearGradient id="j" x1="33.938" x2="54.74" y1="64.399" y2="60.453" gradientUnits="userSpaceOnUse"><stop stop-color="#9F9FE5"/><stop offset=".363" stop-color="#4F4FBE"/><stop offset=".646" stop-color="#0071D2"/><stop offset="1" stop-color="#37A2FF"/></linearGradient><linearGradient id="h" x1="6.273" x2="30.474" y1="54.953" y2="54.953" gradientUnits="userSpaceOnUse"><stop stop-color="#9F9FE5"/><stop offset=".363" stop-color="#4F4FBE"/><stop offset=".646" stop-color="#0071D2"/><stop offset="1" stop-color="#37A2FF"/></linearGradient><linearGradient id="f" x1="28.375" x2="55.592" y1="39.272" y2="39.272" gradientUnits="userSpaceOnUse"><stop stop-color="#4F4FBE"/><stop offset=".549" stop-color="#9F9FE5"/><stop offset="1" stop-color="#37A2FF"/></linearGradient><filter id="g" width="48.886" height="48.886" x="-6.357" y="30.51" color-interpolation-filters="sRGB" filterUnits="userSpaceOnUse"><feFlood flood-opacity="0" result="BackgroundImageFix"/><feBlend in="SourceGraphic" in2="BackgroundImageFix" result="shape"/><feGaussianBlur result="effect1_foregroundBlur_0_2098" stdDeviation="4.988"/></filter><filter id="i" width="47.489" height="47.892" x="18.84" y="36.507" color-interpolation-filters="sRGB" filterUnits="userSpaceOnUse"><feFlood flood-opacity="0" result="BackgroundImageFix"/><feBlend in="SourceGraphic" in2="BackgroundImageFix" result="shape"/><feGaussianBlur result="effect1_foregroundBlur_0_2098" stdDeviation="4.988"/></filter><filter id="e" width="42.624" height="42.257" x="20.348" y="18.143" color-interpolation-filters="sRGB" filterUnits="userSpaceOnUse"><feFlood flood-opacity="0" result="BackgroundImageFix"/><feBlend in="SourceGraphic" in2="BackgroundImageFix" result="shape"/><feGaussianBlur result="effect1_foregroundBlur_0_2098" stdDeviation="2.494"/></filter></defs></svg>