<svg xmlns="http://www.w3.org/2000/svg" width="20" height="20" fill="none"><path fill="url(#a)" d="M10 1.667a8.333 8.333 0 1 0 0 16.666 8.333 8.333 0 1 0 0-16.666Z"/><path fill="#fff" d="M11.128 12.209h2.156l.34-2.191h-2.496V8.82c0-.91.297-1.717 1.149-1.717h1.367V5.192c-.24-.033-.748-.104-1.709-.104-2.006 0-3.181 1.06-3.181 3.473v1.457H6.69v2.191h2.062v6.022c.408.06.822.102 1.247.102.384 0 .758-.035 1.128-.085v-6.04Z"/><defs><linearGradient id="a" x1="4.164" x2="16.923" y1="4.164" y2="16.923" gradientUnits="userSpaceOnUse"><stop stop-color="#2AA4F4"/><stop offset="1" stop-color="#007AD9"/></linearGradient></defs></svg>