<svg xmlns="http://www.w3.org/2000/svg" width="20" height="20" fill="none"><g clip-path="url(#a)"><circle cx="10" cy="10" r="10" fill="#EFF4F8"/><path fill="#FBC02D" d="M16.537 8.694H16v-.027h-6v2.666h3.768A3.998 3.998 0 0 1 6 10a4 4 0 0 1 4-4c1.02 0 1.947.385 2.654 1.013l1.885-1.886A6.636 6.636 0 0 0 10 3.333a6.667 6.667 0 1 0 6.537 5.361Z"/><path fill="#E53935" d="m4.102 6.897 2.19 1.606A3.998 3.998 0 0 1 10 6c1.02 0 1.947.385 2.654 1.013l1.885-1.886A6.636 6.636 0 0 0 10 3.333a6.663 6.663 0 0 0-5.898 3.564Z"/><path fill="#4CAF50" d="M10 16.667a6.635 6.635 0 0 0 4.47-1.731l-2.064-1.746A3.97 3.97 0 0 1 10 14a3.998 3.998 0 0 1-3.761-2.649l-2.174 1.675A6.661 6.661 0 0 0 10 16.666Z"/><path fill="#1565C0" d="m16.537 8.694-.005-.027H10v2.666h3.768a4.013 4.013 0 0 1-1.363 1.857h.001l2.064 1.746c-.146.132 2.197-1.603 2.197-4.936a6.71 6.71 0 0 0-.13-1.306Z"/></g><defs><clipPath id="a"><path fill="#fff" d="M0 0h20v20H0z"/></clipPath></defs></svg>