<svg xmlns="http://www.w3.org/2000/svg" width="25" height="25" fill="none"><rect width="21" height="21" x="1.668" y="1.667" fill="#0188FF" rx="4.5"/><rect width="21" height="21" x="1.668" y="1.667" fill="#0188FF" rx="4.5"/><rect width="21" height="21" x="1.668" y="1.667" fill="#0188FF" rx="4.5"/><path fill="#E3E3F7" d="M17.418 8.041a1.125 1.125 0 1 1-2.25 0 1.125 1.125 0 0 1 2.25 0Z"/><path fill="#E3E3F7" fill-rule="evenodd" d="M12.168 15.916a3.75 3.75 0 1 0 0-7.5 3.75 3.75 0 0 0 0 7.5Zm0-1.5a2.25 2.25 0 1 0 0-4.5 2.25 2.25 0 0 0 0 4.5Z" clip-rule="evenodd"/><path fill="#E3E3F7" fill-rule="evenodd" d="M4.668 11.866c0-2.52 0-3.78.49-4.742a4.5 4.5 0 0 1 1.967-1.967c.963-.49 2.223-.49 4.743-.49h.6c2.52 0 3.78 0 4.743.49a4.5 4.5 0 0 1 1.966 1.966c.49.963.49 2.223.49 4.743v.6c0 2.52 0 3.78-.49 4.743a4.5 4.5 0 0 1-1.966 1.967c-.963.49-2.223.49-4.743.49h-.6c-2.52 0-3.78 0-4.743-.49a4.5 4.5 0 0 1-1.966-1.967c-.49-.962-.49-2.223-.49-4.743v-.6Zm7.2-5.7h.6c1.285 0 2.158.002 2.833.057.658.054.994.15 1.229.27a3 3 0 0 1 1.31 1.311c.12.235.218.571.271 1.229.056.675.057 1.549.057 2.833v.6c0 1.285-.001 2.159-.056 2.834-.054.657-.152.994-.271 1.228a3 3 0 0 1-1.311 1.311c-.235.12-.571.217-1.229.27-.675.056-1.548.057-2.833.057h-.6c-1.285 0-2.158 0-2.833-.056-.658-.054-.994-.151-1.229-.27a3 3 0 0 1-1.31-1.312c-.12-.234-.218-.57-.272-1.228-.055-.675-.056-1.549-.056-2.834v-.6c0-1.284.001-2.158.056-2.833.054-.658.152-.994.271-1.229a3 3 0 0 1 1.311-1.31c.235-.12.571-.217 1.229-.271.675-.055 1.548-.057 2.833-.057Z" clip-rule="evenodd"/></svg>