<svg xmlns="http://www.w3.org/2000/svg" width="20" height="20" fill="none"><rect width="20" height="20" fill="#1275B1" rx="10"/><path fill="#fff" d="M7.585 5.494c0 .668-.579 1.209-1.293 1.209C5.58 6.703 5 6.162 5 5.494c0-.667.579-1.208 1.292-1.208.714 0 1.293.54 1.293 1.208ZM5.177 7.591h2.209v6.695h-2.21V7.59ZM10.943 7.591h-2.21v6.695h2.21V10.86c0-.791.27-1.586 1.347-1.586 1.218 0 1.21 1.035 1.205 1.837-.008 1.048.01 2.118.01 3.174h2.21v-3.533c-.02-2.256-.607-3.296-2.541-3.296-1.149 0-1.86.522-2.231.993v-.859Z"/></svg>