<svg xmlns="http://www.w3.org/2000/svg" width="25" height="25" fill="none"><rect width="21" height="21" x="1.668" y="1.667" fill="#0188FF" rx="10.5"/><path fill="#E4E4F7" d="M9.632 7.436c0 .7-.607 1.269-1.357 1.269s-1.357-.568-1.357-1.27c0-.7.608-1.268 1.357-1.268.75 0 1.357.568 1.357 1.269ZM7.104 9.638h2.32v7.028h-2.32V9.639ZM13.158 9.638h-2.32v7.028h2.32V13.07c0-.83.283-1.664 1.415-1.664 1.278 0 1.27 1.086 1.265 1.928-.008 1.1.01 2.224.01 3.332h2.32v-3.71c-.02-2.368-.637-3.46-2.667-3.46-1.206 0-1.954.548-2.343 1.043v-.901Z"/></svg>