<svg xmlns="http://www.w3.org/2000/svg" width="116" height="30" fill="none"><g clip-path="url(#a)"><path fill="url(#b)" d="M45.977 20.643c0-.48-.24-.858-.722-1.13-.472-.281-1.235-.53-2.288-.749-3.503-.735-5.255-2.224-5.255-4.466 0-1.307.54-2.396 1.62-3.268 1.09-.88 2.51-1.32 4.262-1.32 1.87 0 3.363.44 4.48 1.32.565.443.989.951 1.27 1.526.477.977-.463 1.905-1.55 1.905h-.434c-.847 0-1.479-.79-2.078-1.388-.363-.373-.93-.559-1.702-.559-.663 0-1.175.15-1.538.45-.364.3-.545.68-.545 1.143 0 .436.204.79.613 1.063.417.263 1.116.494 2.096.694.98.19 1.807.409 2.479.653 2.078.763 3.118 2.084 3.118 3.963 0 1.343-.576 2.433-1.73 3.268-1.152.826-2.641 1.239-4.466 1.239-1.234 0-2.332-.218-3.295-.654-.953-.444-1.702-1.048-2.246-1.81a4.792 4.792 0 0 1-.386-.645c-.467-.949.425-1.847 1.482-1.847 1.019 0 1.775.956 2.572 1.59l.022.016c.48.372 1.125.559 1.933.559.754 0 1.32-.141 1.702-.423.39-.29.586-.667.586-1.13Z"/><path fill="url(#c)" d="M55.91 11.588c1.044-1.252 2.356-1.879 3.935-1.879 3.196 0 4.816 1.857 4.861 5.57v7.468a1.968 1.968 0 0 1-3.935 0v-7.36c0-.844-.181-1.466-.544-1.865-.364-.409-.967-.613-1.811-.613-1.153 0-1.988.445-2.506 1.335v8.503a1.968 1.968 0 0 1-3.935 0V5.767a1.968 1.968 0 1 1 3.935 0v5.821Z"/><path fill="url(#d)" d="M66.783 17.212c0-1.461.281-2.764.844-3.908.563-1.144 1.371-2.029 2.424-2.655 1.062-.626 2.292-.94 3.69-.94 1.988 0 3.609.609 4.861 1.825 1.262 1.216 1.965 2.868 2.11 4.956l.028 1.008c0 2.26-.63 4.076-1.893 5.447-1.261 1.361-2.954 2.042-5.079 2.042-2.124 0-3.821-.68-5.092-2.042-1.262-1.362-1.893-3.214-1.893-5.556v-.177Zm3.935.286c0 1.398.263 2.469.79 3.213.526.736 1.28 1.103 2.26 1.103.954 0 1.698-.363 2.233-1.089.536-.735.804-1.906.804-3.513 0-1.37-.268-2.433-.804-3.186-.535-.754-1.289-1.13-2.26-1.13-.962 0-1.707.376-2.233 1.13-.526.744-.79 1.902-.79 3.472Z"/><path fill="url(#e)" d="m95.698 19.363 1.636-7.939a1.807 1.807 0 1 1 3.521.812l-2.767 10.847a2.167 2.167 0 0 1-4.175.089l-2.327-7.73-2.33 7.736a2.158 2.158 0 0 1-4.158-.088L82.33 12.235a1.806 1.806 0 1 1 3.52-.81l1.625 7.925 2.302-8.002a1.889 1.889 0 0 1 3.631.003l2.29 8.012Z"/><path fill="url(#f)" d="M105.028 9.982c.961 0 1.76.743 1.829 1.702 1.053-1.316 2.464-1.975 4.235-1.975 1.561 0 2.723.459 3.485 1.376.763.916 1.153 2.287 1.171 4.112v7.55a1.967 1.967 0 1 1-3.935 0v-7.455c0-.835-.181-1.439-.544-1.81-.364-.382-.967-.573-1.811-.573-1.108 0-1.939.472-2.492 1.416v8.422a1.968 1.968 0 0 1-3.935 0V11.9c0-1.06.858-1.918 1.918-1.918h.079Z"/><g clip-path="url(#g)"><g filter="url(#h)"><path fill="#0A8CFF" d="M28.998 14.606c.01.754-.029 1.507-.127 2.261a14.28 14.28 0 0 1-.488 2.222c-.049.178-.117.357-.176.545l-.098.268-.107.268a8.426 8.426 0 0 1-.215.525l-.234.516a15.354 15.354 0 0 1-1.134 1.954c-.43.625-.899 1.2-1.407 1.746a15.715 15.715 0 0 1-1.64 1.507c-.587.456-1.203.873-1.847 1.23-.645.367-1.31.674-2.003.932-.684.258-1.397.456-2.11.615-.714.149-1.437.248-2.16.288-.723.04-1.446.02-2.159-.04a14.385 14.385 0 0 1-6.047-2.003 14.08 14.08 0 0 1-1.73-1.23 16.342 16.342 0 0 1-1.524-1.448 14.963 14.963 0 0 1-1.29-1.657c-.39-.575-.732-1.19-1.044-1.814a14.512 14.512 0 0 1-1.456-6.02c-.01-.685.02-1.37.098-2.054.087-.684.205-1.358.38-2.023a14.395 14.395 0 0 1 5.725-8.172 15.47 15.47 0 0 1 1.74-1.032 15.569 15.569 0 0 1 1.875-.773l.489-.149c.166-.05.332-.09.488-.129l.245-.06.244-.049c.166-.03.332-.07.498-.1a17.285 17.285 0 0 1 2.022-.227h.05a2.937 2.937 0 0 1 3.057 2.787c.088 1.616-1.133 2.995-2.726 3.084-.117.01-.244 0-.36 0-1.603-.119-3.235.327-4.603 1.23a7.997 7.997 0 0 0-3.038 3.789 7.11 7.11 0 0 0-.352 1.18 8.377 8.377 0 0 0-.166 1.21c-.02.406-.02.823.01 1.23a7.796 7.796 0 0 0 2.618 5.207c.293.247.606.485.928.694.323.208.665.377 1.007.535.342.149.703.268 1.055.367.361.1.723.159 1.084.199.362.04.733.05 1.095.04.361-.02.723-.06 1.074-.13a7.09 7.09 0 0 0 1.993-.684 7.395 7.395 0 0 0 2.97-2.797c.176-.287.323-.595.46-.902.136-.308.244-.625.341-.943l.069-.238c.02-.079.039-.168.058-.248l.03-.119.02-.128c.01-.08.038-.17.048-.248.049-.338.078-.675.108-1.012l.02-.248c.175-2.34 2.178-4.086 4.484-3.918 2.159.16 3.82 1.994 3.858 4.166Z"/></g><g filter="url(#i)"><path fill="url(#j)" d="M22.197 8.879a3.625 3.625 0 1 0 0-7.251 3.625 3.625 0 0 0 0 7.25Z"/></g></g></g><defs><linearGradient id="b" x1="76.552" x2="76.552" y1="9.628" y2="25.274" gradientUnits="userSpaceOnUse"><stop stop-color="#0188FF"/><stop offset="1" stop-color="#006DEE"/></linearGradient><linearGradient id="c" x1="76.552" x2="76.552" y1="9.628" y2="25.274" gradientUnits="userSpaceOnUse"><stop stop-color="#0188FF"/><stop offset="1" stop-color="#006DEE"/></linearGradient><linearGradient id="d" x1="76.552" x2="76.552" y1="9.628" y2="25.274" gradientUnits="userSpaceOnUse"><stop stop-color="#0188FF"/><stop offset="1" stop-color="#006DEE"/></linearGradient><linearGradient id="e" x1="76.552" x2="76.552" y1="9.628" y2="25.274" gradientUnits="userSpaceOnUse"><stop stop-color="#0188FF"/><stop offset="1" stop-color="#006DEE"/></linearGradient><linearGradient id="f" x1="76.552" x2="76.552" y1="9.628" y2="25.274" gradientUnits="userSpaceOnUse"><stop stop-color="#0188FF"/><stop offset="1" stop-color="#006DEE"/></linearGradient><linearGradient id="j" x1="22.197" x2="22.197" y1="1.628" y2="8.879" gradientUnits="userSpaceOnUse"><stop stop-color="#FF6BC1"/><stop offset="1" stop-color="#E700A6"/></linearGradient><clipPath id="a"><path fill="#fff" d="M0 0h116v30H0z"/></clipPath><clipPath id="g"><path fill="#fff" d="M0 .5h29v29.003H0z"/></clipPath><filter id="h" width="29" height="31.592" x="0" y="-2.089" color-interpolation-filters="sRGB" filterUnits="userSpaceOnUse"><feFlood flood-opacity="0" result="BackgroundImageFix"/><feBlend in="SourceGraphic" in2="BackgroundImageFix" result="shape"/><feColorMatrix in="SourceAlpha" result="hardAlpha" values="0 0 0 0 0 0 0 0 0 0 0 0 0 0 0 0 0 0 127 0"/><feOffset dy="-2.589"/><feGaussianBlur stdDeviation="1.812"/><feComposite in2="hardAlpha" k2="-1" k3="1" operator="arithmetic"/><feColorMatrix values="0 0 0 0 0 0 0 0 0 0.429333 0 0 0 0 0.933333 0 0 0 0.6 0"/><feBlend in2="shape" result="effect1_innerShadow_36_543"/></filter><filter id="i" width="7.251" height="7.633" x="18.571" y="1.246" color-interpolation-filters="sRGB" filterUnits="userSpaceOnUse"><feFlood flood-opacity="0" result="BackgroundImageFix"/><feBlend in="SourceGraphic" in2="BackgroundImageFix" result="shape"/><feColorMatrix in="SourceAlpha" result="hardAlpha" values="0 0 0 0 0 0 0 0 0 0 0 0 0 0 0 0 0 0 127 0"/><feOffset dy="-.382"/><feGaussianBlur stdDeviation="1.091"/><feComposite in2="hardAlpha" k2="-1" k3="1" operator="arithmetic"/><feColorMatrix values="0 0 0 0 0.905882 0 0 0 0 0 0 0 0 0 0.65098 0 0 0 0.3 0"/><feBlend in2="shape" result="effect1_innerShadow_36_543"/></filter></defs></svg>