<svg xmlns="http://www.w3.org/2000/svg" width="121" height="121" fill="none"><g clip-path="url(#a)"><rect width="120" height="120" x=".25" y=".85" fill="#0D004E" rx="32.727"/><g filter="url(#b)"><ellipse cx="60.25" cy="79.349" fill="#9123FF" rx="48" ry="71.5"/></g><g filter="url(#c)" opacity=".8"><ellipse cx="59.983" cy="119.084" fill="url(#d)" rx="26.635" ry="85.68" transform="rotate(-90.141 59.983 119.084)"/></g><circle cx="18.25" cy="21.851" r="1" fill="#fff" fill-opacity=".4"/><circle cx="108.25" cy="11.851" r="1" fill="#fff" fill-opacity=".4"/><circle cx="98.25" cy="51.851" r="1" fill="#fff" fill-opacity=".4"/><circle cx="115.25" cy="82.851" r="1" fill="#fff" fill-opacity=".4"/><circle cx="8.25" cy="91.85" r="1" fill="#fff" fill-opacity=".4"/><circle cx="18.25" cy="71.851" r="1" fill="#fff" fill-opacity=".4"/><g filter="url(#e)"><path fill="#0E011B" d="M92.974 61.358c.021 1.63-.064 3.26-.275 4.89a30.9 30.9 0 0 1-1.056 4.805c-.106.386-.254.772-.38 1.18l-.212.579-.233.579c-.147.386-.295.772-.465 1.137l-.507 1.115a33.218 33.218 0 0 1-2.45 4.226 32.81 32.81 0 0 1-3.044 3.775 34.02 34.02 0 0 1-3.55 3.26 30.893 30.893 0 0 1-3.994 2.66 29.493 29.493 0 0 1-4.332 2.017c-1.48.557-3.022.986-4.565 1.33a31.3 31.3 0 0 1-4.67.621 33.89 33.89 0 0 1-4.67-.085 30.168 30.168 0 0 1-4.586-.794c-1.5-.386-2.98-.858-4.395-1.459a32.075 32.075 0 0 1-4.1-2.08 30.47 30.47 0 0 1-3.74-2.66c-1.163-.987-2.283-2.016-3.297-3.132a32.386 32.386 0 0 1-2.79-3.582c-.845-1.244-1.584-2.574-2.26-3.925a33.753 33.753 0 0 1-1.67-4.183 31.547 31.547 0 0 1-1.48-8.837c-.02-1.48.043-2.96.212-4.44.19-1.48.444-2.939.824-4.376a29.85 29.85 0 0 1 1.437-4.204 31.134 31.134 0 0 1 10.947-13.47c1.204-.837 2.472-1.567 3.761-2.232a33.686 33.686 0 0 1 4.058-1.673l1.056-.322c.36-.107.719-.193 1.057-.278l.528-.129.528-.107c.36-.065.719-.15 1.078-.215a37.396 37.396 0 0 1 4.375-.493h.105c3.487-.15 6.424 2.531 6.614 6.027.19 3.497-2.45 6.478-5.895 6.671-.254.022-.529 0-.782 0-3.466-.257-6.995.708-9.953 2.66a17.296 17.296 0 0 0-6.573 8.194c-.338.815-.57 1.694-.76 2.552-.19.858-.296 1.738-.36 2.617-.042.88-.042 1.78.022 2.66.084.88.21 1.759.422 2.595.824 3.39 2.705 6.457 5.241 8.666.634.536 1.31 1.051 2.008 1.502.697.45 1.436.815 2.176 1.158.74.322 1.522.58 2.282.794.782.214 1.564.343 2.346.429.782.085 1.585.107 2.367.085a16.776 16.776 0 0 0 2.324-.278c.761-.15 1.5-.322 2.22-.58.718-.257 1.415-.536 2.091-.9a15.996 15.996 0 0 0 6.424-6.05c.38-.621.698-1.286.994-1.951.296-.665.528-1.352.74-2.038l.147-.515c.043-.171.085-.364.127-.536l.063-.257.043-.28c.02-.17.084-.364.105-.536.106-.729.17-1.458.233-2.187l.042-.537c.38-5.062 4.713-8.837 9.7-8.472 4.67.343 8.262 4.311 8.347 9.009Z"/></g><g filter="url(#f)"><path fill="url(#g)" d="M74.454 36.212a6.797 6.797 0 1 0 0 13.593 6.797 6.797 0 0 0 0-13.593Z"/></g><g filter="url(#h)"><path fill="url(#i)" d="M87.34 60.02a29.92 29.92 0 0 1-.238 4.24 26.785 26.785 0 0 1-.916 4.165c-.092.335-.22.67-.33 1.022l-.183.502-.201.502c-.129.335-.257.67-.403.986l-.44.967a28.795 28.795 0 0 1-2.124 3.663 28.432 28.432 0 0 1-2.638 3.272 29.486 29.486 0 0 1-3.077 2.826 26.768 26.768 0 0 1-3.461 2.305 25.56 25.56 0 0 1-3.755 1.748 29.227 29.227 0 0 1-3.956 1.153 27.134 27.134 0 0 1-4.048.54c-1.355.073-2.71.036-4.047-.075a26.14 26.14 0 0 1-3.975-.688 26.954 26.954 0 0 1-3.81-1.264 27.791 27.791 0 0 1-3.553-1.804 26.41 26.41 0 0 1-3.242-2.305c-1.007-.856-1.978-1.748-2.857-2.715a28.065 28.065 0 0 1-2.417-3.105c-.733-1.079-1.374-2.231-1.96-3.403a29.284 29.284 0 0 1-1.447-3.625 27.351 27.351 0 0 1-1.282-7.66 30.075 30.075 0 0 1 .183-3.85c.165-1.282.385-2.546.714-3.792a25.87 25.87 0 0 1 1.246-3.644 26.986 26.986 0 0 1 9.487-11.677 29.013 29.013 0 0 1 3.26-1.933 29.178 29.178 0 0 1 3.517-1.45l.916-.28c.311-.092.622-.167.915-.241l.458-.112.458-.093c.312-.055.623-.13.934-.185a32.395 32.395 0 0 1 3.791-.428h.092c3.022-.13 5.568 2.194 5.733 5.224.165 3.031-2.125 5.616-5.11 5.783-.22.018-.458 0-.678 0-3.004-.223-6.062.613-8.626 2.305a14.993 14.993 0 0 0-5.696 7.103c-.293.706-.495 1.469-.66 2.212a15.719 15.719 0 0 0-.311 2.269c-.037.762-.037 1.543.018 2.305.073.762.183 1.525.366 2.25.715 2.938 2.345 5.596 4.543 7.511.55.465 1.135.911 1.74 1.302.604.39 1.245.706 1.886 1.004.641.279 1.319.502 1.978.688.678.186 1.355.297 2.033.372.678.074 1.374.093 2.051.074a14.552 14.552 0 0 0 2.015-.242 13.032 13.032 0 0 0 3.736-1.283 13.865 13.865 0 0 0 5.568-5.243c.33-.539.605-1.115.861-1.692.257-.576.458-1.171.641-1.766l.128-.446c.037-.149.074-.316.11-.465l.055-.223.037-.242c.018-.149.073-.316.091-.465.092-.632.147-1.264.202-1.896l.036-.465c.33-4.388 4.085-7.66 8.407-7.344 4.048.297 7.161 3.737 7.235 7.809Z"/></g></g><defs><filter id="b" width="224" height="271" x="-51.75" y="-56.151" color-interpolation-filters="sRGB" filterUnits="userSpaceOnUse"><feFlood flood-opacity="0" result="BackgroundImageFix"/><feBlend in="SourceGraphic" in2="BackgroundImageFix" result="shape"/><feGaussianBlur result="effect1_foregroundBlur_0_1854" stdDeviation="32"/></filter><filter id="c" width="296.479" height="178.391" x="-88.257" y="29.889" color-interpolation-filters="sRGB" filterUnits="userSpaceOnUse"><feFlood flood-opacity="0" result="BackgroundImageFix"/><feBlend in="SourceGraphic" in2="BackgroundImageFix" result="shape"/><feGaussianBlur result="effect1_foregroundBlur_0_1854" stdDeviation="31.28"/></filter><filter id="e" width="133.636" height="133.636" x="-5.205" y="-4.605" color-interpolation-filters="sRGB" filterUnits="userSpaceOnUse"><feFlood flood-opacity="0" result="BackgroundImageFix"/><feBlend in="SourceGraphic" in2="BackgroundImageFix" result="shape"/><feGaussianBlur result="effect1_foregroundBlur_0_1854" stdDeviation="17.727"/></filter><filter id="f" width="35.411" height="35.411" x="56.748" y="28.03" color-interpolation-filters="sRGB" filterUnits="userSpaceOnUse"><feFlood flood-opacity="0" result="BackgroundImageFix"/><feColorMatrix in="SourceAlpha" result="hardAlpha" values="0 0 0 0 0 0 0 0 0 0 0 0 0 0 0 0 0 0 127 0"/><feOffset dy="2.727"/><feGaussianBlur stdDeviation="5.455"/><feComposite in2="hardAlpha" operator="out"/><feColorMatrix values="0 0 0 0 0.054902 0 0 0 0 0.00392157 0 0 0 0 0.105882 0 0 0 0.2 0"/><feBlend in2="BackgroundImageFix" result="effect1_dropShadow_0_1854"/><feBlend in="SourceGraphic" in2="effect1_dropShadow_0_1854" result="shape"/><feColorMatrix in="SourceAlpha" result="hardAlpha" values="0 0 0 0 0 0 0 0 0 0 0 0 0 0 0 0 0 0 127 0"/><feOffset dy="-.955"/><feGaussianBlur stdDeviation="2.727"/><feComposite in2="hardAlpha" k2="-1" k3="1" operator="arithmetic"/><feColorMatrix values="0 0 0 0 1 0 0 0 0 0.5 0 0 0 0 0.809816 0 0 0 1 0"/><feBlend in2="shape" result="effect2_innerShadow_0_1854"/></filter><filter id="h" width="54.366" height="65.281" x="32.977" y="33.577" color-interpolation-filters="sRGB" filterUnits="userSpaceOnUse"><feFlood flood-opacity="0" result="BackgroundImageFix"/><feBlend in="SourceGraphic" in2="BackgroundImageFix" result="shape"/><feColorMatrix in="SourceAlpha" result="hardAlpha" values="0 0 0 0 0 0 0 0 0 0 0 0 0 0 0 0 0 0 127 0"/><feOffset dy="10.909"/><feGaussianBlur stdDeviation="5.455"/><feComposite in2="hardAlpha" k2="-1" k3="1" operator="arithmetic"/><feColorMatrix values="0 0 0 0 1 0 0 0 0 1 0 0 0 0 1 0 0 0 0.6 0"/><feBlend in2="shape" result="effect1_innerShadow_0_1854"/></filter><linearGradient id="g" x1="74.454" x2="74.454" y1="49.805" y2="36.212" gradientUnits="userSpaceOnUse"><stop stop-color="#FF6BC1"/><stop offset="1" stop-color="#FF10BC"/></linearGradient><linearGradient id="i" x1="60.16" x2="60.16" y1="33.577" y2="87.949" gradientUnits="userSpaceOnUse"><stop stop-color="#9041F1"/><stop offset=".447" stop-color="#CCA8F9"/><stop offset="1" stop-color="#fff" stop-opacity=".98"/></linearGradient><radialGradient id="d" cx="0" cy="0" r="1" gradientTransform="matrix(4.2615 85.67989 -27.24912 1.3553 59.983 119.084)" gradientUnits="userSpaceOnUse"><stop offset=".288" stop-color="#F8DC78"/><stop offset=".777" stop-color="#FF5BBA"/></radialGradient><clipPath id="a"><rect width="120" height="120" x=".25" y=".85" fill="#fff" rx="32.727"/></clipPath></defs></svg>