<svg xmlns="http://www.w3.org/2000/svg" width="20" height="20" fill="none"><g clip-path="url(#a)"><circle cx="10" cy="10" r="10" fill="#EFF4F8"/><g clip-path="url(#b)"><path fill="#FF5722" d="M9.747 9.08a.667.667 0 0 1-.667.666h-4a.667.667 0 0 1-.667-.666v-4c0-.368.299-.667.667-.667h4c.368 0 .667.299.667.667v4Z"/><path fill="#4CAF50" d="M16.413 9.08a.667.667 0 0 1-.667.666h-4a.667.667 0 0 1-.666-.666v-4c0-.368.298-.667.666-.667h4c.369 0 .667.299.667.667v4Z"/><path fill="#FFC107" d="M16.413 15.746a.667.667 0 0 1-.667.667h-4a.667.667 0 0 1-.666-.667v-4c0-.368.298-.666.666-.666h4c.369 0 .667.298.667.666v4Z"/><path fill="#03A9F4" d="M9.747 15.746a.667.667 0 0 1-.667.667h-4a.667.667 0 0 1-.667-.667v-4c0-.368.299-.666.667-.666h4c.368 0 .667.298.667.666v4Z"/></g></g><defs><clipPath id="a"><path fill="#fff" d="M0 0h20v20H0z"/></clipPath><clipPath id="b"><path fill="#fff" d="M2.413 2.413h16v16h-16z"/></clipPath></defs></svg>