<svg xmlns="http://www.w3.org/2000/svg" width="25" height="25" fill="none"><path fill="#0188FF" fill-rule="evenodd" d="M21.631 6.406a7.662 7.662 0 0 1-2.204.604 3.844 3.844 0 0 0 1.687-2.123c-.74.44-1.562.76-2.437.931a3.83 3.83 0 0 0-2.8-1.212c-2.478 0-4.299 2.312-3.74 4.712a10.894 10.894 0 0 1-7.908-4.01 3.842 3.842 0 0 0 1.187 5.124 3.822 3.822 0 0 1-1.737-.48c-.042 1.778 1.232 3.44 3.077 3.811-.54.147-1.131.18-1.733.066a3.84 3.84 0 0 0 3.585 2.664 7.715 7.715 0 0 1-5.681 1.59 10.863 10.863 0 0 0 5.882 1.724c7.125 0 11.15-6.017 10.907-11.414a7.812 7.812 0 0 0 1.915-1.987Z" clip-rule="evenodd"/></svg>